<?xml version="1.0" encoding="utf-8" standalone="no"?>
<!DOCTYPE svg PUBLIC "-//W3C//DTD SVG 1.1//EN"
  "http://www.w3.org/Graphics/SVG/1.1/DTD/svg11.dtd">
<!-- Created with matplotlib (https://matplotlib.org/) -->
<svg height="345.6pt" version="1.1" viewBox="0 0 460.8 345.6" width="460.8pt" xmlns="http://www.w3.org/2000/svg" xmlns:xlink="http://www.w3.org/1999/xlink">
 <defs>
  <style type="text/css">
*{stroke-linecap:butt;stroke-linejoin:round;}
  </style>
 </defs>
 <g id="figure_1">
  <g id="patch_1">
   <path d="M 0 345.6 
L 460.8 345.6 
L 460.8 0 
L 0 0 
z
" style="fill:#ffffff;"/>
  </g>
  <g id="axes_1">
   <g id="LineCollection_1">
    <path clip-path="url(#pf27f0fae5f)" d="M 177.451136 149.976288 
L 270.761795 89.50707 
" style="fill:none;stroke:#000000;"/>
    <path clip-path="url(#pf27f0fae5f)" d="M 177.451136 149.976288 
L 146.087599 69.204343 
" style="fill:none;stroke:#000000;"/>
    <path clip-path="url(#pf27f0fae5f)" d="M 177.451136 149.976288 
L 98.141297 158.659605 
" style="fill:none;stroke:#000000;"/>
    <path clip-path="url(#pf27f0fae5f)" d="M 177.451136 149.976288 
L 177.909725 111.483546 
" style="fill:none;stroke:#000000;"/>
    <path clip-path="url(#pf27f0fae5f)" d="M 177.451136 149.976288 
L 135.659172 155.285032 
" style="fill:none;stroke:#000000;"/>
    <path clip-path="url(#pf27f0fae5f)" d="M 177.451136 149.976288 
L 174.963485 240.709789 
" style="fill:none;stroke:#000000;"/>
    <path clip-path="url(#pf27f0fae5f)" d="M 177.451136 149.976288 
L 253.357817 193.70717 
" style="fill:none;stroke:#000000;"/>
    <path clip-path="url(#pf27f0fae5f)" d="M 177.451136 149.976288 
L 181.073949 219.764894 
" style="fill:none;stroke:#000000;"/>
    <path clip-path="url(#pf27f0fae5f)" d="M 177.451136 149.976288 
L 122.856297 96.549965 
" style="fill:none;stroke:#000000;"/>
    <path clip-path="url(#pf27f0fae5f)" d="M 177.451136 149.976288 
L 136.867374 137.840993 
" style="fill:none;stroke:#000000;"/>
    <path clip-path="url(#pf27f0fae5f)" d="M 177.451136 149.976288 
L 151.908888 135.326422 
" style="fill:none;stroke:#000000;"/>
    <path clip-path="url(#pf27f0fae5f)" d="M 284.19337 147.128075 
L 277.148408 131.773859 
" style="fill:none;stroke:#000000;"/>
    <path clip-path="url(#pf27f0fae5f)" d="M 284.19337 147.128075 
L 337.463325 186.547872 
" style="fill:none;stroke:#000000;"/>
    <path clip-path="url(#pf27f0fae5f)" d="M 284.19337 147.128075 
L 205.606201 142.723694 
" style="fill:none;stroke:#000000;"/>
    <path clip-path="url(#pf27f0fae5f)" d="M 284.19337 147.128075 
L 310.447304 177.15692 
" style="fill:none;stroke:#000000;"/>
    <path clip-path="url(#pf27f0fae5f)" d="M 284.19337 147.128075 
L 270.761795 89.50707 
" style="fill:none;stroke:#000000;"/>
    <path clip-path="url(#pf27f0fae5f)" d="M 312.197253 261.920031 
L 303.190907 228.940049 
" style="fill:none;stroke:#000000;"/>
    <path clip-path="url(#pf27f0fae5f)" d="M 312.197253 261.920031 
L 248.707392 226.649184 
" style="fill:none;stroke:#000000;"/>
    <path clip-path="url(#pf27f0fae5f)" d="M 314.276125 239.763306 
L 360.006777 164.034042 
" style="fill:none;stroke:#000000;"/>
    <path clip-path="url(#pf27f0fae5f)" d="M 314.276125 239.763306 
L 337.463325 186.547872 
" style="fill:none;stroke:#000000;"/>
    <path clip-path="url(#pf27f0fae5f)" d="M 314.276125 239.763306 
L 220.468827 270.813106 
" style="fill:none;stroke:#000000;"/>
    <path clip-path="url(#pf27f0fae5f)" d="M 314.276125 239.763306 
L 339.619159 298.59798 
" style="fill:none;stroke:#000000;"/>
    <path clip-path="url(#pf27f0fae5f)" d="M 305.876984 32.903598 
L 270.761795 89.50707 
" style="fill:none;stroke:#000000;"/>
    <path clip-path="url(#pf27f0fae5f)" d="M 151.908888 135.326422 
L 177.909725 111.483546 
" style="fill:none;stroke:#000000;"/>
    <path clip-path="url(#pf27f0fae5f)" d="M 151.908888 135.326422 
L 157.518731 106.146796 
" style="fill:none;stroke:#000000;"/>
    <path clip-path="url(#pf27f0fae5f)" d="M 151.908888 135.326422 
L 205.606201 142.723694 
" style="fill:none;stroke:#000000;"/>
    <path clip-path="url(#pf27f0fae5f)" d="M 151.908888 135.326422 
L 135.659172 155.285032 
" style="fill:none;stroke:#000000;"/>
    <path clip-path="url(#pf27f0fae5f)" d="M 151.908888 135.326422 
L 98.141297 158.659605 
" style="fill:none;stroke:#000000;"/>
    <path clip-path="url(#pf27f0fae5f)" d="M 151.908888 135.326422 
L 136.867374 137.840993 
" style="fill:none;stroke:#000000;"/>
    <path clip-path="url(#pf27f0fae5f)" d="M 270.761795 89.50707 
L 236.018606 104.146851 
" style="fill:none;stroke:#000000;"/>
    <path clip-path="url(#pf27f0fae5f)" d="M 270.761795 89.50707 
L 326.963063 78.598493 
" style="fill:none;stroke:#000000;"/>
    <path clip-path="url(#pf27f0fae5f)" d="M 270.761795 89.50707 
L 235.773631 27.494424 
" style="fill:none;stroke:#000000;"/>
    <path clip-path="url(#pf27f0fae5f)" d="M 270.761795 89.50707 
L 349.019012 103.964002 
" style="fill:none;stroke:#000000;"/>
    <path clip-path="url(#pf27f0fae5f)" d="M 270.761795 89.50707 
L 295.519927 119.217647 
" style="fill:none;stroke:#000000;"/>
    <path clip-path="url(#pf27f0fae5f)" d="M 101.70332 131.513715 
L 23.990555 115.948346 
" style="fill:none;stroke:#000000;"/>
    <path clip-path="url(#pf27f0fae5f)" d="M 101.70332 131.513715 
L 205.606201 142.723694 
" style="fill:none;stroke:#000000;"/>
    <path clip-path="url(#pf27f0fae5f)" d="M 101.70332 131.513715 
L 135.659172 155.285032 
" style="fill:none;stroke:#000000;"/>
    <path clip-path="url(#pf27f0fae5f)" d="M 101.70332 131.513715 
L 136.867374 137.840993 
" style="fill:none;stroke:#000000;"/>
    <path clip-path="url(#pf27f0fae5f)" d="M 337.463325 186.547872 
L 360.006777 164.034042 
" style="fill:none;stroke:#000000;"/>
    <path clip-path="url(#pf27f0fae5f)" d="M 337.463325 186.547872 
L 338.709794 142.978967 
" style="fill:none;stroke:#000000;"/>
    <path clip-path="url(#pf27f0fae5f)" d="M 303.190907 228.940049 
L 253.357817 193.70717 
" style="fill:none;stroke:#000000;"/>
    <path clip-path="url(#pf27f0fae5f)" d="M 303.190907 228.940049 
L 248.707392 226.649184 
" style="fill:none;stroke:#000000;"/>
    <path clip-path="url(#pf27f0fae5f)" d="M 220.468827 270.813106 
L 186.97244 329.283667 
" style="fill:none;stroke:#000000;"/>
    <path clip-path="url(#pf27f0fae5f)" d="M 220.468827 270.813106 
L 181.073949 219.764894 
" style="fill:none;stroke:#000000;"/>
    <path clip-path="url(#pf27f0fae5f)" d="M 220.468827 270.813106 
L 174.963485 240.709789 
" style="fill:none;stroke:#000000;"/>
    <path clip-path="url(#pf27f0fae5f)" d="M 117.820548 280.986519 
L 174.963485 240.709789 
" style="fill:none;stroke:#000000;"/>
    <path clip-path="url(#pf27f0fae5f)" d="M 326.963063 78.598493 
L 295.519927 119.217647 
" style="fill:none;stroke:#000000;"/>
    <path clip-path="url(#pf27f0fae5f)" d="M 326.963063 78.598493 
L 349.019012 103.964002 
" style="fill:none;stroke:#000000;"/>
    <path clip-path="url(#pf27f0fae5f)" d="M 349.019012 103.964002 
L 360.006777 164.034042 
" style="fill:none;stroke:#000000;"/>
    <path clip-path="url(#pf27f0fae5f)" d="M 338.709794 142.978967 
L 295.519927 119.217647 
" style="fill:none;stroke:#000000;"/>
    <path clip-path="url(#pf27f0fae5f)" d="M 338.709794 142.978967 
L 277.148408 131.773859 
" style="fill:none;stroke:#000000;"/>
    <path clip-path="url(#pf27f0fae5f)" d="M 338.709794 142.978967 
L 360.006777 164.034042 
" style="fill:none;stroke:#000000;"/>
    <path clip-path="url(#pf27f0fae5f)" d="M 205.606201 142.723694 
L 135.659172 155.285032 
" style="fill:none;stroke:#000000;"/>
    <path clip-path="url(#pf27f0fae5f)" d="M 205.606201 142.723694 
L 277.148408 131.773859 
" style="fill:none;stroke:#000000;"/>
    <path clip-path="url(#pf27f0fae5f)" d="M 205.606201 142.723694 
L 136.867374 137.840993 
" style="fill:none;stroke:#000000;"/>
    <path clip-path="url(#pf27f0fae5f)" d="M 205.606201 142.723694 
L 295.519927 119.217647 
" style="fill:none;stroke:#000000;"/>
    <path clip-path="url(#pf27f0fae5f)" d="M 205.606201 142.723694 
L 248.707392 226.649184 
" style="fill:none;stroke:#000000;"/>
    <path clip-path="url(#pf27f0fae5f)" d="M 205.606201 142.723694 
L 177.909725 111.483546 
" style="fill:none;stroke:#000000;"/>
    <path clip-path="url(#pf27f0fae5f)" d="M 205.606201 142.723694 
L 157.518731 106.146796 
" style="fill:none;stroke:#000000;"/>
    <path clip-path="url(#pf27f0fae5f)" d="M 205.606201 142.723694 
L 236.018606 104.146851 
" style="fill:none;stroke:#000000;"/>
    <path clip-path="url(#pf27f0fae5f)" d="M 146.087599 69.204343 
L 175.82661 16.316333 
" style="fill:none;stroke:#000000;"/>
    <path clip-path="url(#pf27f0fae5f)" d="M 146.087599 69.204343 
L 122.856297 96.549965 
" style="fill:none;stroke:#000000;"/>
    <path clip-path="url(#pf27f0fae5f)" d="M 146.087599 69.204343 
L 177.909725 111.483546 
" style="fill:none;stroke:#000000;"/>
    <path clip-path="url(#pf27f0fae5f)" d="M 146.087599 69.204343 
L 98.901364 20.623403 
" style="fill:none;stroke:#000000;"/>
    <path clip-path="url(#pf27f0fae5f)" d="M 236.018606 104.146851 
L 177.909725 111.483546 
" style="fill:none;stroke:#000000;"/>
    <path clip-path="url(#pf27f0fae5f)" d="M 236.018606 104.146851 
L 295.519927 119.217647 
" style="fill:none;stroke:#000000;"/>
    <path clip-path="url(#pf27f0fae5f)" d="M 155.554201 295.19624 
L 174.963485 240.709789 
" style="fill:none;stroke:#000000;"/>
    <path clip-path="url(#pf27f0fae5f)" d="M 21.547623 174.005924 
L 98.141297 158.659605 
" style="fill:none;stroke:#000000;"/>
    <path clip-path="url(#pf27f0fae5f)" d="M 253.357817 193.70717 
L 310.447304 177.15692 
" style="fill:none;stroke:#000000;"/>
    <path clip-path="url(#pf27f0fae5f)" d="M 253.357817 193.70717 
L 248.707392 226.649184 
" style="fill:none;stroke:#000000;"/>
    <path clip-path="url(#pf27f0fae5f)" d="M 177.909725 111.483546 
L 136.867374 137.840993 
" style="fill:none;stroke:#000000;"/>
    <path clip-path="url(#pf27f0fae5f)" d="M 136.867374 137.840993 
L 98.141297 158.659605 
" style="fill:none;stroke:#000000;"/>
    <path clip-path="url(#pf27f0fae5f)" d="M 136.867374 137.840993 
L 135.659172 155.285032 
" style="fill:none;stroke:#000000;"/>
    <path clip-path="url(#pf27f0fae5f)" d="M 235.773631 27.494424 
L 175.82661 16.316333 
" style="fill:none;stroke:#000000;"/>
    <path clip-path="url(#pf27f0fae5f)" d="M 248.707392 226.649184 
L 277.668916 283.806383 
" style="fill:none;stroke:#000000;"/>
    <path clip-path="url(#pf27f0fae5f)" d="M 248.707392 226.649184 
L 174.963485 240.709789 
" style="fill:none;stroke:#000000;"/>
    <path clip-path="url(#pf27f0fae5f)" d="M 135.659172 155.285032 
L 98.141297 158.659605 
" style="fill:none;stroke:#000000;"/>
    <path clip-path="url(#pf27f0fae5f)" d="M 439.252377 164.79298 
L 360.006777 164.034042 
" style="fill:none;stroke:#000000;"/>
    <path clip-path="url(#pf27f0fae5f)" d="M 360.006777 164.034042 
L 295.519927 119.217647 
" style="fill:none;stroke:#000000;"/>
    <path clip-path="url(#pf27f0fae5f)" d="M 277.148408 131.773859 
L 295.519927 119.217647 
" style="fill:none;stroke:#000000;"/>
    <path clip-path="url(#pf27f0fae5f)" d="M 181.073949 219.764894 
L 174.963485 240.709789 
" style="fill:none;stroke:#000000;"/>
   </g>
   <g id="PathCollection_1">
    <defs>
     <path d="M 0 8.660254 
C 2.296726 8.660254 4.499694 7.747755 6.123724 6.123724 
C 7.747755 4.499694 8.660254 2.296726 8.660254 0 
C 8.660254 -2.296726 7.747755 -4.499694 6.123724 -6.123724 
C 4.499694 -7.747755 2.296726 -8.660254 0 -8.660254 
C -2.296726 -8.660254 -4.499694 -7.747755 -6.123724 -6.123724 
C -7.747755 -4.499694 -8.660254 -2.296726 -8.660254 0 
C -8.660254 2.296726 -7.747755 4.499694 -6.123724 6.123724 
C -4.499694 7.747755 -2.296726 8.660254 0 8.660254 
z
" id="m3e7e2df265" style="stroke:#ff0000;"/>
    </defs>
    <g clip-path="url(#pf27f0fae5f)">
     <use style="fill:#ff0000;stroke:#ff0000;" x="177.451136" xlink:href="#m3e7e2df265" y="149.976288"/>
     <use style="fill:#ff0000;stroke:#ff0000;" x="284.19337" xlink:href="#m3e7e2df265" y="147.128075"/>
     <use style="fill:#ff0000;stroke:#ff0000;" x="312.197253" xlink:href="#m3e7e2df265" y="261.920031"/>
     <use style="fill:#ff0000;stroke:#ff0000;" x="314.276125" xlink:href="#m3e7e2df265" y="239.763306"/>
     <use style="fill:#ff0000;stroke:#ff0000;" x="305.876984" xlink:href="#m3e7e2df265" y="32.903598"/>
     <use style="fill:#ff0000;stroke:#ff0000;" x="151.908888" xlink:href="#m3e7e2df265" y="135.326422"/>
     <use style="fill:#ff0000;stroke:#ff0000;" x="270.761795" xlink:href="#m3e7e2df265" y="89.50707"/>
     <use style="fill:#ff0000;stroke:#ff0000;" x="101.70332" xlink:href="#m3e7e2df265" y="131.513715"/>
     <use style="fill:#ff0000;stroke:#ff0000;" x="337.463325" xlink:href="#m3e7e2df265" y="186.547872"/>
     <use style="fill:#ff0000;stroke:#ff0000;" x="303.190907" xlink:href="#m3e7e2df265" y="228.940049"/>
     <use style="fill:#ff0000;stroke:#ff0000;" x="220.468827" xlink:href="#m3e7e2df265" y="270.813106"/>
     <use style="fill:#ff0000;stroke:#ff0000;" x="117.820548" xlink:href="#m3e7e2df265" y="280.986519"/>
     <use style="fill:#ff0000;stroke:#ff0000;" x="23.990555" xlink:href="#m3e7e2df265" y="115.948346"/>
     <use style="fill:#ff0000;stroke:#ff0000;" x="326.963063" xlink:href="#m3e7e2df265" y="78.598493"/>
     <use style="fill:#ff0000;stroke:#ff0000;" x="349.019012" xlink:href="#m3e7e2df265" y="103.964002"/>
     <use style="fill:#ff0000;stroke:#ff0000;" x="338.709794" xlink:href="#m3e7e2df265" y="142.978967"/>
     <use style="fill:#ff0000;stroke:#ff0000;" x="205.606201" xlink:href="#m3e7e2df265" y="142.723694"/>
     <use style="fill:#ff0000;stroke:#ff0000;" x="146.087599" xlink:href="#m3e7e2df265" y="69.204343"/>
     <use style="fill:#ff0000;stroke:#ff0000;" x="339.619159" xlink:href="#m3e7e2df265" y="298.59798"/>
     <use style="fill:#ff0000;stroke:#ff0000;" x="236.018606" xlink:href="#m3e7e2df265" y="104.146851"/>
     <use style="fill:#ff0000;stroke:#ff0000;" x="155.554201" xlink:href="#m3e7e2df265" y="295.19624"/>
     <use style="fill:#ff0000;stroke:#ff0000;" x="21.547623" xlink:href="#m3e7e2df265" y="174.005924"/>
     <use style="fill:#ff0000;stroke:#ff0000;" x="253.357817" xlink:href="#m3e7e2df265" y="193.70717"/>
     <use style="fill:#ff0000;stroke:#ff0000;" x="177.909725" xlink:href="#m3e7e2df265" y="111.483546"/>
     <use style="fill:#ff0000;stroke:#ff0000;" x="310.447304" xlink:href="#m3e7e2df265" y="177.15692"/>
     <use style="fill:#ff0000;stroke:#ff0000;" x="136.867374" xlink:href="#m3e7e2df265" y="137.840993"/>
     <use style="fill:#ff0000;stroke:#ff0000;" x="235.773631" xlink:href="#m3e7e2df265" y="27.494424"/>
     <use style="fill:#ff0000;stroke:#ff0000;" x="248.707392" xlink:href="#m3e7e2df265" y="226.649184"/>
     <use style="fill:#ff0000;stroke:#ff0000;" x="186.97244" xlink:href="#m3e7e2df265" y="329.283667"/>
     <use style="fill:#ff0000;stroke:#ff0000;" x="135.659172" xlink:href="#m3e7e2df265" y="155.285032"/>
     <use style="fill:#ff0000;stroke:#ff0000;" x="439.252377" xlink:href="#m3e7e2df265" y="164.79298"/>
     <use style="fill:#ff0000;stroke:#ff0000;" x="122.856297" xlink:href="#m3e7e2df265" y="96.549965"/>
     <use style="fill:#ff0000;stroke:#ff0000;" x="360.006777" xlink:href="#m3e7e2df265" y="164.034042"/>
     <use style="fill:#ff0000;stroke:#ff0000;" x="98.901364" xlink:href="#m3e7e2df265" y="20.623403"/>
     <use style="fill:#ff0000;stroke:#ff0000;" x="277.148408" xlink:href="#m3e7e2df265" y="131.773859"/>
     <use style="fill:#ff0000;stroke:#ff0000;" x="175.82661" xlink:href="#m3e7e2df265" y="16.316333"/>
     <use style="fill:#ff0000;stroke:#ff0000;" x="181.073949" xlink:href="#m3e7e2df265" y="219.764894"/>
     <use style="fill:#ff0000;stroke:#ff0000;" x="157.518731" xlink:href="#m3e7e2df265" y="106.146796"/>
     <use style="fill:#ff0000;stroke:#ff0000;" x="277.668916" xlink:href="#m3e7e2df265" y="283.806383"/>
     <use style="fill:#ff0000;stroke:#ff0000;" x="295.519927" xlink:href="#m3e7e2df265" y="119.217647"/>
     <use style="fill:#ff0000;stroke:#ff0000;" x="174.963485" xlink:href="#m3e7e2df265" y="240.709789"/>
     <use style="fill:#ff0000;stroke:#ff0000;" x="98.141297" xlink:href="#m3e7e2df265" y="158.659605"/>
    </g>
   </g>
   <g id="text_1">
    <g clip-path="url(#pf27f0fae5f)">
     <!-- "LNG" -->
     <defs>
      <path d="M 17.921875 72.90625 
L 17.921875 45.796875 
L 9.625 45.796875 
L 9.625 72.90625 
z
M 36.375 72.90625 
L 36.375 45.796875 
L 28.078125 45.796875 
L 28.078125 72.90625 
z
" id="DejaVuSans-34"/>
      <path d="M 9.8125 72.90625 
L 19.671875 72.90625 
L 19.671875 8.296875 
L 55.171875 8.296875 
L 55.171875 0 
L 9.8125 0 
z
" id="DejaVuSans-76"/>
      <path d="M 9.8125 72.90625 
L 23.09375 72.90625 
L 55.421875 11.921875 
L 55.421875 72.90625 
L 64.984375 72.90625 
L 64.984375 0 
L 51.703125 0 
L 19.390625 60.984375 
L 19.390625 0 
L 9.8125 0 
z
" id="DejaVuSans-78"/>
      <path d="M 59.515625 10.40625 
L 59.515625 29.984375 
L 43.40625 29.984375 
L 43.40625 38.09375 
L 69.28125 38.09375 
L 69.28125 6.78125 
Q 63.578125 2.734375 56.6875 0.65625 
Q 49.8125 -1.421875 42 -1.421875 
Q 24.90625 -1.421875 15.25 8.5625 
Q 5.609375 18.5625 5.609375 36.375 
Q 5.609375 54.25 15.25 64.234375 
Q 24.90625 74.21875 42 74.21875 
Q 49.125 74.21875 55.546875 72.453125 
Q 61.96875 70.703125 67.390625 67.28125 
L 67.390625 56.78125 
Q 61.921875 61.421875 55.765625 63.765625 
Q 49.609375 66.109375 42.828125 66.109375 
Q 29.4375 66.109375 22.71875 58.640625 
Q 16.015625 51.171875 16.015625 36.375 
Q 16.015625 21.625 22.71875 14.15625 
Q 29.4375 6.6875 42.828125 6.6875 
Q 48.046875 6.6875 52.140625 7.59375 
Q 56.25 8.5 59.515625 10.40625 
z
" id="DejaVuSans-71"/>
     </defs>
     <g transform="translate(168.450667 151.631913)scale(0.06 -0.06)">
      <use xlink:href="#DejaVuSans-34"/>
      <use x="45.996094" xlink:href="#DejaVuSans-76"/>
      <use x="101.708984" xlink:href="#DejaVuSans-78"/>
      <use x="176.513672" xlink:href="#DejaVuSans-71"/>
      <use x="254.003906" xlink:href="#DejaVuSans-34"/>
     </g>
    </g>
   </g>
   <g id="text_2">
    <g clip-path="url(#pf27f0fae5f)">
     <!-- "Poland" -->
     <defs>
      <path d="M 19.671875 64.796875 
L 19.671875 37.40625 
L 32.078125 37.40625 
Q 38.96875 37.40625 42.71875 40.96875 
Q 46.484375 44.53125 46.484375 51.125 
Q 46.484375 57.671875 42.71875 61.234375 
Q 38.96875 64.796875 32.078125 64.796875 
z
M 9.8125 72.90625 
L 32.078125 72.90625 
Q 44.34375 72.90625 50.609375 67.359375 
Q 56.890625 61.8125 56.890625 51.125 
Q 56.890625 40.328125 50.609375 34.8125 
Q 44.34375 29.296875 32.078125 29.296875 
L 19.671875 29.296875 
L 19.671875 0 
L 9.8125 0 
z
" id="DejaVuSans-80"/>
      <path d="M 30.609375 48.390625 
Q 23.390625 48.390625 19.1875 42.75 
Q 14.984375 37.109375 14.984375 27.296875 
Q 14.984375 17.484375 19.15625 11.84375 
Q 23.34375 6.203125 30.609375 6.203125 
Q 37.796875 6.203125 41.984375 11.859375 
Q 46.1875 17.53125 46.1875 27.296875 
Q 46.1875 37.015625 41.984375 42.703125 
Q 37.796875 48.390625 30.609375 48.390625 
z
M 30.609375 56 
Q 42.328125 56 49.015625 48.375 
Q 55.71875 40.765625 55.71875 27.296875 
Q 55.71875 13.875 49.015625 6.21875 
Q 42.328125 -1.421875 30.609375 -1.421875 
Q 18.84375 -1.421875 12.171875 6.21875 
Q 5.515625 13.875 5.515625 27.296875 
Q 5.515625 40.765625 12.171875 48.375 
Q 18.84375 56 30.609375 56 
z
" id="DejaVuSans-111"/>
      <path d="M 9.421875 75.984375 
L 18.40625 75.984375 
L 18.40625 0 
L 9.421875 0 
z
" id="DejaVuSans-108"/>
      <path d="M 34.28125 27.484375 
Q 23.390625 27.484375 19.1875 25 
Q 14.984375 22.515625 14.984375 16.5 
Q 14.984375 11.71875 18.140625 8.90625 
Q 21.296875 6.109375 26.703125 6.109375 
Q 34.1875 6.109375 38.703125 11.40625 
Q 43.21875 16.703125 43.21875 25.484375 
L 43.21875 27.484375 
z
M 52.203125 31.203125 
L 52.203125 0 
L 43.21875 0 
L 43.21875 8.296875 
Q 40.140625 3.328125 35.546875 0.953125 
Q 30.953125 -1.421875 24.3125 -1.421875 
Q 15.921875 -1.421875 10.953125 3.296875 
Q 6 8.015625 6 15.921875 
Q 6 25.140625 12.171875 29.828125 
Q 18.359375 34.515625 30.609375 34.515625 
L 43.21875 34.515625 
L 43.21875 35.40625 
Q 43.21875 41.609375 39.140625 45 
Q 35.0625 48.390625 27.6875 48.390625 
Q 23 48.390625 18.546875 47.265625 
Q 14.109375 46.140625 10.015625 43.890625 
L 10.015625 52.203125 
Q 14.9375 54.109375 19.578125 55.046875 
Q 24.21875 56 28.609375 56 
Q 40.484375 56 46.34375 49.84375 
Q 52.203125 43.703125 52.203125 31.203125 
z
" id="DejaVuSans-97"/>
      <path d="M 54.890625 33.015625 
L 54.890625 0 
L 45.90625 0 
L 45.90625 32.71875 
Q 45.90625 40.484375 42.875 44.328125 
Q 39.84375 48.1875 33.796875 48.1875 
Q 26.515625 48.1875 22.3125 43.546875 
Q 18.109375 38.921875 18.109375 30.90625 
L 18.109375 0 
L 9.078125 0 
L 9.078125 54.6875 
L 18.109375 54.6875 
L 18.109375 46.1875 
Q 21.34375 51.125 25.703125 53.5625 
Q 30.078125 56 35.796875 56 
Q 45.21875 56 50.046875 50.171875 
Q 54.890625 44.34375 54.890625 33.015625 
z
" id="DejaVuSans-110"/>
      <path d="M 45.40625 46.390625 
L 45.40625 75.984375 
L 54.390625 75.984375 
L 54.390625 0 
L 45.40625 0 
L 45.40625 8.203125 
Q 42.578125 3.328125 38.25 0.953125 
Q 33.9375 -1.421875 27.875 -1.421875 
Q 17.96875 -1.421875 11.734375 6.484375 
Q 5.515625 14.40625 5.515625 27.296875 
Q 5.515625 40.1875 11.734375 48.09375 
Q 17.96875 56 27.875 56 
Q 33.9375 56 38.25 53.625 
Q 42.578125 51.265625 45.40625 46.390625 
z
M 14.796875 27.296875 
Q 14.796875 17.390625 18.875 11.75 
Q 22.953125 6.109375 30.078125 6.109375 
Q 37.203125 6.109375 41.296875 11.75 
Q 45.40625 17.390625 45.40625 27.296875 
Q 45.40625 37.203125 41.296875 42.84375 
Q 37.203125 48.484375 30.078125 48.484375 
Q 22.953125 48.484375 18.875 42.84375 
Q 14.796875 37.203125 14.796875 27.296875 
z
" id="DejaVuSans-100"/>
     </defs>
     <g transform="translate(271.312589 148.7837)scale(0.06 -0.06)">
      <use xlink:href="#DejaVuSans-34"/>
      <use x="45.996094" xlink:href="#DejaVuSans-80"/>
      <use x="106.251953" xlink:href="#DejaVuSans-111"/>
      <use x="167.433594" xlink:href="#DejaVuSans-108"/>
      <use x="195.216797" xlink:href="#DejaVuSans-97"/>
      <use x="256.496094" xlink:href="#DejaVuSans-110"/>
      <use x="319.875" xlink:href="#DejaVuSans-100"/>
      <use x="383.351562" xlink:href="#DejaVuSans-34"/>
     </g>
    </g>
   </g>
   <g id="text_3">
    <g clip-path="url(#pf27f0fae5f)">
     <!-- "Estonia" -->
     <defs>
      <path d="M 9.8125 72.90625 
L 55.90625 72.90625 
L 55.90625 64.59375 
L 19.671875 64.59375 
L 19.671875 43.015625 
L 54.390625 43.015625 
L 54.390625 34.71875 
L 19.671875 34.71875 
L 19.671875 8.296875 
L 56.78125 8.296875 
L 56.78125 0 
L 9.8125 0 
z
" id="DejaVuSans-69"/>
      <path d="M 44.28125 53.078125 
L 44.28125 44.578125 
Q 40.484375 46.53125 36.375 47.5 
Q 32.28125 48.484375 27.875 48.484375 
Q 21.1875 48.484375 17.84375 46.4375 
Q 14.5 44.390625 14.5 40.28125 
Q 14.5 37.15625 16.890625 35.375 
Q 19.28125 33.59375 26.515625 31.984375 
L 29.59375 31.296875 
Q 39.15625 29.25 43.1875 25.515625 
Q 47.21875 21.78125 47.21875 15.09375 
Q 47.21875 7.46875 41.1875 3.015625 
Q 35.15625 -1.421875 24.609375 -1.421875 
Q 20.21875 -1.421875 15.453125 -0.5625 
Q 10.6875 0.296875 5.421875 2 
L 5.421875 11.28125 
Q 10.40625 8.6875 15.234375 7.390625 
Q 20.0625 6.109375 24.8125 6.109375 
Q 31.15625 6.109375 34.5625 8.28125 
Q 37.984375 10.453125 37.984375 14.40625 
Q 37.984375 18.0625 35.515625 20.015625 
Q 33.0625 21.96875 24.703125 23.78125 
L 21.578125 24.515625 
Q 13.234375 26.265625 9.515625 29.90625 
Q 5.8125 33.546875 5.8125 39.890625 
Q 5.8125 47.609375 11.28125 51.796875 
Q 16.75 56 26.8125 56 
Q 31.78125 56 36.171875 55.265625 
Q 40.578125 54.546875 44.28125 53.078125 
z
" id="DejaVuSans-115"/>
      <path d="M 18.3125 70.21875 
L 18.3125 54.6875 
L 36.8125 54.6875 
L 36.8125 47.703125 
L 18.3125 47.703125 
L 18.3125 18.015625 
Q 18.3125 11.328125 20.140625 9.421875 
Q 21.96875 7.515625 27.59375 7.515625 
L 36.8125 7.515625 
L 36.8125 0 
L 27.59375 0 
Q 17.1875 0 13.234375 3.875 
Q 9.28125 7.765625 9.28125 18.015625 
L 9.28125 47.703125 
L 2.6875 47.703125 
L 2.6875 54.6875 
L 9.28125 54.6875 
L 9.28125 70.21875 
z
" id="DejaVuSans-116"/>
      <path d="M 9.421875 54.6875 
L 18.40625 54.6875 
L 18.40625 0 
L 9.421875 0 
z
M 9.421875 75.984375 
L 18.40625 75.984375 
L 18.40625 64.59375 
L 9.421875 64.59375 
z
" id="DejaVuSans-105"/>
     </defs>
     <g transform="translate(298.393972 263.575656)scale(0.06 -0.06)">
      <use xlink:href="#DejaVuSans-34"/>
      <use x="45.996094" xlink:href="#DejaVuSans-69"/>
      <use x="109.179688" xlink:href="#DejaVuSans-115"/>
      <use x="161.279297" xlink:href="#DejaVuSans-116"/>
      <use x="200.488281" xlink:href="#DejaVuSans-111"/>
      <use x="261.669922" xlink:href="#DejaVuSans-110"/>
      <use x="325.048828" xlink:href="#DejaVuSans-105"/>
      <use x="352.832031" xlink:href="#DejaVuSans-97"/>
      <use x="414.111328" xlink:href="#DejaVuSans-34"/>
     </g>
    </g>
   </g>
   <g id="text_4">
    <g clip-path="url(#pf27f0fae5f)">
     <!-- "Romania" -->
     <defs>
      <path d="M 44.390625 34.1875 
Q 47.5625 33.109375 50.5625 29.59375 
Q 53.5625 26.078125 56.59375 19.921875 
L 66.609375 0 
L 56 0 
L 46.6875 18.703125 
Q 43.0625 26.03125 39.671875 28.421875 
Q 36.28125 30.8125 30.421875 30.8125 
L 19.671875 30.8125 
L 19.671875 0 
L 9.8125 0 
L 9.8125 72.90625 
L 32.078125 72.90625 
Q 44.578125 72.90625 50.734375 67.671875 
Q 56.890625 62.453125 56.890625 51.90625 
Q 56.890625 45.015625 53.6875 40.46875 
Q 50.484375 35.9375 44.390625 34.1875 
z
M 19.671875 64.796875 
L 19.671875 38.921875 
L 32.078125 38.921875 
Q 39.203125 38.921875 42.84375 42.21875 
Q 46.484375 45.515625 46.484375 51.90625 
Q 46.484375 58.296875 42.84375 61.546875 
Q 39.203125 64.796875 32.078125 64.796875 
z
" id="DejaVuSans-82"/>
      <path d="M 52 44.1875 
Q 55.375 50.25 60.0625 53.125 
Q 64.75 56 71.09375 56 
Q 79.640625 56 84.28125 50.015625 
Q 88.921875 44.046875 88.921875 33.015625 
L 88.921875 0 
L 79.890625 0 
L 79.890625 32.71875 
Q 79.890625 40.578125 77.09375 44.375 
Q 74.3125 48.1875 68.609375 48.1875 
Q 61.625 48.1875 57.5625 43.546875 
Q 53.515625 38.921875 53.515625 30.90625 
L 53.515625 0 
L 44.484375 0 
L 44.484375 32.71875 
Q 44.484375 40.625 41.703125 44.40625 
Q 38.921875 48.1875 33.109375 48.1875 
Q 26.21875 48.1875 22.15625 43.53125 
Q 18.109375 38.875 18.109375 30.90625 
L 18.109375 0 
L 9.078125 0 
L 9.078125 54.6875 
L 18.109375 54.6875 
L 18.109375 46.1875 
Q 21.1875 51.21875 25.484375 53.609375 
Q 29.78125 56 35.6875 56 
Q 41.65625 56 45.828125 52.96875 
Q 50 49.953125 52 44.1875 
z
" id="DejaVuSans-109"/>
     </defs>
     <g transform="translate(298.264094 241.418931)scale(0.06 -0.06)">
      <use xlink:href="#DejaVuSans-34"/>
      <use x="45.996094" xlink:href="#DejaVuSans-82"/>
      <use x="115.416016" xlink:href="#DejaVuSans-111"/>
      <use x="176.597656" xlink:href="#DejaVuSans-109"/>
      <use x="274.009766" xlink:href="#DejaVuSans-97"/>
      <use x="335.289062" xlink:href="#DejaVuSans-110"/>
      <use x="398.667969" xlink:href="#DejaVuSans-105"/>
      <use x="426.451172" xlink:href="#DejaVuSans-97"/>
      <use x="487.730469" xlink:href="#DejaVuSans-34"/>
     </g>
    </g>
   </g>
   <g id="text_5">
    <g clip-path="url(#pf27f0fae5f)">
     <!-- "Libya" -->
     <defs>
      <path d="M 48.6875 27.296875 
Q 48.6875 37.203125 44.609375 42.84375 
Q 40.53125 48.484375 33.40625 48.484375 
Q 26.265625 48.484375 22.1875 42.84375 
Q 18.109375 37.203125 18.109375 27.296875 
Q 18.109375 17.390625 22.1875 11.75 
Q 26.265625 6.109375 33.40625 6.109375 
Q 40.53125 6.109375 44.609375 11.75 
Q 48.6875 17.390625 48.6875 27.296875 
z
M 18.109375 46.390625 
Q 20.953125 51.265625 25.265625 53.625 
Q 29.59375 56 35.59375 56 
Q 45.5625 56 51.78125 48.09375 
Q 58.015625 40.1875 58.015625 27.296875 
Q 58.015625 14.40625 51.78125 6.484375 
Q 45.5625 -1.421875 35.59375 -1.421875 
Q 29.59375 -1.421875 25.265625 0.953125 
Q 20.953125 3.328125 18.109375 8.203125 
L 18.109375 0 
L 9.078125 0 
L 9.078125 75.984375 
L 18.109375 75.984375 
z
" id="DejaVuSans-98"/>
      <path d="M 32.171875 -5.078125 
Q 28.375 -14.84375 24.75 -17.8125 
Q 21.140625 -20.796875 15.09375 -20.796875 
L 7.90625 -20.796875 
L 7.90625 -13.28125 
L 13.1875 -13.28125 
Q 16.890625 -13.28125 18.9375 -11.515625 
Q 21 -9.765625 23.484375 -3.21875 
L 25.09375 0.875 
L 2.984375 54.6875 
L 12.5 54.6875 
L 29.59375 11.921875 
L 46.6875 54.6875 
L 56.203125 54.6875 
z
" id="DejaVuSans-121"/>
     </defs>
     <g transform="translate(295.093391 34.559223)scale(0.06 -0.06)">
      <use xlink:href="#DejaVuSans-34"/>
      <use x="45.996094" xlink:href="#DejaVuSans-76"/>
      <use x="101.708984" xlink:href="#DejaVuSans-105"/>
      <use x="129.492188" xlink:href="#DejaVuSans-98"/>
      <use x="192.96875" xlink:href="#DejaVuSans-121"/>
      <use x="252.148438" xlink:href="#DejaVuSans-97"/>
      <use x="313.427734" xlink:href="#DejaVuSans-34"/>
     </g>
    </g>
   </g>
   <g id="text_6">
    <g clip-path="url(#pf27f0fae5f)">
     <!-- "Belgium" -->
     <defs>
      <path d="M 19.671875 34.8125 
L 19.671875 8.109375 
L 35.5 8.109375 
Q 43.453125 8.109375 47.28125 11.40625 
Q 51.125 14.703125 51.125 21.484375 
Q 51.125 28.328125 47.28125 31.5625 
Q 43.453125 34.8125 35.5 34.8125 
z
M 19.671875 64.796875 
L 19.671875 42.828125 
L 34.28125 42.828125 
Q 41.5 42.828125 45.03125 45.53125 
Q 48.578125 48.25 48.578125 53.8125 
Q 48.578125 59.328125 45.03125 62.0625 
Q 41.5 64.796875 34.28125 64.796875 
z
M 9.8125 72.90625 
L 35.015625 72.90625 
Q 46.296875 72.90625 52.390625 68.21875 
Q 58.5 63.53125 58.5 54.890625 
Q 58.5 48.1875 55.375 44.234375 
Q 52.25 40.28125 46.1875 39.3125 
Q 53.46875 37.75 57.5 32.78125 
Q 61.53125 27.828125 61.53125 20.40625 
Q 61.53125 10.640625 54.890625 5.3125 
Q 48.25 0 35.984375 0 
L 9.8125 0 
z
" id="DejaVuSans-66"/>
      <path d="M 56.203125 29.59375 
L 56.203125 25.203125 
L 14.890625 25.203125 
Q 15.484375 15.921875 20.484375 11.0625 
Q 25.484375 6.203125 34.421875 6.203125 
Q 39.59375 6.203125 44.453125 7.46875 
Q 49.3125 8.734375 54.109375 11.28125 
L 54.109375 2.78125 
Q 49.265625 0.734375 44.1875 -0.34375 
Q 39.109375 -1.421875 33.890625 -1.421875 
Q 20.796875 -1.421875 13.15625 6.1875 
Q 5.515625 13.8125 5.515625 26.8125 
Q 5.515625 40.234375 12.765625 48.109375 
Q 20.015625 56 32.328125 56 
Q 43.359375 56 49.78125 48.890625 
Q 56.203125 41.796875 56.203125 29.59375 
z
M 47.21875 32.234375 
Q 47.125 39.59375 43.09375 43.984375 
Q 39.0625 48.390625 32.421875 48.390625 
Q 24.90625 48.390625 20.390625 44.140625 
Q 15.875 39.890625 15.1875 32.171875 
z
" id="DejaVuSans-101"/>
      <path d="M 45.40625 27.984375 
Q 45.40625 37.75 41.375 43.109375 
Q 37.359375 48.484375 30.078125 48.484375 
Q 22.859375 48.484375 18.828125 43.109375 
Q 14.796875 37.75 14.796875 27.984375 
Q 14.796875 18.265625 18.828125 12.890625 
Q 22.859375 7.515625 30.078125 7.515625 
Q 37.359375 7.515625 41.375 12.890625 
Q 45.40625 18.265625 45.40625 27.984375 
z
M 54.390625 6.78125 
Q 54.390625 -7.171875 48.1875 -13.984375 
Q 42 -20.796875 29.203125 -20.796875 
Q 24.46875 -20.796875 20.265625 -20.09375 
Q 16.0625 -19.390625 12.109375 -17.921875 
L 12.109375 -9.1875 
Q 16.0625 -11.328125 19.921875 -12.34375 
Q 23.78125 -13.375 27.78125 -13.375 
Q 36.625 -13.375 41.015625 -8.765625 
Q 45.40625 -4.15625 45.40625 5.171875 
L 45.40625 9.625 
Q 42.625 4.78125 38.28125 2.390625 
Q 33.9375 0 27.875 0 
Q 17.828125 0 11.671875 7.65625 
Q 5.515625 15.328125 5.515625 27.984375 
Q 5.515625 40.671875 11.671875 48.328125 
Q 17.828125 56 27.875 56 
Q 33.9375 56 38.28125 53.609375 
Q 42.625 51.21875 45.40625 46.390625 
L 45.40625 54.6875 
L 54.390625 54.6875 
z
" id="DejaVuSans-103"/>
      <path d="M 8.5 21.578125 
L 8.5 54.6875 
L 17.484375 54.6875 
L 17.484375 21.921875 
Q 17.484375 14.15625 20.5 10.265625 
Q 23.53125 6.390625 29.59375 6.390625 
Q 36.859375 6.390625 41.078125 11.03125 
Q 45.3125 15.671875 45.3125 23.6875 
L 45.3125 54.6875 
L 54.296875 54.6875 
L 54.296875 0 
L 45.3125 0 
L 45.3125 8.40625 
Q 42.046875 3.421875 37.71875 1 
Q 33.40625 -1.421875 27.6875 -1.421875 
Q 18.265625 -1.421875 13.375 4.4375 
Q 8.5 10.296875 8.5 21.578125 
z
M 31.109375 56 
z
" id="DejaVuSans-117"/>
     </defs>
     <g transform="translate(136.849826 136.982047)scale(0.06 -0.06)">
      <use xlink:href="#DejaVuSans-34"/>
      <use x="45.996094" xlink:href="#DejaVuSans-66"/>
      <use x="114.599609" xlink:href="#DejaVuSans-101"/>
      <use x="176.123047" xlink:href="#DejaVuSans-108"/>
      <use x="203.90625" xlink:href="#DejaVuSans-103"/>
      <use x="267.382812" xlink:href="#DejaVuSans-105"/>
      <use x="295.166016" xlink:href="#DejaVuSans-117"/>
      <use x="358.544922" xlink:href="#DejaVuSans-109"/>
      <use x="455.957031" xlink:href="#DejaVuSans-34"/>
     </g>
    </g>
   </g>
   <g id="text_7">
    <g clip-path="url(#pf27f0fae5f)">
     <!-- "Italy" -->
     <defs>
      <path d="M 9.8125 72.90625 
L 19.671875 72.90625 
L 19.671875 0 
L 9.8125 0 
z
" id="DejaVuSans-73"/>
     </defs>
     <g transform="translate(261.493201 91.162695)scale(0.06 -0.06)">
      <use xlink:href="#DejaVuSans-34"/>
      <use x="45.996094" xlink:href="#DejaVuSans-73"/>
      <use x="75.488281" xlink:href="#DejaVuSans-116"/>
      <use x="114.697266" xlink:href="#DejaVuSans-97"/>
      <use x="175.976562" xlink:href="#DejaVuSans-108"/>
      <use x="203.759766" xlink:href="#DejaVuSans-121"/>
      <use x="262.939453" xlink:href="#DejaVuSans-34"/>
     </g>
    </g>
   </g>
   <g id="text_8">
    <g clip-path="url(#pf27f0fae5f)">
     <!-- "Denmark" -->
     <defs>
      <path d="M 19.671875 64.796875 
L 19.671875 8.109375 
L 31.59375 8.109375 
Q 46.6875 8.109375 53.6875 14.9375 
Q 60.6875 21.78125 60.6875 36.53125 
Q 60.6875 51.171875 53.6875 57.984375 
Q 46.6875 64.796875 31.59375 64.796875 
z
M 9.8125 72.90625 
L 30.078125 72.90625 
Q 51.265625 72.90625 61.171875 64.09375 
Q 71.09375 55.28125 71.09375 36.53125 
Q 71.09375 17.671875 61.125 8.828125 
Q 51.171875 0 30.078125 0 
L 9.8125 0 
z
" id="DejaVuSans-68"/>
      <path d="M 41.109375 46.296875 
Q 39.59375 47.171875 37.8125 47.578125 
Q 36.03125 48 33.890625 48 
Q 26.265625 48 22.1875 43.046875 
Q 18.109375 38.09375 18.109375 28.8125 
L 18.109375 0 
L 9.078125 0 
L 9.078125 54.6875 
L 18.109375 54.6875 
L 18.109375 46.1875 
Q 20.953125 51.171875 25.484375 53.578125 
Q 30.03125 56 36.53125 56 
Q 37.453125 56 38.578125 55.875 
Q 39.703125 55.765625 41.0625 55.515625 
z
" id="DejaVuSans-114"/>
      <path d="M 9.078125 75.984375 
L 18.109375 75.984375 
L 18.109375 31.109375 
L 44.921875 54.6875 
L 56.390625 54.6875 
L 27.390625 29.109375 
L 57.625 0 
L 45.90625 0 
L 18.109375 26.703125 
L 18.109375 0 
L 9.078125 0 
z
" id="DejaVuSans-107"/>
     </defs>
     <g transform="translate(85.155039 133.16934)scale(0.06 -0.06)">
      <use xlink:href="#DejaVuSans-34"/>
      <use x="45.996094" xlink:href="#DejaVuSans-68"/>
      <use x="122.998047" xlink:href="#DejaVuSans-101"/>
      <use x="184.521484" xlink:href="#DejaVuSans-110"/>
      <use x="247.900391" xlink:href="#DejaVuSans-109"/>
      <use x="345.3125" xlink:href="#DejaVuSans-97"/>
      <use x="406.591797" xlink:href="#DejaVuSans-114"/>
      <use x="447.705078" xlink:href="#DejaVuSans-107"/>
      <use x="505.615234" xlink:href="#DejaVuSans-34"/>
     </g>
    </g>
   </g>
   <g id="text_9">
    <g clip-path="url(#pf27f0fae5f)">
     <!-- "Ukraine" -->
     <defs>
      <path d="M 8.6875 72.90625 
L 18.609375 72.90625 
L 18.609375 28.609375 
Q 18.609375 16.890625 22.84375 11.734375 
Q 27.09375 6.59375 36.625 6.59375 
Q 46.09375 6.59375 50.34375 11.734375 
Q 54.59375 16.890625 54.59375 28.609375 
L 54.59375 72.90625 
L 64.5 72.90625 
L 64.5 27.390625 
Q 64.5 13.140625 57.4375 5.859375 
Q 50.390625 -1.421875 36.625 -1.421875 
Q 22.796875 -1.421875 15.734375 5.859375 
Q 8.6875 13.140625 8.6875 27.390625 
z
" id="DejaVuSans-85"/>
     </defs>
     <g transform="translate(323.118169 188.203497)scale(0.06 -0.06)">
      <use xlink:href="#DejaVuSans-34"/>
      <use x="45.996094" xlink:href="#DejaVuSans-85"/>
      <use x="119.189453" xlink:href="#DejaVuSans-107"/>
      <use x="177.099609" xlink:href="#DejaVuSans-114"/>
      <use x="218.212891" xlink:href="#DejaVuSans-97"/>
      <use x="279.492188" xlink:href="#DejaVuSans-105"/>
      <use x="307.275391" xlink:href="#DejaVuSans-110"/>
      <use x="370.654297" xlink:href="#DejaVuSans-101"/>
      <use x="432.177734" xlink:href="#DejaVuSans-34"/>
     </g>
    </g>
   </g>
   <g id="text_10">
    <g clip-path="url(#pf27f0fae5f)">
     <!-- "Latvia" -->
     <defs>
      <path d="M 2.984375 54.6875 
L 12.5 54.6875 
L 29.59375 8.796875 
L 46.6875 54.6875 
L 56.203125 54.6875 
L 35.6875 0 
L 23.484375 0 
z
" id="DejaVuSans-118"/>
     </defs>
     <g transform="translate(291.297313 230.595674)scale(0.06 -0.06)">
      <use xlink:href="#DejaVuSans-34"/>
      <use x="45.996094" xlink:href="#DejaVuSans-76"/>
      <use x="101.708984" xlink:href="#DejaVuSans-97"/>
      <use x="162.988281" xlink:href="#DejaVuSans-116"/>
      <use x="202.197266" xlink:href="#DejaVuSans-118"/>
      <use x="261.376953" xlink:href="#DejaVuSans-105"/>
      <use x="289.160156" xlink:href="#DejaVuSans-97"/>
      <use x="350.439453" xlink:href="#DejaVuSans-34"/>
     </g>
    </g>
   </g>
   <g id="text_11">
    <g clip-path="url(#pf27f0fae5f)">
     <!-- "Bulgaria" -->
     <g transform="translate(205.267733 272.468731)scale(0.06 -0.06)">
      <use xlink:href="#DejaVuSans-34"/>
      <use x="45.996094" xlink:href="#DejaVuSans-66"/>
      <use x="114.599609" xlink:href="#DejaVuSans-117"/>
      <use x="177.978516" xlink:href="#DejaVuSans-108"/>
      <use x="205.761719" xlink:href="#DejaVuSans-103"/>
      <use x="269.238281" xlink:href="#DejaVuSans-97"/>
      <use x="330.517578" xlink:href="#DejaVuSans-114"/>
      <use x="371.630859" xlink:href="#DejaVuSans-105"/>
      <use x="399.414062" xlink:href="#DejaVuSans-97"/>
      <use x="460.693359" xlink:href="#DejaVuSans-34"/>
     </g>
    </g>
   </g>
   <g id="text_12">
    <g clip-path="url(#pf27f0fae5f)">
     <!-- "Georgia" -->
     <g transform="translate(103.245235 282.642144)scale(0.06 -0.06)">
      <use xlink:href="#DejaVuSans-34"/>
      <use x="45.996094" xlink:href="#DejaVuSans-71"/>
      <use x="123.486328" xlink:href="#DejaVuSans-101"/>
      <use x="185.009766" xlink:href="#DejaVuSans-111"/>
      <use x="246.191406" xlink:href="#DejaVuSans-114"/>
      <use x="287.289062" xlink:href="#DejaVuSans-103"/>
      <use x="350.765625" xlink:href="#DejaVuSans-105"/>
      <use x="378.548828" xlink:href="#DejaVuSans-97"/>
      <use x="439.828125" xlink:href="#DejaVuSans-34"/>
     </g>
    </g>
   </g>
   <g id="text_13">
    <g clip-path="url(#pf27f0fae5f)">
     <!-- "Sweden" -->
     <defs>
      <path d="M 53.515625 70.515625 
L 53.515625 60.890625 
Q 47.90625 63.578125 42.921875 64.890625 
Q 37.9375 66.21875 33.296875 66.21875 
Q 25.25 66.21875 20.875 63.09375 
Q 16.5 59.96875 16.5 54.203125 
Q 16.5 49.359375 19.40625 46.890625 
Q 22.3125 44.4375 30.421875 42.921875 
L 36.375 41.703125 
Q 47.40625 39.59375 52.65625 34.296875 
Q 57.90625 29 57.90625 20.125 
Q 57.90625 9.515625 50.796875 4.046875 
Q 43.703125 -1.421875 29.984375 -1.421875 
Q 24.8125 -1.421875 18.96875 -0.25 
Q 13.140625 0.921875 6.890625 3.21875 
L 6.890625 13.375 
Q 12.890625 10.015625 18.65625 8.296875 
Q 24.421875 6.59375 29.984375 6.59375 
Q 38.421875 6.59375 43.015625 9.90625 
Q 47.609375 13.234375 47.609375 19.390625 
Q 47.609375 24.75 44.3125 27.78125 
Q 41.015625 30.8125 33.5 32.328125 
L 27.484375 33.5 
Q 16.453125 35.6875 11.515625 40.375 
Q 6.59375 45.0625 6.59375 53.421875 
Q 6.59375 63.09375 13.40625 68.65625 
Q 20.21875 74.21875 32.171875 74.21875 
Q 37.3125 74.21875 42.625 73.28125 
Q 47.953125 72.359375 53.515625 70.515625 
z
" id="DejaVuSans-83"/>
      <path d="M 4.203125 54.6875 
L 13.1875 54.6875 
L 24.421875 12.015625 
L 35.59375 54.6875 
L 46.1875 54.6875 
L 57.421875 12.015625 
L 68.609375 54.6875 
L 77.59375 54.6875 
L 63.28125 0 
L 52.6875 0 
L 40.921875 44.828125 
L 29.109375 0 
L 18.5 0 
z
" id="DejaVuSans-119"/>
     </defs>
     <g transform="translate(9.37493 117.603971)scale(0.06 -0.06)">
      <use xlink:href="#DejaVuSans-34"/>
      <use x="45.996094" xlink:href="#DejaVuSans-83"/>
      <use x="109.472656" xlink:href="#DejaVuSans-119"/>
      <use x="191.259766" xlink:href="#DejaVuSans-101"/>
      <use x="252.783203" xlink:href="#DejaVuSans-100"/>
      <use x="316.259766" xlink:href="#DejaVuSans-101"/>
      <use x="377.783203" xlink:href="#DejaVuSans-110"/>
      <use x="441.162109" xlink:href="#DejaVuSans-34"/>
     </g>
    </g>
   </g>
   <g id="text_14">
    <g clip-path="url(#pf27f0fae5f)">
     <!-- "Slovenia" -->
     <g transform="translate(311.434782 80.254118)scale(0.06 -0.06)">
      <use xlink:href="#DejaVuSans-34"/>
      <use x="45.996094" xlink:href="#DejaVuSans-83"/>
      <use x="109.472656" xlink:href="#DejaVuSans-108"/>
      <use x="137.255859" xlink:href="#DejaVuSans-111"/>
      <use x="198.4375" xlink:href="#DejaVuSans-118"/>
      <use x="257.617188" xlink:href="#DejaVuSans-101"/>
      <use x="319.140625" xlink:href="#DejaVuSans-110"/>
      <use x="382.519531" xlink:href="#DejaVuSans-105"/>
      <use x="410.302734" xlink:href="#DejaVuSans-97"/>
      <use x="471.582031" xlink:href="#DejaVuSans-34"/>
     </g>
    </g>
   </g>
   <g id="text_15">
    <g clip-path="url(#pf27f0fae5f)">
     <!-- "Croatia" -->
     <defs>
      <path d="M 64.40625 67.28125 
L 64.40625 56.890625 
Q 59.421875 61.53125 53.78125 63.8125 
Q 48.140625 66.109375 41.796875 66.109375 
Q 29.296875 66.109375 22.65625 58.46875 
Q 16.015625 50.828125 16.015625 36.375 
Q 16.015625 21.96875 22.65625 14.328125 
Q 29.296875 6.6875 41.796875 6.6875 
Q 48.140625 6.6875 53.78125 8.984375 
Q 59.421875 11.28125 64.40625 15.921875 
L 64.40625 5.609375 
Q 59.234375 2.09375 53.4375 0.328125 
Q 47.65625 -1.421875 41.21875 -1.421875 
Q 24.65625 -1.421875 15.125 8.703125 
Q 5.609375 18.84375 5.609375 36.375 
Q 5.609375 53.953125 15.125 64.078125 
Q 24.65625 74.21875 41.21875 74.21875 
Q 47.75 74.21875 53.53125 72.484375 
Q 59.328125 70.75 64.40625 67.28125 
z
" id="DejaVuSans-67"/>
     </defs>
     <g transform="translate(335.409793 105.619627)scale(0.06 -0.06)">
      <use xlink:href="#DejaVuSans-34"/>
      <use x="45.996094" xlink:href="#DejaVuSans-67"/>
      <use x="115.820312" xlink:href="#DejaVuSans-114"/>
      <use x="156.902344" xlink:href="#DejaVuSans-111"/>
      <use x="218.083984" xlink:href="#DejaVuSans-97"/>
      <use x="279.363281" xlink:href="#DejaVuSans-116"/>
      <use x="318.572266" xlink:href="#DejaVuSans-105"/>
      <use x="346.355469" xlink:href="#DejaVuSans-97"/>
      <use x="407.634766" xlink:href="#DejaVuSans-34"/>
     </g>
    </g>
   </g>
   <g id="text_16">
    <g clip-path="url(#pf27f0fae5f)">
     <!-- "Slovak Republic" -->
     <defs>
      <path id="DejaVuSans-32"/>
      <path d="M 18.109375 8.203125 
L 18.109375 -20.796875 
L 9.078125 -20.796875 
L 9.078125 54.6875 
L 18.109375 54.6875 
L 18.109375 46.390625 
Q 20.953125 51.265625 25.265625 53.625 
Q 29.59375 56 35.59375 56 
Q 45.5625 56 51.78125 48.09375 
Q 58.015625 40.1875 58.015625 27.296875 
Q 58.015625 14.40625 51.78125 6.484375 
Q 45.5625 -1.421875 35.59375 -1.421875 
Q 29.59375 -1.421875 25.265625 0.953125 
Q 20.953125 3.328125 18.109375 8.203125 
z
M 48.6875 27.296875 
Q 48.6875 37.203125 44.609375 42.84375 
Q 40.53125 48.484375 33.40625 48.484375 
Q 26.265625 48.484375 22.1875 42.84375 
Q 18.109375 37.203125 18.109375 27.296875 
Q 18.109375 17.390625 22.1875 11.75 
Q 26.265625 6.109375 33.40625 6.109375 
Q 40.53125 6.109375 44.609375 11.75 
Q 48.6875 17.390625 48.6875 27.296875 
z
" id="DejaVuSans-112"/>
      <path d="M 48.78125 52.59375 
L 48.78125 44.1875 
Q 44.96875 46.296875 41.140625 47.34375 
Q 37.3125 48.390625 33.40625 48.390625 
Q 24.65625 48.390625 19.8125 42.84375 
Q 14.984375 37.3125 14.984375 27.296875 
Q 14.984375 17.28125 19.8125 11.734375 
Q 24.65625 6.203125 33.40625 6.203125 
Q 37.3125 6.203125 41.140625 7.25 
Q 44.96875 8.296875 48.78125 10.40625 
L 48.78125 2.09375 
Q 45.015625 0.34375 40.984375 -0.53125 
Q 36.96875 -1.421875 32.421875 -1.421875 
Q 20.0625 -1.421875 12.78125 6.34375 
Q 5.515625 14.109375 5.515625 27.296875 
Q 5.515625 40.671875 12.859375 48.328125 
Q 20.21875 56 33.015625 56 
Q 37.15625 56 41.109375 55.140625 
Q 45.0625 54.296875 48.78125 52.59375 
z
" id="DejaVuSans-99"/>
     </defs>
     <g transform="translate(312.1162 144.634592)scale(0.06 -0.06)">
      <use xlink:href="#DejaVuSans-34"/>
      <use x="45.996094" xlink:href="#DejaVuSans-83"/>
      <use x="109.472656" xlink:href="#DejaVuSans-108"/>
      <use x="137.255859" xlink:href="#DejaVuSans-111"/>
      <use x="198.4375" xlink:href="#DejaVuSans-118"/>
      <use x="257.617188" xlink:href="#DejaVuSans-97"/>
      <use x="318.896484" xlink:href="#DejaVuSans-107"/>
      <use x="376.806641" xlink:href="#DejaVuSans-32"/>
      <use x="408.59375" xlink:href="#DejaVuSans-82"/>
      <use x="478.013672" xlink:href="#DejaVuSans-101"/>
      <use x="539.537109" xlink:href="#DejaVuSans-112"/>
      <use x="603.013672" xlink:href="#DejaVuSans-117"/>
      <use x="666.392578" xlink:href="#DejaVuSans-98"/>
      <use x="729.869141" xlink:href="#DejaVuSans-108"/>
      <use x="757.652344" xlink:href="#DejaVuSans-105"/>
      <use x="785.435547" xlink:href="#DejaVuSans-99"/>
      <use x="840.416016" xlink:href="#DejaVuSans-34"/>
     </g>
    </g>
   </g>
   <g id="text_17">
    <g clip-path="url(#pf27f0fae5f)">
     <!-- "Germany" -->
     <g transform="translate(189.00542 144.379319)scale(0.06 -0.06)">
      <use xlink:href="#DejaVuSans-34"/>
      <use x="45.996094" xlink:href="#DejaVuSans-71"/>
      <use x="123.486328" xlink:href="#DejaVuSans-101"/>
      <use x="185.009766" xlink:href="#DejaVuSans-114"/>
      <use x="226.107422" xlink:href="#DejaVuSans-109"/>
      <use x="323.519531" xlink:href="#DejaVuSans-97"/>
      <use x="384.798828" xlink:href="#DejaVuSans-110"/>
      <use x="448.177734" xlink:href="#DejaVuSans-121"/>
      <use x="507.357422" xlink:href="#DejaVuSans-34"/>
     </g>
    </g>
   </g>
   <g id="text_18">
    <g clip-path="url(#pf27f0fae5f)">
     <!-- "Spain" -->
     <g transform="translate(134.945412 70.859968)scale(0.06 -0.06)">
      <use xlink:href="#DejaVuSans-34"/>
      <use x="45.996094" xlink:href="#DejaVuSans-83"/>
      <use x="109.472656" xlink:href="#DejaVuSans-112"/>
      <use x="172.949219" xlink:href="#DejaVuSans-97"/>
      <use x="234.228516" xlink:href="#DejaVuSans-105"/>
      <use x="262.011719" xlink:href="#DejaVuSans-110"/>
      <use x="325.390625" xlink:href="#DejaVuSans-34"/>
     </g>
    </g>
   </g>
   <g id="text_19">
    <g clip-path="url(#pf27f0fae5f)">
     <!-- "Moldova" -->
     <defs>
      <path d="M 9.8125 72.90625 
L 24.515625 72.90625 
L 43.109375 23.296875 
L 61.8125 72.90625 
L 76.515625 72.90625 
L 76.515625 0 
L 66.890625 0 
L 66.890625 64.015625 
L 48.09375 14.015625 
L 38.1875 14.015625 
L 19.390625 64.015625 
L 19.390625 0 
L 9.8125 0 
z
" id="DejaVuSans-77"/>
     </defs>
     <g transform="translate(324.24744 300.253605)scale(0.06 -0.06)">
      <use xlink:href="#DejaVuSans-34"/>
      <use x="45.996094" xlink:href="#DejaVuSans-77"/>
      <use x="132.275391" xlink:href="#DejaVuSans-111"/>
      <use x="193.457031" xlink:href="#DejaVuSans-108"/>
      <use x="221.240234" xlink:href="#DejaVuSans-100"/>
      <use x="284.716797" xlink:href="#DejaVuSans-111"/>
      <use x="345.898438" xlink:href="#DejaVuSans-118"/>
      <use x="405.078125" xlink:href="#DejaVuSans-97"/>
      <use x="466.357422" xlink:href="#DejaVuSans-34"/>
     </g>
    </g>
   </g>
   <g id="text_20">
    <g clip-path="url(#pf27f0fae5f)">
     <!-- "Switzerland" -->
     <defs>
      <path d="M 5.515625 54.6875 
L 48.1875 54.6875 
L 48.1875 46.484375 
L 14.40625 7.171875 
L 48.1875 7.171875 
L 48.1875 0 
L 4.296875 0 
L 4.296875 8.203125 
L 38.09375 47.515625 
L 5.515625 47.515625 
z
" id="DejaVuSans-122"/>
     </defs>
     <g transform="translate(215.7597 105.802476)scale(0.06 -0.06)">
      <use xlink:href="#DejaVuSans-34"/>
      <use x="45.996094" xlink:href="#DejaVuSans-83"/>
      <use x="109.472656" xlink:href="#DejaVuSans-119"/>
      <use x="191.259766" xlink:href="#DejaVuSans-105"/>
      <use x="219.042969" xlink:href="#DejaVuSans-116"/>
      <use x="258.251953" xlink:href="#DejaVuSans-122"/>
      <use x="310.742188" xlink:href="#DejaVuSans-101"/>
      <use x="372.265625" xlink:href="#DejaVuSans-114"/>
      <use x="413.378906" xlink:href="#DejaVuSans-108"/>
      <use x="441.162109" xlink:href="#DejaVuSans-97"/>
      <use x="502.441406" xlink:href="#DejaVuSans-110"/>
      <use x="565.820312" xlink:href="#DejaVuSans-100"/>
      <use x="629.296875" xlink:href="#DejaVuSans-34"/>
     </g>
    </g>
   </g>
   <g id="text_21">
    <g clip-path="url(#pf27f0fae5f)">
     <!-- "Iran" -->
     <g transform="translate(146.936232 296.851865)scale(0.06 -0.06)">
      <use xlink:href="#DejaVuSans-34"/>
      <use x="45.996094" xlink:href="#DejaVuSans-73"/>
      <use x="75.488281" xlink:href="#DejaVuSans-114"/>
      <use x="116.601562" xlink:href="#DejaVuSans-97"/>
      <use x="177.880859" xlink:href="#DejaVuSans-110"/>
      <use x="241.259766" xlink:href="#DejaVuSans-34"/>
     </g>
    </g>
   </g>
   <g id="text_22">
    <g clip-path="url(#pf27f0fae5f)">
     <!-- "Ireland" -->
     <g transform="translate(8.346685 175.661549)scale(0.06 -0.06)">
      <use xlink:href="#DejaVuSans-34"/>
      <use x="45.996094" xlink:href="#DejaVuSans-73"/>
      <use x="75.488281" xlink:href="#DejaVuSans-114"/>
      <use x="116.570312" xlink:href="#DejaVuSans-101"/>
      <use x="178.09375" xlink:href="#DejaVuSans-108"/>
      <use x="205.876953" xlink:href="#DejaVuSans-97"/>
      <use x="267.15625" xlink:href="#DejaVuSans-110"/>
      <use x="330.535156" xlink:href="#DejaVuSans-100"/>
      <use x="394.011719" xlink:href="#DejaVuSans-34"/>
     </g>
    </g>
   </g>
   <g id="text_23">
    <g clip-path="url(#pf27f0fae5f)">
     <!-- "Lithuania" -->
     <defs>
      <path d="M 54.890625 33.015625 
L 54.890625 0 
L 45.90625 0 
L 45.90625 32.71875 
Q 45.90625 40.484375 42.875 44.328125 
Q 39.84375 48.1875 33.796875 48.1875 
Q 26.515625 48.1875 22.3125 43.546875 
Q 18.109375 38.921875 18.109375 30.90625 
L 18.109375 0 
L 9.078125 0 
L 9.078125 75.984375 
L 18.109375 75.984375 
L 18.109375 46.1875 
Q 21.34375 51.125 25.703125 53.5625 
Q 30.078125 56 35.796875 56 
Q 45.21875 56 50.046875 50.171875 
Q 54.890625 44.34375 54.890625 33.015625 
z
" id="DejaVuSans-104"/>
     </defs>
     <g transform="translate(236.70266 195.362795)scale(0.06 -0.06)">
      <use xlink:href="#DejaVuSans-34"/>
      <use x="45.996094" xlink:href="#DejaVuSans-76"/>
      <use x="101.708984" xlink:href="#DejaVuSans-105"/>
      <use x="129.492188" xlink:href="#DejaVuSans-116"/>
      <use x="168.701172" xlink:href="#DejaVuSans-104"/>
      <use x="232.080078" xlink:href="#DejaVuSans-117"/>
      <use x="295.458984" xlink:href="#DejaVuSans-97"/>
      <use x="356.738281" xlink:href="#DejaVuSans-110"/>
      <use x="420.117188" xlink:href="#DejaVuSans-105"/>
      <use x="447.900391" xlink:href="#DejaVuSans-97"/>
      <use x="509.179688" xlink:href="#DejaVuSans-34"/>
     </g>
    </g>
   </g>
   <g id="text_24">
    <g clip-path="url(#pf27f0fae5f)">
     <!-- "France" -->
     <defs>
      <path d="M 9.8125 72.90625 
L 51.703125 72.90625 
L 51.703125 64.59375 
L 19.671875 64.59375 
L 19.671875 43.109375 
L 48.578125 43.109375 
L 48.578125 34.8125 
L 19.671875 34.8125 
L 19.671875 0 
L 9.8125 0 
z
" id="DejaVuSans-70"/>
     </defs>
     <g transform="translate(164.9591 113.139171)scale(0.06 -0.06)">
      <use xlink:href="#DejaVuSans-34"/>
      <use x="45.996094" xlink:href="#DejaVuSans-70"/>
      <use x="103.40625" xlink:href="#DejaVuSans-114"/>
      <use x="144.519531" xlink:href="#DejaVuSans-97"/>
      <use x="205.798828" xlink:href="#DejaVuSans-110"/>
      <use x="269.177734" xlink:href="#DejaVuSans-99"/>
      <use x="324.158203" xlink:href="#DejaVuSans-101"/>
      <use x="385.681641" xlink:href="#DejaVuSans-34"/>
     </g>
    </g>
   </g>
   <g id="text_25">
    <g clip-path="url(#pf27f0fae5f)">
     <!-- "Belarus" -->
     <g transform="translate(296.413867 178.812545)scale(0.06 -0.06)">
      <use xlink:href="#DejaVuSans-34"/>
      <use x="45.996094" xlink:href="#DejaVuSans-66"/>
      <use x="114.599609" xlink:href="#DejaVuSans-101"/>
      <use x="176.123047" xlink:href="#DejaVuSans-108"/>
      <use x="203.90625" xlink:href="#DejaVuSans-97"/>
      <use x="265.185547" xlink:href="#DejaVuSans-114"/>
      <use x="306.298828" xlink:href="#DejaVuSans-117"/>
      <use x="369.677734" xlink:href="#DejaVuSans-115"/>
      <use x="421.777344" xlink:href="#DejaVuSans-34"/>
     </g>
    </g>
   </g>
   <g id="text_26">
    <g clip-path="url(#pf27f0fae5f)">
     <!-- "Norway" -->
     <g transform="translate(122.726592 139.496618)scale(0.06 -0.06)">
      <use xlink:href="#DejaVuSans-34"/>
      <use x="45.996094" xlink:href="#DejaVuSans-78"/>
      <use x="120.800781" xlink:href="#DejaVuSans-111"/>
      <use x="181.982422" xlink:href="#DejaVuSans-114"/>
      <use x="223.095703" xlink:href="#DejaVuSans-119"/>
      <use x="304.882812" xlink:href="#DejaVuSans-97"/>
      <use x="366.162109" xlink:href="#DejaVuSans-121"/>
      <use x="425.341797" xlink:href="#DejaVuSans-34"/>
     </g>
    </g>
   </g>
   <g id="text_27">
    <g clip-path="url(#pf27f0fae5f)">
     <!-- "Tunisia" -->
     <defs>
      <path d="M -0.296875 72.90625 
L 61.375 72.90625 
L 61.375 64.59375 
L 35.5 64.59375 
L 35.5 0 
L 25.59375 0 
L 25.59375 64.59375 
L -0.296875 64.59375 
z
" id="DejaVuSans-84"/>
     </defs>
     <g transform="translate(222.317693 29.150049)scale(0.06 -0.06)">
      <use xlink:href="#DejaVuSans-34"/>
      <use x="45.996094" xlink:href="#DejaVuSans-84"/>
      <use x="106.845703" xlink:href="#DejaVuSans-117"/>
      <use x="170.224609" xlink:href="#DejaVuSans-110"/>
      <use x="233.603516" xlink:href="#DejaVuSans-105"/>
      <use x="261.386719" xlink:href="#DejaVuSans-115"/>
      <use x="313.486328" xlink:href="#DejaVuSans-105"/>
      <use x="341.269531" xlink:href="#DejaVuSans-97"/>
      <use x="402.548828" xlink:href="#DejaVuSans-34"/>
     </g>
    </g>
   </g>
   <g id="text_28">
    <g clip-path="url(#pf27f0fae5f)">
     <!-- "Russia" -->
     <g transform="translate(236.165985 228.304809)scale(0.06 -0.06)">
      <use xlink:href="#DejaVuSans-34"/>
      <use x="45.996094" xlink:href="#DejaVuSans-82"/>
      <use x="115.416016" xlink:href="#DejaVuSans-117"/>
      <use x="178.794922" xlink:href="#DejaVuSans-115"/>
      <use x="230.894531" xlink:href="#DejaVuSans-115"/>
      <use x="282.994141" xlink:href="#DejaVuSans-105"/>
      <use x="310.777344" xlink:href="#DejaVuSans-97"/>
      <use x="372.056641" xlink:href="#DejaVuSans-34"/>
     </g>
    </g>
   </g>
   <g id="text_29">
    <g clip-path="url(#pf27f0fae5f)">
     <!-- "Macedonia" -->
     <g transform="translate(167.976815 330.939292)scale(0.06 -0.06)">
      <use xlink:href="#DejaVuSans-34"/>
      <use x="45.996094" xlink:href="#DejaVuSans-77"/>
      <use x="132.275391" xlink:href="#DejaVuSans-97"/>
      <use x="193.554688" xlink:href="#DejaVuSans-99"/>
      <use x="248.535156" xlink:href="#DejaVuSans-101"/>
      <use x="310.058594" xlink:href="#DejaVuSans-100"/>
      <use x="373.535156" xlink:href="#DejaVuSans-111"/>
      <use x="434.716797" xlink:href="#DejaVuSans-110"/>
      <use x="498.095703" xlink:href="#DejaVuSans-105"/>
      <use x="525.878906" xlink:href="#DejaVuSans-97"/>
      <use x="587.158203" xlink:href="#DejaVuSans-34"/>
     </g>
    </g>
   </g>
   <g id="text_30">
    <g clip-path="url(#pf27f0fae5f)">
     <!-- "Netherlands" -->
     <g transform="translate(114.611828 156.940657)scale(0.06 -0.06)">
      <use xlink:href="#DejaVuSans-34"/>
      <use x="45.996094" xlink:href="#DejaVuSans-78"/>
      <use x="120.800781" xlink:href="#DejaVuSans-101"/>
      <use x="182.324219" xlink:href="#DejaVuSans-116"/>
      <use x="221.533203" xlink:href="#DejaVuSans-104"/>
      <use x="284.912109" xlink:href="#DejaVuSans-101"/>
      <use x="346.435547" xlink:href="#DejaVuSans-114"/>
      <use x="387.548828" xlink:href="#DejaVuSans-108"/>
      <use x="415.332031" xlink:href="#DejaVuSans-97"/>
      <use x="476.611328" xlink:href="#DejaVuSans-110"/>
      <use x="539.990234" xlink:href="#DejaVuSans-100"/>
      <use x="603.466797" xlink:href="#DejaVuSans-115"/>
      <use x="655.566406" xlink:href="#DejaVuSans-34"/>
     </g>
    </g>
   </g>
   <g id="text_31">
    <g clip-path="url(#pf27f0fae5f)">
     <!-- "Serbia" -->
     <g transform="translate(426.932221 166.448605)scale(0.06 -0.06)">
      <use xlink:href="#DejaVuSans-34"/>
      <use x="45.996094" xlink:href="#DejaVuSans-83"/>
      <use x="109.472656" xlink:href="#DejaVuSans-101"/>
      <use x="170.996094" xlink:href="#DejaVuSans-114"/>
      <use x="212.109375" xlink:href="#DejaVuSans-98"/>
      <use x="275.585938" xlink:href="#DejaVuSans-105"/>
      <use x="303.369141" xlink:href="#DejaVuSans-97"/>
      <use x="364.648438" xlink:href="#DejaVuSans-34"/>
     </g>
    </g>
   </g>
   <g id="text_32">
    <g clip-path="url(#pf27f0fae5f)">
     <!-- "Portugal" -->
     <g transform="translate(107.56614 98.20559)scale(0.06 -0.06)">
      <use xlink:href="#DejaVuSans-34"/>
      <use x="45.996094" xlink:href="#DejaVuSans-80"/>
      <use x="106.251953" xlink:href="#DejaVuSans-111"/>
      <use x="167.433594" xlink:href="#DejaVuSans-114"/>
      <use x="208.546875" xlink:href="#DejaVuSans-116"/>
      <use x="247.755859" xlink:href="#DejaVuSans-117"/>
      <use x="311.134766" xlink:href="#DejaVuSans-103"/>
      <use x="374.611328" xlink:href="#DejaVuSans-97"/>
      <use x="435.890625" xlink:href="#DejaVuSans-108"/>
      <use x="463.673828" xlink:href="#DejaVuSans-34"/>
     </g>
    </g>
   </g>
   <g id="text_33">
    <g clip-path="url(#pf27f0fae5f)">
     <!-- "Hungary" -->
     <defs>
      <path d="M 9.8125 72.90625 
L 19.671875 72.90625 
L 19.671875 43.015625 
L 55.515625 43.015625 
L 55.515625 72.90625 
L 65.375 72.90625 
L 65.375 0 
L 55.515625 0 
L 55.515625 34.71875 
L 19.671875 34.71875 
L 19.671875 0 
L 9.8125 0 
z
" id="DejaVuSans-72"/>
     </defs>
     <g transform="translate(344.436308 165.689667)scale(0.06 -0.06)">
      <use xlink:href="#DejaVuSans-34"/>
      <use x="45.996094" xlink:href="#DejaVuSans-72"/>
      <use x="121.191406" xlink:href="#DejaVuSans-117"/>
      <use x="184.570312" xlink:href="#DejaVuSans-110"/>
      <use x="247.949219" xlink:href="#DejaVuSans-103"/>
      <use x="311.425781" xlink:href="#DejaVuSans-97"/>
      <use x="372.705078" xlink:href="#DejaVuSans-114"/>
      <use x="413.818359" xlink:href="#DejaVuSans-121"/>
      <use x="472.998047" xlink:href="#DejaVuSans-34"/>
     </g>
    </g>
   </g>
   <g id="text_34">
    <g clip-path="url(#pf27f0fae5f)">
     <!-- "Morocco" -->
     <g transform="translate(83.514646 22.279028)scale(0.06 -0.06)">
      <use xlink:href="#DejaVuSans-34"/>
      <use x="45.996094" xlink:href="#DejaVuSans-77"/>
      <use x="132.275391" xlink:href="#DejaVuSans-111"/>
      <use x="193.457031" xlink:href="#DejaVuSans-114"/>
      <use x="234.539062" xlink:href="#DejaVuSans-111"/>
      <use x="295.720703" xlink:href="#DejaVuSans-99"/>
      <use x="350.701172" xlink:href="#DejaVuSans-99"/>
      <use x="405.681641" xlink:href="#DejaVuSans-111"/>
      <use x="466.863281" xlink:href="#DejaVuSans-34"/>
     </g>
    </g>
   </g>
   <g id="text_35">
    <g clip-path="url(#pf27f0fae5f)">
     <!-- "Czech Republic" -->
     <g transform="translate(251.413564 133.429484)scale(0.06 -0.06)">
      <use xlink:href="#DejaVuSans-34"/>
      <use x="45.996094" xlink:href="#DejaVuSans-67"/>
      <use x="115.820312" xlink:href="#DejaVuSans-122"/>
      <use x="168.310547" xlink:href="#DejaVuSans-101"/>
      <use x="229.833984" xlink:href="#DejaVuSans-99"/>
      <use x="284.814453" xlink:href="#DejaVuSans-104"/>
      <use x="348.193359" xlink:href="#DejaVuSans-32"/>
      <use x="379.980469" xlink:href="#DejaVuSans-82"/>
      <use x="449.400391" xlink:href="#DejaVuSans-101"/>
      <use x="510.923828" xlink:href="#DejaVuSans-112"/>
      <use x="574.400391" xlink:href="#DejaVuSans-117"/>
      <use x="637.779297" xlink:href="#DejaVuSans-98"/>
      <use x="701.255859" xlink:href="#DejaVuSans-108"/>
      <use x="729.039062" xlink:href="#DejaVuSans-105"/>
      <use x="756.822266" xlink:href="#DejaVuSans-99"/>
      <use x="811.802734" xlink:href="#DejaVuSans-34"/>
     </g>
    </g>
   </g>
   <g id="text_36">
    <g clip-path="url(#pf27f0fae5f)">
     <!-- "Algeria" -->
     <defs>
      <path d="M 34.1875 63.1875 
L 20.796875 26.90625 
L 47.609375 26.90625 
z
M 28.609375 72.90625 
L 39.796875 72.90625 
L 67.578125 0 
L 57.328125 0 
L 50.6875 18.703125 
L 17.828125 18.703125 
L 11.1875 0 
L 0.78125 0 
z
" id="DejaVuSans-65"/>
     </defs>
     <g transform="translate(162.52536 17.971958)scale(0.06 -0.06)">
      <use xlink:href="#DejaVuSans-34"/>
      <use x="45.996094" xlink:href="#DejaVuSans-65"/>
      <use x="114.404297" xlink:href="#DejaVuSans-108"/>
      <use x="142.1875" xlink:href="#DejaVuSans-103"/>
      <use x="205.664062" xlink:href="#DejaVuSans-101"/>
      <use x="267.1875" xlink:href="#DejaVuSans-114"/>
      <use x="308.300781" xlink:href="#DejaVuSans-105"/>
      <use x="336.083984" xlink:href="#DejaVuSans-97"/>
      <use x="397.363281" xlink:href="#DejaVuSans-34"/>
     </g>
    </g>
   </g>
   <g id="text_37">
    <g clip-path="url(#pf27f0fae5f)">
     <!-- "Greece" -->
     <g transform="translate(167.56973 221.420519)scale(0.06 -0.06)">
      <use xlink:href="#DejaVuSans-34"/>
      <use x="45.996094" xlink:href="#DejaVuSans-71"/>
      <use x="123.486328" xlink:href="#DejaVuSans-114"/>
      <use x="164.568359" xlink:href="#DejaVuSans-101"/>
      <use x="226.091797" xlink:href="#DejaVuSans-101"/>
      <use x="287.615234" xlink:href="#DejaVuSans-99"/>
      <use x="342.595703" xlink:href="#DejaVuSans-101"/>
      <use x="404.119141" xlink:href="#DejaVuSans-34"/>
     </g>
    </g>
   </g>
   <g id="text_38">
    <g clip-path="url(#pf27f0fae5f)">
     <!-- "Luxembourg" -->
     <defs>
      <path d="M 54.890625 54.6875 
L 35.109375 28.078125 
L 55.90625 0 
L 45.3125 0 
L 29.390625 21.484375 
L 13.484375 0 
L 2.875 0 
L 24.125 28.609375 
L 4.6875 54.6875 
L 15.28125 54.6875 
L 29.78125 35.203125 
L 44.28125 54.6875 
z
" id="DejaVuSans-120"/>
     </defs>
     <g transform="translate(135.865294 107.802421)scale(0.06 -0.06)">
      <use xlink:href="#DejaVuSans-34"/>
      <use x="45.996094" xlink:href="#DejaVuSans-76"/>
      <use x="101.693359" xlink:href="#DejaVuSans-117"/>
      <use x="165.072266" xlink:href="#DejaVuSans-120"/>
      <use x="224.205078" xlink:href="#DejaVuSans-101"/>
      <use x="285.728516" xlink:href="#DejaVuSans-109"/>
      <use x="383.140625" xlink:href="#DejaVuSans-98"/>
      <use x="446.617188" xlink:href="#DejaVuSans-111"/>
      <use x="507.798828" xlink:href="#DejaVuSans-117"/>
      <use x="571.177734" xlink:href="#DejaVuSans-114"/>
      <use x="612.275391" xlink:href="#DejaVuSans-103"/>
      <use x="675.751953" xlink:href="#DejaVuSans-34"/>
     </g>
    </g>
   </g>
   <g id="text_39">
    <g clip-path="url(#pf27f0fae5f)">
     <!-- "Finland" -->
     <g transform="translate(263.974385 285.462008)scale(0.06 -0.06)">
      <use xlink:href="#DejaVuSans-34"/>
      <use x="45.996094" xlink:href="#DejaVuSans-70"/>
      <use x="103.40625" xlink:href="#DejaVuSans-105"/>
      <use x="131.189453" xlink:href="#DejaVuSans-110"/>
      <use x="194.568359" xlink:href="#DejaVuSans-108"/>
      <use x="222.351562" xlink:href="#DejaVuSans-97"/>
      <use x="283.630859" xlink:href="#DejaVuSans-110"/>
      <use x="347.009766" xlink:href="#DejaVuSans-100"/>
      <use x="410.486328" xlink:href="#DejaVuSans-34"/>
     </g>
    </g>
   </g>
   <g id="text_40">
    <g clip-path="url(#pf27f0fae5f)">
     <!-- "Austria" -->
     <g transform="translate(282.162427 120.873272)scale(0.06 -0.06)">
      <use xlink:href="#DejaVuSans-34"/>
      <use x="45.996094" xlink:href="#DejaVuSans-65"/>
      <use x="114.404297" xlink:href="#DejaVuSans-117"/>
      <use x="177.783203" xlink:href="#DejaVuSans-115"/>
      <use x="229.882812" xlink:href="#DejaVuSans-116"/>
      <use x="269.091797" xlink:href="#DejaVuSans-114"/>
      <use x="310.205078" xlink:href="#DejaVuSans-105"/>
      <use x="337.988281" xlink:href="#DejaVuSans-97"/>
      <use x="399.267578" xlink:href="#DejaVuSans-34"/>
     </g>
    </g>
   </g>
   <g id="text_41">
    <g clip-path="url(#pf27f0fae5f)">
     <!-- "Turkey" -->
     <g transform="translate(161.886297 242.365414)scale(0.06 -0.06)">
      <use xlink:href="#DejaVuSans-34"/>
      <use x="45.996094" xlink:href="#DejaVuSans-84"/>
      <use x="106.845703" xlink:href="#DejaVuSans-117"/>
      <use x="170.224609" xlink:href="#DejaVuSans-114"/>
      <use x="211.337891" xlink:href="#DejaVuSans-107"/>
      <use x="269.201172" xlink:href="#DejaVuSans-101"/>
      <use x="330.724609" xlink:href="#DejaVuSans-121"/>
      <use x="389.904297" xlink:href="#DejaVuSans-34"/>
     </g>
    </g>
   </g>
   <g id="text_42">
    <g clip-path="url(#pf27f0fae5f)">
     <!-- "United Kingdom" -->
     <defs>
      <path d="M 9.8125 72.90625 
L 19.671875 72.90625 
L 19.671875 42.09375 
L 52.390625 72.90625 
L 65.09375 72.90625 
L 28.90625 38.921875 
L 67.671875 0 
L 54.6875 0 
L 19.671875 35.109375 
L 19.671875 0 
L 9.8125 0 
z
" id="DejaVuSans-75"/>
     </defs>
     <g transform="translate(71.302078 160.31523)scale(0.06 -0.06)">
      <use xlink:href="#DejaVuSans-34"/>
      <use x="45.996094" xlink:href="#DejaVuSans-85"/>
      <use x="119.189453" xlink:href="#DejaVuSans-110"/>
      <use x="182.568359" xlink:href="#DejaVuSans-105"/>
      <use x="210.351562" xlink:href="#DejaVuSans-116"/>
      <use x="249.560547" xlink:href="#DejaVuSans-101"/>
      <use x="311.083984" xlink:href="#DejaVuSans-100"/>
      <use x="374.560547" xlink:href="#DejaVuSans-32"/>
      <use x="406.347656" xlink:href="#DejaVuSans-75"/>
      <use x="471.923828" xlink:href="#DejaVuSans-105"/>
      <use x="499.707031" xlink:href="#DejaVuSans-110"/>
      <use x="563.085938" xlink:href="#DejaVuSans-103"/>
      <use x="626.5625" xlink:href="#DejaVuSans-100"/>
      <use x="690.039062" xlink:href="#DejaVuSans-111"/>
      <use x="751.220703" xlink:href="#DejaVuSans-109"/>
      <use x="848.632812" xlink:href="#DejaVuSans-34"/>
     </g>
    </g>
   </g>
  </g>
 </g>
 <defs>
  <clipPath id="pf27f0fae5f">
   <rect height="345.6" width="460.8" x="0" y="0"/>
  </clipPath>
 </defs>
</svg>
