<?xml version="1.0" encoding="utf-8" standalone="no"?>
<!DOCTYPE svg PUBLIC "-//W3C//DTD SVG 1.1//EN"
  "http://www.w3.org/Graphics/SVG/1.1/DTD/svg11.dtd">
<!-- Created with matplotlib (https://matplotlib.org/) -->
<svg height="345.6pt" version="1.1" viewBox="0 0 460.8 345.6" width="460.8pt" xmlns="http://www.w3.org/2000/svg" xmlns:xlink="http://www.w3.org/1999/xlink">
 <defs>
  <style type="text/css">
*{stroke-linecap:butt;stroke-linejoin:round;}
  </style>
 </defs>
 <g id="figure_1">
  <g id="patch_1">
   <path d="M 0 345.6 
L 460.8 345.6 
L 460.8 0 
L 0 0 
z
" style="fill:#ffffff;"/>
  </g>
  <g id="axes_1">
   <g id="LineCollection_1">
    <path clip-path="url(#ped1128516e)" d="M 153.87962 199.14094 
L 167.284443 182.8632 
" style="fill:none;stroke:#000000;"/>
    <path clip-path="url(#ped1128516e)" d="M 153.87962 199.14094 
L 92.684423 195.166449 
" style="fill:none;stroke:#000000;"/>
    <path clip-path="url(#ped1128516e)" d="M 153.87962 199.14094 
L 177.319702 201.639291 
" style="fill:none;stroke:#000000;"/>
    <path clip-path="url(#ped1128516e)" d="M 153.87962 199.14094 
L 178.427996 161.920989 
" style="fill:none;stroke:#000000;"/>
    <path clip-path="url(#ped1128516e)" d="M 153.87962 199.14094 
L 206.390925 233.269463 
" style="fill:none;stroke:#000000;"/>
    <path clip-path="url(#ped1128516e)" d="M 153.87962 199.14094 
L 208.033648 191.749954 
" style="fill:none;stroke:#000000;"/>
    <path clip-path="url(#ped1128516e)" d="M 192.131015 202.28832 
L 208.257077 166.975314 
" style="fill:none;stroke:#000000;"/>
    <path clip-path="url(#ped1128516e)" d="M 192.131015 202.28832 
L 208.033648 191.749954 
" style="fill:none;stroke:#000000;"/>
    <path clip-path="url(#ped1128516e)" d="M 192.131015 202.28832 
L 177.319702 201.639291 
" style="fill:none;stroke:#000000;"/>
    <path clip-path="url(#ped1128516e)" d="M 192.131015 202.28832 
L 178.427996 161.920989 
" style="fill:none;stroke:#000000;"/>
    <path clip-path="url(#ped1128516e)" d="M 192.131015 202.28832 
L 167.284443 182.8632 
" style="fill:none;stroke:#000000;"/>
    <path clip-path="url(#ped1128516e)" d="M 192.131015 202.28832 
L 190.549864 248.352978 
" style="fill:none;stroke:#000000;"/>
    <path clip-path="url(#ped1128516e)" d="M 177.319702 201.639291 
L 208.033648 191.749954 
" style="fill:none;stroke:#000000;"/>
    <path clip-path="url(#ped1128516e)" d="M 177.319702 201.639291 
L 208.257077 166.975314 
" style="fill:none;stroke:#000000;"/>
    <path clip-path="url(#ped1128516e)" d="M 177.319702 201.639291 
L 190.549864 248.352978 
" style="fill:none;stroke:#000000;"/>
    <path clip-path="url(#ped1128516e)" d="M 177.319702 201.639291 
L 178.427996 161.920989 
" style="fill:none;stroke:#000000;"/>
    <path clip-path="url(#ped1128516e)" d="M 177.319702 201.639291 
L 167.284443 182.8632 
" style="fill:none;stroke:#000000;"/>
    <path clip-path="url(#ped1128516e)" d="M 173.152162 106.456955 
L 148.147324 60.482003 
" style="fill:none;stroke:#000000;"/>
    <path clip-path="url(#ped1128516e)" d="M 173.152162 106.456955 
L 178.427996 161.920989 
" style="fill:none;stroke:#000000;"/>
    <path clip-path="url(#ped1128516e)" d="M 173.152162 106.456955 
L 230.156338 128.777941 
" style="fill:none;stroke:#000000;"/>
    <path clip-path="url(#ped1128516e)" d="M 173.152162 106.456955 
L 175.324042 87.888434 
" style="fill:none;stroke:#000000;"/>
    <path clip-path="url(#ped1128516e)" d="M 239.457997 79.411985 
L 272.666373 23.487363 
" style="fill:none;stroke:#000000;"/>
    <path clip-path="url(#ped1128516e)" d="M 239.457997 79.411985 
L 178.427996 161.920989 
" style="fill:none;stroke:#000000;"/>
    <path clip-path="url(#ped1128516e)" d="M 239.457997 79.411985 
L 251.00728 109.55558 
" style="fill:none;stroke:#000000;"/>
    <path clip-path="url(#ped1128516e)" d="M 239.457997 79.411985 
L 320.857187 101.57868 
" style="fill:none;stroke:#000000;"/>
    <path clip-path="url(#ped1128516e)" d="M 239.457997 79.411985 
L 175.324042 87.888434 
" style="fill:none;stroke:#000000;"/>
    <path clip-path="url(#ped1128516e)" d="M 239.457997 79.411985 
L 241.508374 16.052979 
" style="fill:none;stroke:#000000;"/>
    <path clip-path="url(#ped1128516e)" d="M 142.192908 212.064171 
L 167.284443 182.8632 
" style="fill:none;stroke:#000000;"/>
    <path clip-path="url(#ped1128516e)" d="M 142.192908 212.064171 
L 208.033648 191.749954 
" style="fill:none;stroke:#000000;"/>
    <path clip-path="url(#ped1128516e)" d="M 117.709898 284.201004 
L 67.404697 252.961459 
" style="fill:none;stroke:#000000;"/>
    <path clip-path="url(#ped1128516e)" d="M 117.709898 284.201004 
L 201.343664 265.533638 
" style="fill:none;stroke:#000000;"/>
    <path clip-path="url(#ped1128516e)" d="M 260.689851 245.658266 
L 314.596723 237.740911 
" style="fill:none;stroke:#000000;"/>
    <path clip-path="url(#ped1128516e)" d="M 260.689851 245.658266 
L 208.033648 191.749954 
" style="fill:none;stroke:#000000;"/>
    <path clip-path="url(#ped1128516e)" d="M 260.689851 245.658266 
L 273.081281 215.590933 
" style="fill:none;stroke:#000000;"/>
    <path clip-path="url(#ped1128516e)" d="M 260.689851 245.658266 
L 340.87633 240.381186 
" style="fill:none;stroke:#000000;"/>
    <path clip-path="url(#ped1128516e)" d="M 260.689851 245.658266 
L 249.003147 294.512333 
" style="fill:none;stroke:#000000;"/>
    <path clip-path="url(#ped1128516e)" d="M 260.689851 245.658266 
L 206.390925 233.269463 
" style="fill:none;stroke:#000000;"/>
    <path clip-path="url(#ped1128516e)" d="M 260.689851 245.658266 
L 201.343664 265.533638 
" style="fill:none;stroke:#000000;"/>
    <path clip-path="url(#ped1128516e)" d="M 104.41495 158.486577 
L 92.684423 195.166449 
" style="fill:none;stroke:#000000;"/>
    <path clip-path="url(#ped1128516e)" d="M 104.41495 158.486577 
L 178.427996 161.920989 
" style="fill:none;stroke:#000000;"/>
    <path clip-path="url(#ped1128516e)" d="M 206.390925 233.269463 
L 201.343664 265.533638 
" style="fill:none;stroke:#000000;"/>
    <path clip-path="url(#ped1128516e)" d="M 206.390925 233.269463 
L 208.033648 191.749954 
" style="fill:none;stroke:#000000;"/>
    <path clip-path="url(#ped1128516e)" d="M 191.779963 313.240905 
L 190.549864 248.352978 
" style="fill:none;stroke:#000000;"/>
    <path clip-path="url(#ped1128516e)" d="M 208.033648 191.749954 
L 273.081281 215.590933 
" style="fill:none;stroke:#000000;"/>
    <path clip-path="url(#ped1128516e)" d="M 208.033648 191.749954 
L 190.549864 248.352978 
" style="fill:none;stroke:#000000;"/>
    <path clip-path="url(#ped1128516e)" d="M 208.033648 191.749954 
L 167.284443 182.8632 
" style="fill:none;stroke:#000000;"/>
    <path clip-path="url(#ped1128516e)" d="M 208.033648 191.749954 
L 274.992217 178.464696 
" style="fill:none;stroke:#000000;"/>
    <path clip-path="url(#ped1128516e)" d="M 208.033648 191.749954 
L 175.324042 87.888434 
" style="fill:none;stroke:#000000;"/>
    <path clip-path="url(#ped1128516e)" d="M 148.147324 60.482003 
L 153.610099 32.136708 
" style="fill:none;stroke:#000000;"/>
    <path clip-path="url(#ped1128516e)" d="M 148.147324 60.482003 
L 175.324042 87.888434 
" style="fill:none;stroke:#000000;"/>
    <path clip-path="url(#ped1128516e)" d="M 21.240385 195.936637 
L 92.684423 195.166449 
" style="fill:none;stroke:#000000;"/>
    <path clip-path="url(#ped1128516e)" d="M 67.404697 252.961459 
L 92.684423 195.166449 
" style="fill:none;stroke:#000000;"/>
    <path clip-path="url(#ped1128516e)" d="M 201.343664 265.533638 
L 178.427996 161.920989 
" style="fill:none;stroke:#000000;"/>
    <path clip-path="url(#ped1128516e)" d="M 201.343664 265.533638 
L 170.830014 329.547021 
" style="fill:none;stroke:#000000;"/>
    <path clip-path="url(#ped1128516e)" d="M 201.343664 265.533638 
L 249.003147 294.512333 
" style="fill:none;stroke:#000000;"/>
    <path clip-path="url(#ped1128516e)" d="M 201.343664 265.533638 
L 280.860377 282.514472 
" style="fill:none;stroke:#000000;"/>
    <path clip-path="url(#ped1128516e)" d="M 264.508979 140.559102 
L 208.257077 166.975314 
" style="fill:none;stroke:#000000;"/>
    <path clip-path="url(#ped1128516e)" d="M 230.156338 128.777941 
L 274.992217 178.464696 
" style="fill:none;stroke:#000000;"/>
    <path clip-path="url(#ped1128516e)" d="M 340.450808 203.134711 
L 340.87633 240.381186 
" style="fill:none;stroke:#000000;"/>
    <path clip-path="url(#ped1128516e)" d="M 340.450808 203.134711 
L 314.596723 237.740911 
" style="fill:none;stroke:#000000;"/>
    <path clip-path="url(#ped1128516e)" d="M 340.450808 203.134711 
L 274.992217 178.464696 
" style="fill:none;stroke:#000000;"/>
    <path clip-path="url(#ped1128516e)" d="M 340.450808 203.134711 
L 371.893662 170.311504 
" style="fill:none;stroke:#000000;"/>
    <path clip-path="url(#ped1128516e)" d="M 373.397164 62.964174 
L 320.857187 101.57868 
" style="fill:none;stroke:#000000;"/>
    <path clip-path="url(#ped1128516e)" d="M 280.860377 282.514472 
L 340.87633 240.381186 
" style="fill:none;stroke:#000000;"/>
    <path clip-path="url(#ped1128516e)" d="M 280.860377 282.514472 
L 249.003147 294.512333 
" style="fill:none;stroke:#000000;"/>
    <path clip-path="url(#ped1128516e)" d="M 178.427996 161.920989 
L 92.684423 195.166449 
" style="fill:none;stroke:#000000;"/>
    <path clip-path="url(#ped1128516e)" d="M 178.427996 161.920989 
L 208.257077 166.975314 
" style="fill:none;stroke:#000000;"/>
    <path clip-path="url(#ped1128516e)" d="M 178.427996 161.920989 
L 251.00728 109.55558 
" style="fill:none;stroke:#000000;"/>
    <path clip-path="url(#ped1128516e)" d="M 178.427996 161.920989 
L 167.284443 182.8632 
" style="fill:none;stroke:#000000;"/>
    <path clip-path="url(#ped1128516e)" d="M 251.00728 109.55558 
L 320.857187 101.57868 
" style="fill:none;stroke:#000000;"/>
    <path clip-path="url(#ped1128516e)" d="M 273.081281 215.590933 
L 274.992217 178.464696 
" style="fill:none;stroke:#000000;"/>
    <path clip-path="url(#ped1128516e)" d="M 273.081281 215.590933 
L 314.596723 237.740911 
" style="fill:none;stroke:#000000;"/>
    <path clip-path="url(#ped1128516e)" d="M 122.291097 39.518162 
L 175.324042 87.888434 
" style="fill:none;stroke:#000000;"/>
    <path clip-path="url(#ped1128516e)" d="M 314.596723 237.740911 
L 340.87633 240.381186 
" style="fill:none;stroke:#000000;"/>
    <path clip-path="url(#ped1128516e)" d="M 320.857187 101.57868 
L 371.893662 170.311504 
" style="fill:none;stroke:#000000;"/>
    <path clip-path="url(#ped1128516e)" d="M 340.87633 240.381186 
L 371.893662 170.311504 
" style="fill:none;stroke:#000000;"/>
    <path clip-path="url(#ped1128516e)" d="M 340.87633 240.381186 
L 403.386366 264.850444 
" style="fill:none;stroke:#000000;"/>
    <path clip-path="url(#ped1128516e)" d="M 167.284443 182.8632 
L 208.257077 166.975314 
" style="fill:none;stroke:#000000;"/>
    <path clip-path="url(#ped1128516e)" d="M 153.610099 32.136708 
L 175.324042 87.888434 
" style="fill:none;stroke:#000000;"/>
    <path clip-path="url(#ped1128516e)" d="M 371.893662 170.311504 
L 439.559615 163.082391 
" style="fill:none;stroke:#000000;"/>
   </g>
   <g id="PathCollection_1">
    <defs>
     <path d="M 0 8.660254 
C 2.296726 8.660254 4.499694 7.747755 6.123724 6.123724 
C 7.747755 4.499694 8.660254 2.296726 8.660254 0 
C 8.660254 -2.296726 7.747755 -4.499694 6.123724 -6.123724 
C 4.499694 -7.747755 2.296726 -8.660254 0 -8.660254 
C -2.296726 -8.660254 -4.499694 -7.747755 -6.123724 -6.123724 
C -7.747755 -4.499694 -8.660254 -2.296726 -8.660254 0 
C -8.660254 2.296726 -7.747755 4.499694 -6.123724 6.123724 
C -4.499694 7.747755 -2.296726 8.660254 0 8.660254 
z
" id="mc8a2c901ba" style="stroke:#ff0000;"/>
    </defs>
    <g clip-path="url(#ped1128516e)">
     <use style="fill:#ff0000;stroke:#ff0000;" x="153.87962" xlink:href="#mc8a2c901ba" y="199.14094"/>
     <use style="fill:#ff0000;stroke:#ff0000;" x="192.131015" xlink:href="#mc8a2c901ba" y="202.28832"/>
     <use style="fill:#ff0000;stroke:#ff0000;" x="177.319702" xlink:href="#mc8a2c901ba" y="201.639291"/>
     <use style="fill:#ff0000;stroke:#ff0000;" x="173.152162" xlink:href="#mc8a2c901ba" y="106.456955"/>
     <use style="fill:#ff0000;stroke:#ff0000;" x="239.457997" xlink:href="#mc8a2c901ba" y="79.411985"/>
     <use style="fill:#ff0000;stroke:#ff0000;" x="142.192908" xlink:href="#mc8a2c901ba" y="212.064171"/>
     <use style="fill:#ff0000;stroke:#ff0000;" x="117.709898" xlink:href="#mc8a2c901ba" y="284.201004"/>
     <use style="fill:#ff0000;stroke:#ff0000;" x="260.689851" xlink:href="#mc8a2c901ba" y="245.658266"/>
     <use style="fill:#ff0000;stroke:#ff0000;" x="104.41495" xlink:href="#mc8a2c901ba" y="158.486577"/>
     <use style="fill:#ff0000;stroke:#ff0000;" x="206.390925" xlink:href="#mc8a2c901ba" y="233.269463"/>
     <use style="fill:#ff0000;stroke:#ff0000;" x="241.508374" xlink:href="#mc8a2c901ba" y="16.052979"/>
     <use style="fill:#ff0000;stroke:#ff0000;" x="191.779963" xlink:href="#mc8a2c901ba" y="313.240905"/>
     <use style="fill:#ff0000;stroke:#ff0000;" x="208.033648" xlink:href="#mc8a2c901ba" y="191.749954"/>
     <use style="fill:#ff0000;stroke:#ff0000;" x="148.147324" xlink:href="#mc8a2c901ba" y="60.482003"/>
     <use style="fill:#ff0000;stroke:#ff0000;" x="21.240385" xlink:href="#mc8a2c901ba" y="195.936637"/>
     <use style="fill:#ff0000;stroke:#ff0000;" x="67.404697" xlink:href="#mc8a2c901ba" y="252.961459"/>
     <use style="fill:#ff0000;stroke:#ff0000;" x="201.343664" xlink:href="#mc8a2c901ba" y="265.533638"/>
     <use style="fill:#ff0000;stroke:#ff0000;" x="264.508979" xlink:href="#mc8a2c901ba" y="140.559102"/>
     <use style="fill:#ff0000;stroke:#ff0000;" x="230.156338" xlink:href="#mc8a2c901ba" y="128.777941"/>
     <use style="fill:#ff0000;stroke:#ff0000;" x="340.450808" xlink:href="#mc8a2c901ba" y="203.134711"/>
     <use style="fill:#ff0000;stroke:#ff0000;" x="373.397164" xlink:href="#mc8a2c901ba" y="62.964174"/>
     <use style="fill:#ff0000;stroke:#ff0000;" x="280.860377" xlink:href="#mc8a2c901ba" y="282.514472"/>
     <use style="fill:#ff0000;stroke:#ff0000;" x="178.427996" xlink:href="#mc8a2c901ba" y="161.920989"/>
     <use style="fill:#ff0000;stroke:#ff0000;" x="251.00728" xlink:href="#mc8a2c901ba" y="109.55558"/>
     <use style="fill:#ff0000;stroke:#ff0000;" x="273.081281" xlink:href="#mc8a2c901ba" y="215.590933"/>
     <use style="fill:#ff0000;stroke:#ff0000;" x="170.830014" xlink:href="#mc8a2c901ba" y="329.547021"/>
     <use style="fill:#ff0000;stroke:#ff0000;" x="122.291097" xlink:href="#mc8a2c901ba" y="39.518162"/>
     <use style="fill:#ff0000;stroke:#ff0000;" x="314.596723" xlink:href="#mc8a2c901ba" y="237.740911"/>
     <use style="fill:#ff0000;stroke:#ff0000;" x="320.857187" xlink:href="#mc8a2c901ba" y="101.57868"/>
     <use style="fill:#ff0000;stroke:#ff0000;" x="340.87633" xlink:href="#mc8a2c901ba" y="240.381186"/>
     <use style="fill:#ff0000;stroke:#ff0000;" x="167.284443" xlink:href="#mc8a2c901ba" y="182.8632"/>
     <use style="fill:#ff0000;stroke:#ff0000;" x="274.992217" xlink:href="#mc8a2c901ba" y="178.464696"/>
     <use style="fill:#ff0000;stroke:#ff0000;" x="190.549864" xlink:href="#mc8a2c901ba" y="248.352978"/>
     <use style="fill:#ff0000;stroke:#ff0000;" x="153.610099" xlink:href="#mc8a2c901ba" y="32.136708"/>
     <use style="fill:#ff0000;stroke:#ff0000;" x="403.386366" xlink:href="#mc8a2c901ba" y="264.850444"/>
     <use style="fill:#ff0000;stroke:#ff0000;" x="175.324042" xlink:href="#mc8a2c901ba" y="87.888434"/>
     <use style="fill:#ff0000;stroke:#ff0000;" x="371.893662" xlink:href="#mc8a2c901ba" y="170.311504"/>
     <use style="fill:#ff0000;stroke:#ff0000;" x="92.684423" xlink:href="#mc8a2c901ba" y="195.166449"/>
     <use style="fill:#ff0000;stroke:#ff0000;" x="272.666373" xlink:href="#mc8a2c901ba" y="23.487363"/>
     <use style="fill:#ff0000;stroke:#ff0000;" x="249.003147" xlink:href="#mc8a2c901ba" y="294.512333"/>
     <use style="fill:#ff0000;stroke:#ff0000;" x="208.257077" xlink:href="#mc8a2c901ba" y="166.975314"/>
     <use style="fill:#ff0000;stroke:#ff0000;" x="439.559615" xlink:href="#mc8a2c901ba" y="163.082391"/>
    </g>
   </g>
   <g id="text_1">
    <g clip-path="url(#ped1128516e)">
     <!-- "France" -->
     <defs>
      <path d="M 17.921875 72.90625 
L 17.921875 45.796875 
L 9.625 45.796875 
L 9.625 72.90625 
z
M 36.375 72.90625 
L 36.375 45.796875 
L 28.078125 45.796875 
L 28.078125 72.90625 
z
" id="DejaVuSans-34"/>
      <path d="M 9.8125 72.90625 
L 51.703125 72.90625 
L 51.703125 64.59375 
L 19.671875 64.59375 
L 19.671875 43.109375 
L 48.578125 43.109375 
L 48.578125 34.8125 
L 19.671875 34.8125 
L 19.671875 0 
L 9.8125 0 
z
" id="DejaVuSans-70"/>
      <path d="M 41.109375 46.296875 
Q 39.59375 47.171875 37.8125 47.578125 
Q 36.03125 48 33.890625 48 
Q 26.265625 48 22.1875 43.046875 
Q 18.109375 38.09375 18.109375 28.8125 
L 18.109375 0 
L 9.078125 0 
L 9.078125 54.6875 
L 18.109375 54.6875 
L 18.109375 46.1875 
Q 20.953125 51.171875 25.484375 53.578125 
Q 30.03125 56 36.53125 56 
Q 37.453125 56 38.578125 55.875 
Q 39.703125 55.765625 41.0625 55.515625 
z
" id="DejaVuSans-114"/>
      <path d="M 34.28125 27.484375 
Q 23.390625 27.484375 19.1875 25 
Q 14.984375 22.515625 14.984375 16.5 
Q 14.984375 11.71875 18.140625 8.90625 
Q 21.296875 6.109375 26.703125 6.109375 
Q 34.1875 6.109375 38.703125 11.40625 
Q 43.21875 16.703125 43.21875 25.484375 
L 43.21875 27.484375 
z
M 52.203125 31.203125 
L 52.203125 0 
L 43.21875 0 
L 43.21875 8.296875 
Q 40.140625 3.328125 35.546875 0.953125 
Q 30.953125 -1.421875 24.3125 -1.421875 
Q 15.921875 -1.421875 10.953125 3.296875 
Q 6 8.015625 6 15.921875 
Q 6 25.140625 12.171875 29.828125 
Q 18.359375 34.515625 30.609375 34.515625 
L 43.21875 34.515625 
L 43.21875 35.40625 
Q 43.21875 41.609375 39.140625 45 
Q 35.0625 48.390625 27.6875 48.390625 
Q 23 48.390625 18.546875 47.265625 
Q 14.109375 46.140625 10.015625 43.890625 
L 10.015625 52.203125 
Q 14.9375 54.109375 19.578125 55.046875 
Q 24.21875 56 28.609375 56 
Q 40.484375 56 46.34375 49.84375 
Q 52.203125 43.703125 52.203125 31.203125 
z
" id="DejaVuSans-97"/>
      <path d="M 54.890625 33.015625 
L 54.890625 0 
L 45.90625 0 
L 45.90625 32.71875 
Q 45.90625 40.484375 42.875 44.328125 
Q 39.84375 48.1875 33.796875 48.1875 
Q 26.515625 48.1875 22.3125 43.546875 
Q 18.109375 38.921875 18.109375 30.90625 
L 18.109375 0 
L 9.078125 0 
L 9.078125 54.6875 
L 18.109375 54.6875 
L 18.109375 46.1875 
Q 21.34375 51.125 25.703125 53.5625 
Q 30.078125 56 35.796875 56 
Q 45.21875 56 50.046875 50.171875 
Q 54.890625 44.34375 54.890625 33.015625 
z
" id="DejaVuSans-110"/>
      <path d="M 48.78125 52.59375 
L 48.78125 44.1875 
Q 44.96875 46.296875 41.140625 47.34375 
Q 37.3125 48.390625 33.40625 48.390625 
Q 24.65625 48.390625 19.8125 42.84375 
Q 14.984375 37.3125 14.984375 27.296875 
Q 14.984375 17.28125 19.8125 11.734375 
Q 24.65625 6.203125 33.40625 6.203125 
Q 37.3125 6.203125 41.140625 7.25 
Q 44.96875 8.296875 48.78125 10.40625 
L 48.78125 2.09375 
Q 45.015625 0.34375 40.984375 -0.53125 
Q 36.96875 -1.421875 32.421875 -1.421875 
Q 20.0625 -1.421875 12.78125 6.34375 
Q 5.515625 14.109375 5.515625 27.296875 
Q 5.515625 40.671875 12.859375 48.328125 
Q 20.21875 56 33.015625 56 
Q 37.15625 56 41.109375 55.140625 
Q 45.0625 54.296875 48.78125 52.59375 
z
" id="DejaVuSans-99"/>
      <path d="M 56.203125 29.59375 
L 56.203125 25.203125 
L 14.890625 25.203125 
Q 15.484375 15.921875 20.484375 11.0625 
Q 25.484375 6.203125 34.421875 6.203125 
Q 39.59375 6.203125 44.453125 7.46875 
Q 49.3125 8.734375 54.109375 11.28125 
L 54.109375 2.78125 
Q 49.265625 0.734375 44.1875 -0.34375 
Q 39.109375 -1.421875 33.890625 -1.421875 
Q 20.796875 -1.421875 13.15625 6.1875 
Q 5.515625 13.8125 5.515625 26.8125 
Q 5.515625 40.234375 12.765625 48.109375 
Q 20.015625 56 32.328125 56 
Q 43.359375 56 49.78125 48.890625 
Q 56.203125 41.796875 56.203125 29.59375 
z
M 47.21875 32.234375 
Q 47.125 39.59375 43.09375 43.984375 
Q 39.0625 48.390625 32.421875 48.390625 
Q 24.90625 48.390625 20.390625 44.140625 
Q 15.875 39.890625 15.1875 32.171875 
z
" id="DejaVuSans-101"/>
     </defs>
     <g transform="translate(140.928995 200.796565)scale(0.06 -0.06)">
      <use xlink:href="#DejaVuSans-34"/>
      <use x="45.996094" xlink:href="#DejaVuSans-70"/>
      <use x="103.40625" xlink:href="#DejaVuSans-114"/>
      <use x="144.519531" xlink:href="#DejaVuSans-97"/>
      <use x="205.798828" xlink:href="#DejaVuSans-110"/>
      <use x="269.177734" xlink:href="#DejaVuSans-99"/>
      <use x="324.158203" xlink:href="#DejaVuSans-101"/>
      <use x="385.681641" xlink:href="#DejaVuSans-34"/>
     </g>
    </g>
   </g>
   <g id="text_2">
    <g clip-path="url(#ped1128516e)">
     <!-- "Netherlands" -->
     <defs>
      <path d="M 9.8125 72.90625 
L 23.09375 72.90625 
L 55.421875 11.921875 
L 55.421875 72.90625 
L 64.984375 72.90625 
L 64.984375 0 
L 51.703125 0 
L 19.390625 60.984375 
L 19.390625 0 
L 9.8125 0 
z
" id="DejaVuSans-78"/>
      <path d="M 18.3125 70.21875 
L 18.3125 54.6875 
L 36.8125 54.6875 
L 36.8125 47.703125 
L 18.3125 47.703125 
L 18.3125 18.015625 
Q 18.3125 11.328125 20.140625 9.421875 
Q 21.96875 7.515625 27.59375 7.515625 
L 36.8125 7.515625 
L 36.8125 0 
L 27.59375 0 
Q 17.1875 0 13.234375 3.875 
Q 9.28125 7.765625 9.28125 18.015625 
L 9.28125 47.703125 
L 2.6875 47.703125 
L 2.6875 54.6875 
L 9.28125 54.6875 
L 9.28125 70.21875 
z
" id="DejaVuSans-116"/>
      <path d="M 54.890625 33.015625 
L 54.890625 0 
L 45.90625 0 
L 45.90625 32.71875 
Q 45.90625 40.484375 42.875 44.328125 
Q 39.84375 48.1875 33.796875 48.1875 
Q 26.515625 48.1875 22.3125 43.546875 
Q 18.109375 38.921875 18.109375 30.90625 
L 18.109375 0 
L 9.078125 0 
L 9.078125 75.984375 
L 18.109375 75.984375 
L 18.109375 46.1875 
Q 21.34375 51.125 25.703125 53.5625 
Q 30.078125 56 35.796875 56 
Q 45.21875 56 50.046875 50.171875 
Q 54.890625 44.34375 54.890625 33.015625 
z
" id="DejaVuSans-104"/>
      <path d="M 9.421875 75.984375 
L 18.40625 75.984375 
L 18.40625 0 
L 9.421875 0 
z
" id="DejaVuSans-108"/>
      <path d="M 45.40625 46.390625 
L 45.40625 75.984375 
L 54.390625 75.984375 
L 54.390625 0 
L 45.40625 0 
L 45.40625 8.203125 
Q 42.578125 3.328125 38.25 0.953125 
Q 33.9375 -1.421875 27.875 -1.421875 
Q 17.96875 -1.421875 11.734375 6.484375 
Q 5.515625 14.40625 5.515625 27.296875 
Q 5.515625 40.1875 11.734375 48.09375 
Q 17.96875 56 27.875 56 
Q 33.9375 56 38.25 53.625 
Q 42.578125 51.265625 45.40625 46.390625 
z
M 14.796875 27.296875 
Q 14.796875 17.390625 18.875 11.75 
Q 22.953125 6.109375 30.078125 6.109375 
Q 37.203125 6.109375 41.296875 11.75 
Q 45.40625 17.390625 45.40625 27.296875 
Q 45.40625 37.203125 41.296875 42.84375 
Q 37.203125 48.484375 30.078125 48.484375 
Q 22.953125 48.484375 18.875 42.84375 
Q 14.796875 37.203125 14.796875 27.296875 
z
" id="DejaVuSans-100"/>
      <path d="M 44.28125 53.078125 
L 44.28125 44.578125 
Q 40.484375 46.53125 36.375 47.5 
Q 32.28125 48.484375 27.875 48.484375 
Q 21.1875 48.484375 17.84375 46.4375 
Q 14.5 44.390625 14.5 40.28125 
Q 14.5 37.15625 16.890625 35.375 
Q 19.28125 33.59375 26.515625 31.984375 
L 29.59375 31.296875 
Q 39.15625 29.25 43.1875 25.515625 
Q 47.21875 21.78125 47.21875 15.09375 
Q 47.21875 7.46875 41.1875 3.015625 
Q 35.15625 -1.421875 24.609375 -1.421875 
Q 20.21875 -1.421875 15.453125 -0.5625 
Q 10.6875 0.296875 5.421875 2 
L 5.421875 11.28125 
Q 10.40625 8.6875 15.234375 7.390625 
Q 20.0625 6.109375 24.8125 6.109375 
Q 31.15625 6.109375 34.5625 8.28125 
Q 37.984375 10.453125 37.984375 14.40625 
Q 37.984375 18.0625 35.515625 20.015625 
Q 33.0625 21.96875 24.703125 23.78125 
L 21.578125 24.515625 
Q 13.234375 26.265625 9.515625 29.90625 
Q 5.8125 33.546875 5.8125 39.890625 
Q 5.8125 47.609375 11.28125 51.796875 
Q 16.75 56 26.8125 56 
Q 31.78125 56 36.171875 55.265625 
Q 40.578125 54.546875 44.28125 53.078125 
z
" id="DejaVuSans-115"/>
     </defs>
     <g transform="translate(171.083671 203.943945)scale(0.06 -0.06)">
      <use xlink:href="#DejaVuSans-34"/>
      <use x="45.996094" xlink:href="#DejaVuSans-78"/>
      <use x="120.800781" xlink:href="#DejaVuSans-101"/>
      <use x="182.324219" xlink:href="#DejaVuSans-116"/>
      <use x="221.533203" xlink:href="#DejaVuSans-104"/>
      <use x="284.912109" xlink:href="#DejaVuSans-101"/>
      <use x="346.435547" xlink:href="#DejaVuSans-114"/>
      <use x="387.548828" xlink:href="#DejaVuSans-108"/>
      <use x="415.332031" xlink:href="#DejaVuSans-97"/>
      <use x="476.611328" xlink:href="#DejaVuSans-110"/>
      <use x="539.990234" xlink:href="#DejaVuSans-100"/>
      <use x="603.466797" xlink:href="#DejaVuSans-115"/>
      <use x="655.566406" xlink:href="#DejaVuSans-34"/>
     </g>
    </g>
   </g>
   <g id="text_3">
    <g clip-path="url(#ped1128516e)">
     <!-- "Norway" -->
     <defs>
      <path d="M 30.609375 48.390625 
Q 23.390625 48.390625 19.1875 42.75 
Q 14.984375 37.109375 14.984375 27.296875 
Q 14.984375 17.484375 19.15625 11.84375 
Q 23.34375 6.203125 30.609375 6.203125 
Q 37.796875 6.203125 41.984375 11.859375 
Q 46.1875 17.53125 46.1875 27.296875 
Q 46.1875 37.015625 41.984375 42.703125 
Q 37.796875 48.390625 30.609375 48.390625 
z
M 30.609375 56 
Q 42.328125 56 49.015625 48.375 
Q 55.71875 40.765625 55.71875 27.296875 
Q 55.71875 13.875 49.015625 6.21875 
Q 42.328125 -1.421875 30.609375 -1.421875 
Q 18.84375 -1.421875 12.171875 6.21875 
Q 5.515625 13.875 5.515625 27.296875 
Q 5.515625 40.765625 12.171875 48.375 
Q 18.84375 56 30.609375 56 
z
" id="DejaVuSans-111"/>
      <path d="M 4.203125 54.6875 
L 13.1875 54.6875 
L 24.421875 12.015625 
L 35.59375 54.6875 
L 46.1875 54.6875 
L 57.421875 12.015625 
L 68.609375 54.6875 
L 77.59375 54.6875 
L 63.28125 0 
L 52.6875 0 
L 40.921875 44.828125 
L 29.109375 0 
L 18.5 0 
z
" id="DejaVuSans-119"/>
      <path d="M 32.171875 -5.078125 
Q 28.375 -14.84375 24.75 -17.8125 
Q 21.140625 -20.796875 15.09375 -20.796875 
L 7.90625 -20.796875 
L 7.90625 -13.28125 
L 13.1875 -13.28125 
Q 16.890625 -13.28125 18.9375 -11.515625 
Q 21 -9.765625 23.484375 -3.21875 
L 25.09375 0.875 
L 2.984375 54.6875 
L 12.5 54.6875 
L 29.59375 11.921875 
L 46.6875 54.6875 
L 56.203125 54.6875 
z
" id="DejaVuSans-121"/>
     </defs>
     <g transform="translate(163.178921 203.294916)scale(0.06 -0.06)">
      <use xlink:href="#DejaVuSans-34"/>
      <use x="45.996094" xlink:href="#DejaVuSans-78"/>
      <use x="120.800781" xlink:href="#DejaVuSans-111"/>
      <use x="181.982422" xlink:href="#DejaVuSans-114"/>
      <use x="223.095703" xlink:href="#DejaVuSans-119"/>
      <use x="304.882812" xlink:href="#DejaVuSans-97"/>
      <use x="366.162109" xlink:href="#DejaVuSans-121"/>
      <use x="425.341797" xlink:href="#DejaVuSans-34"/>
     </g>
    </g>
   </g>
   <g id="text_4">
    <g clip-path="url(#ped1128516e)">
     <!-- "Lithuania" -->
     <defs>
      <path d="M 9.8125 72.90625 
L 19.671875 72.90625 
L 19.671875 8.296875 
L 55.171875 8.296875 
L 55.171875 0 
L 9.8125 0 
z
" id="DejaVuSans-76"/>
      <path d="M 9.421875 54.6875 
L 18.40625 54.6875 
L 18.40625 0 
L 9.421875 0 
z
M 9.421875 75.984375 
L 18.40625 75.984375 
L 18.40625 64.59375 
L 9.421875 64.59375 
z
" id="DejaVuSans-105"/>
      <path d="M 8.5 21.578125 
L 8.5 54.6875 
L 17.484375 54.6875 
L 17.484375 21.921875 
Q 17.484375 14.15625 20.5 10.265625 
Q 23.53125 6.390625 29.59375 6.390625 
Q 36.859375 6.390625 41.078125 11.03125 
Q 45.3125 15.671875 45.3125 23.6875 
L 45.3125 54.6875 
L 54.296875 54.6875 
L 54.296875 0 
L 45.3125 0 
L 45.3125 8.40625 
Q 42.046875 3.421875 37.71875 1 
Q 33.40625 -1.421875 27.6875 -1.421875 
Q 18.265625 -1.421875 13.375 4.4375 
Q 8.5 10.296875 8.5 21.578125 
z
M 31.109375 56 
z
" id="DejaVuSans-117"/>
     </defs>
     <g transform="translate(156.497006 108.11258)scale(0.06 -0.06)">
      <use xlink:href="#DejaVuSans-34"/>
      <use x="45.996094" xlink:href="#DejaVuSans-76"/>
      <use x="101.708984" xlink:href="#DejaVuSans-105"/>
      <use x="129.492188" xlink:href="#DejaVuSans-116"/>
      <use x="168.701172" xlink:href="#DejaVuSans-104"/>
      <use x="232.080078" xlink:href="#DejaVuSans-117"/>
      <use x="295.458984" xlink:href="#DejaVuSans-97"/>
      <use x="356.738281" xlink:href="#DejaVuSans-110"/>
      <use x="420.117188" xlink:href="#DejaVuSans-105"/>
      <use x="447.900391" xlink:href="#DejaVuSans-97"/>
      <use x="509.179688" xlink:href="#DejaVuSans-34"/>
     </g>
    </g>
   </g>
   <g id="text_5">
    <g clip-path="url(#ped1128516e)">
     <!-- "Turkey" -->
     <defs>
      <path d="M -0.296875 72.90625 
L 61.375 72.90625 
L 61.375 64.59375 
L 35.5 64.59375 
L 35.5 0 
L 25.59375 0 
L 25.59375 64.59375 
L -0.296875 64.59375 
z
" id="DejaVuSans-84"/>
      <path d="M 9.078125 75.984375 
L 18.109375 75.984375 
L 18.109375 31.109375 
L 44.921875 54.6875 
L 56.390625 54.6875 
L 27.390625 29.109375 
L 57.625 0 
L 45.90625 0 
L 18.109375 26.703125 
L 18.109375 0 
L 9.078125 0 
z
" id="DejaVuSans-107"/>
     </defs>
     <g transform="translate(226.38081 81.06761)scale(0.06 -0.06)">
      <use xlink:href="#DejaVuSans-34"/>
      <use x="45.996094" xlink:href="#DejaVuSans-84"/>
      <use x="106.845703" xlink:href="#DejaVuSans-117"/>
      <use x="170.224609" xlink:href="#DejaVuSans-114"/>
      <use x="211.337891" xlink:href="#DejaVuSans-107"/>
      <use x="269.201172" xlink:href="#DejaVuSans-101"/>
      <use x="330.724609" xlink:href="#DejaVuSans-121"/>
      <use x="389.904297" xlink:href="#DejaVuSans-34"/>
     </g>
    </g>
   </g>
   <g id="text_6">
    <g clip-path="url(#ped1128516e)">
     <!-- "Luxembourg" -->
     <defs>
      <path d="M 54.890625 54.6875 
L 35.109375 28.078125 
L 55.90625 0 
L 45.3125 0 
L 29.390625 21.484375 
L 13.484375 0 
L 2.875 0 
L 24.125 28.609375 
L 4.6875 54.6875 
L 15.28125 54.6875 
L 29.78125 35.203125 
L 44.28125 54.6875 
z
" id="DejaVuSans-120"/>
      <path d="M 52 44.1875 
Q 55.375 50.25 60.0625 53.125 
Q 64.75 56 71.09375 56 
Q 79.640625 56 84.28125 50.015625 
Q 88.921875 44.046875 88.921875 33.015625 
L 88.921875 0 
L 79.890625 0 
L 79.890625 32.71875 
Q 79.890625 40.578125 77.09375 44.375 
Q 74.3125 48.1875 68.609375 48.1875 
Q 61.625 48.1875 57.5625 43.546875 
Q 53.515625 38.921875 53.515625 30.90625 
L 53.515625 0 
L 44.484375 0 
L 44.484375 32.71875 
Q 44.484375 40.625 41.703125 44.40625 
Q 38.921875 48.1875 33.109375 48.1875 
Q 26.21875 48.1875 22.15625 43.53125 
Q 18.109375 38.875 18.109375 30.90625 
L 18.109375 0 
L 9.078125 0 
L 9.078125 54.6875 
L 18.109375 54.6875 
L 18.109375 46.1875 
Q 21.1875 51.21875 25.484375 53.609375 
Q 29.78125 56 35.6875 56 
Q 41.65625 56 45.828125 52.96875 
Q 50 49.953125 52 44.1875 
z
" id="DejaVuSans-109"/>
      <path d="M 48.6875 27.296875 
Q 48.6875 37.203125 44.609375 42.84375 
Q 40.53125 48.484375 33.40625 48.484375 
Q 26.265625 48.484375 22.1875 42.84375 
Q 18.109375 37.203125 18.109375 27.296875 
Q 18.109375 17.390625 22.1875 11.75 
Q 26.265625 6.109375 33.40625 6.109375 
Q 40.53125 6.109375 44.609375 11.75 
Q 48.6875 17.390625 48.6875 27.296875 
z
M 18.109375 46.390625 
Q 20.953125 51.265625 25.265625 53.625 
Q 29.59375 56 35.59375 56 
Q 45.5625 56 51.78125 48.09375 
Q 58.015625 40.1875 58.015625 27.296875 
Q 58.015625 14.40625 51.78125 6.484375 
Q 45.5625 -1.421875 35.59375 -1.421875 
Q 29.59375 -1.421875 25.265625 0.953125 
Q 20.953125 3.328125 18.109375 8.203125 
L 18.109375 0 
L 9.078125 0 
L 9.078125 75.984375 
L 18.109375 75.984375 
z
" id="DejaVuSans-98"/>
      <path d="M 45.40625 27.984375 
Q 45.40625 37.75 41.375 43.109375 
Q 37.359375 48.484375 30.078125 48.484375 
Q 22.859375 48.484375 18.828125 43.109375 
Q 14.796875 37.75 14.796875 27.984375 
Q 14.796875 18.265625 18.828125 12.890625 
Q 22.859375 7.515625 30.078125 7.515625 
Q 37.359375 7.515625 41.375 12.890625 
Q 45.40625 18.265625 45.40625 27.984375 
z
M 54.390625 6.78125 
Q 54.390625 -7.171875 48.1875 -13.984375 
Q 42 -20.796875 29.203125 -20.796875 
Q 24.46875 -20.796875 20.265625 -20.09375 
Q 16.0625 -19.390625 12.109375 -17.921875 
L 12.109375 -9.1875 
Q 16.0625 -11.328125 19.921875 -12.34375 
Q 23.78125 -13.375 27.78125 -13.375 
Q 36.625 -13.375 41.015625 -8.765625 
Q 45.40625 -4.15625 45.40625 5.171875 
L 45.40625 9.625 
Q 42.625 4.78125 38.28125 2.390625 
Q 33.9375 0 27.875 0 
Q 17.828125 0 11.671875 7.65625 
Q 5.515625 15.328125 5.515625 27.984375 
Q 5.515625 40.671875 11.671875 48.328125 
Q 17.828125 56 27.875 56 
Q 33.9375 56 38.28125 53.609375 
Q 42.625 51.21875 45.40625 46.390625 
L 45.40625 54.6875 
L 54.390625 54.6875 
z
" id="DejaVuSans-103"/>
     </defs>
     <g transform="translate(120.539471 213.719796)scale(0.06 -0.06)">
      <use xlink:href="#DejaVuSans-34"/>
      <use x="45.996094" xlink:href="#DejaVuSans-76"/>
      <use x="101.693359" xlink:href="#DejaVuSans-117"/>
      <use x="165.072266" xlink:href="#DejaVuSans-120"/>
      <use x="224.205078" xlink:href="#DejaVuSans-101"/>
      <use x="285.728516" xlink:href="#DejaVuSans-109"/>
      <use x="383.140625" xlink:href="#DejaVuSans-98"/>
      <use x="446.617188" xlink:href="#DejaVuSans-111"/>
      <use x="507.798828" xlink:href="#DejaVuSans-117"/>
      <use x="571.177734" xlink:href="#DejaVuSans-114"/>
      <use x="612.275391" xlink:href="#DejaVuSans-103"/>
      <use x="675.751953" xlink:href="#DejaVuSans-34"/>
     </g>
    </g>
   </g>
   <g id="text_7">
    <g clip-path="url(#ped1128516e)">
     <!-- "Tunisia" -->
     <g transform="translate(104.25396 285.856629)scale(0.06 -0.06)">
      <use xlink:href="#DejaVuSans-34"/>
      <use x="45.996094" xlink:href="#DejaVuSans-84"/>
      <use x="106.845703" xlink:href="#DejaVuSans-117"/>
      <use x="170.224609" xlink:href="#DejaVuSans-110"/>
      <use x="233.603516" xlink:href="#DejaVuSans-105"/>
      <use x="261.386719" xlink:href="#DejaVuSans-115"/>
      <use x="313.486328" xlink:href="#DejaVuSans-105"/>
      <use x="341.269531" xlink:href="#DejaVuSans-97"/>
      <use x="402.548828" xlink:href="#DejaVuSans-34"/>
     </g>
    </g>
   </g>
   <g id="text_8">
    <g clip-path="url(#ped1128516e)">
     <!-- "Austria" -->
     <defs>
      <path d="M 34.1875 63.1875 
L 20.796875 26.90625 
L 47.609375 26.90625 
z
M 28.609375 72.90625 
L 39.796875 72.90625 
L 67.578125 0 
L 57.328125 0 
L 50.6875 18.703125 
L 17.828125 18.703125 
L 11.1875 0 
L 0.78125 0 
z
" id="DejaVuSans-65"/>
     </defs>
     <g transform="translate(247.332351 247.313891)scale(0.06 -0.06)">
      <use xlink:href="#DejaVuSans-34"/>
      <use x="45.996094" xlink:href="#DejaVuSans-65"/>
      <use x="114.404297" xlink:href="#DejaVuSans-117"/>
      <use x="177.783203" xlink:href="#DejaVuSans-115"/>
      <use x="229.882812" xlink:href="#DejaVuSans-116"/>
      <use x="269.091797" xlink:href="#DejaVuSans-114"/>
      <use x="310.205078" xlink:href="#DejaVuSans-105"/>
      <use x="337.988281" xlink:href="#DejaVuSans-97"/>
      <use x="399.267578" xlink:href="#DejaVuSans-34"/>
     </g>
    </g>
   </g>
   <g id="text_9">
    <g clip-path="url(#ped1128516e)">
     <!-- "Portugal" -->
     <defs>
      <path d="M 19.671875 64.796875 
L 19.671875 37.40625 
L 32.078125 37.40625 
Q 38.96875 37.40625 42.71875 40.96875 
Q 46.484375 44.53125 46.484375 51.125 
Q 46.484375 57.671875 42.71875 61.234375 
Q 38.96875 64.796875 32.078125 64.796875 
z
M 9.8125 72.90625 
L 32.078125 72.90625 
Q 44.34375 72.90625 50.609375 67.359375 
Q 56.890625 61.8125 56.890625 51.125 
Q 56.890625 40.328125 50.609375 34.8125 
Q 44.34375 29.296875 32.078125 29.296875 
L 19.671875 29.296875 
L 19.671875 0 
L 9.8125 0 
z
" id="DejaVuSans-80"/>
     </defs>
     <g transform="translate(89.124793 160.142202)scale(0.06 -0.06)">
      <use xlink:href="#DejaVuSans-34"/>
      <use x="45.996094" xlink:href="#DejaVuSans-80"/>
      <use x="106.251953" xlink:href="#DejaVuSans-111"/>
      <use x="167.433594" xlink:href="#DejaVuSans-114"/>
      <use x="208.546875" xlink:href="#DejaVuSans-116"/>
      <use x="247.755859" xlink:href="#DejaVuSans-117"/>
      <use x="311.134766" xlink:href="#DejaVuSans-103"/>
      <use x="374.611328" xlink:href="#DejaVuSans-97"/>
      <use x="435.890625" xlink:href="#DejaVuSans-108"/>
      <use x="463.673828" xlink:href="#DejaVuSans-34"/>
     </g>
    </g>
   </g>
   <g id="text_10">
    <g clip-path="url(#ped1128516e)">
     <!-- "Switzerland" -->
     <defs>
      <path d="M 53.515625 70.515625 
L 53.515625 60.890625 
Q 47.90625 63.578125 42.921875 64.890625 
Q 37.9375 66.21875 33.296875 66.21875 
Q 25.25 66.21875 20.875 63.09375 
Q 16.5 59.96875 16.5 54.203125 
Q 16.5 49.359375 19.40625 46.890625 
Q 22.3125 44.4375 30.421875 42.921875 
L 36.375 41.703125 
Q 47.40625 39.59375 52.65625 34.296875 
Q 57.90625 29 57.90625 20.125 
Q 57.90625 9.515625 50.796875 4.046875 
Q 43.703125 -1.421875 29.984375 -1.421875 
Q 24.8125 -1.421875 18.96875 -0.25 
Q 13.140625 0.921875 6.890625 3.21875 
L 6.890625 13.375 
Q 12.890625 10.015625 18.65625 8.296875 
Q 24.421875 6.59375 29.984375 6.59375 
Q 38.421875 6.59375 43.015625 9.90625 
Q 47.609375 13.234375 47.609375 19.390625 
Q 47.609375 24.75 44.3125 27.78125 
Q 41.015625 30.8125 33.5 32.328125 
L 27.484375 33.5 
Q 16.453125 35.6875 11.515625 40.375 
Q 6.59375 45.0625 6.59375 53.421875 
Q 6.59375 63.09375 13.40625 68.65625 
Q 20.21875 74.21875 32.171875 74.21875 
Q 37.3125 74.21875 42.625 73.28125 
Q 47.953125 72.359375 53.515625 70.515625 
z
" id="DejaVuSans-83"/>
      <path d="M 5.515625 54.6875 
L 48.1875 54.6875 
L 48.1875 46.484375 
L 14.40625 7.171875 
L 48.1875 7.171875 
L 48.1875 0 
L 4.296875 0 
L 4.296875 8.203125 
L 38.09375 47.515625 
L 5.515625 47.515625 
z
" id="DejaVuSans-122"/>
     </defs>
     <g transform="translate(186.132019 234.925088)scale(0.06 -0.06)">
      <use xlink:href="#DejaVuSans-34"/>
      <use x="45.996094" xlink:href="#DejaVuSans-83"/>
      <use x="109.472656" xlink:href="#DejaVuSans-119"/>
      <use x="191.259766" xlink:href="#DejaVuSans-105"/>
      <use x="219.042969" xlink:href="#DejaVuSans-116"/>
      <use x="258.251953" xlink:href="#DejaVuSans-122"/>
      <use x="310.742188" xlink:href="#DejaVuSans-101"/>
      <use x="372.265625" xlink:href="#DejaVuSans-114"/>
      <use x="413.378906" xlink:href="#DejaVuSans-108"/>
      <use x="441.162109" xlink:href="#DejaVuSans-97"/>
      <use x="502.441406" xlink:href="#DejaVuSans-110"/>
      <use x="565.820312" xlink:href="#DejaVuSans-100"/>
      <use x="629.296875" xlink:href="#DejaVuSans-34"/>
     </g>
    </g>
   </g>
   <g id="text_11">
    <g clip-path="url(#ped1128516e)">
     <!-- "Georgia" -->
     <defs>
      <path d="M 59.515625 10.40625 
L 59.515625 29.984375 
L 43.40625 29.984375 
L 43.40625 38.09375 
L 69.28125 38.09375 
L 69.28125 6.78125 
Q 63.578125 2.734375 56.6875 0.65625 
Q 49.8125 -1.421875 42 -1.421875 
Q 24.90625 -1.421875 15.25 8.5625 
Q 5.609375 18.5625 5.609375 36.375 
Q 5.609375 54.25 15.25 64.234375 
Q 24.90625 74.21875 42 74.21875 
Q 49.125 74.21875 55.546875 72.453125 
Q 61.96875 70.703125 67.390625 67.28125 
L 67.390625 56.78125 
Q 61.921875 61.421875 55.765625 63.765625 
Q 49.609375 66.109375 42.828125 66.109375 
Q 29.4375 66.109375 22.71875 58.640625 
Q 16.015625 51.171875 16.015625 36.375 
Q 16.015625 21.625 22.71875 14.15625 
Q 29.4375 6.6875 42.828125 6.6875 
Q 48.046875 6.6875 52.140625 7.59375 
Q 56.25 8.5 59.515625 10.40625 
z
" id="DejaVuSans-71"/>
     </defs>
     <g transform="translate(226.933062 17.708604)scale(0.06 -0.06)">
      <use xlink:href="#DejaVuSans-34"/>
      <use x="45.996094" xlink:href="#DejaVuSans-71"/>
      <use x="123.486328" xlink:href="#DejaVuSans-101"/>
      <use x="185.009766" xlink:href="#DejaVuSans-111"/>
      <use x="246.191406" xlink:href="#DejaVuSans-114"/>
      <use x="287.289062" xlink:href="#DejaVuSans-103"/>
      <use x="350.765625" xlink:href="#DejaVuSans-105"/>
      <use x="378.548828" xlink:href="#DejaVuSans-97"/>
      <use x="439.828125" xlink:href="#DejaVuSans-34"/>
     </g>
    </g>
   </g>
   <g id="text_12">
    <g clip-path="url(#ped1128516e)">
     <!-- "Sweden" -->
     <g transform="translate(177.164338 314.89653)scale(0.06 -0.06)">
      <use xlink:href="#DejaVuSans-34"/>
      <use x="45.996094" xlink:href="#DejaVuSans-83"/>
      <use x="109.472656" xlink:href="#DejaVuSans-119"/>
      <use x="191.259766" xlink:href="#DejaVuSans-101"/>
      <use x="252.783203" xlink:href="#DejaVuSans-100"/>
      <use x="316.259766" xlink:href="#DejaVuSans-101"/>
      <use x="377.783203" xlink:href="#DejaVuSans-110"/>
      <use x="441.162109" xlink:href="#DejaVuSans-34"/>
     </g>
    </g>
   </g>
   <g id="text_13">
    <g clip-path="url(#ped1128516e)">
     <!-- "Germany" -->
     <g transform="translate(191.432867 193.405579)scale(0.06 -0.06)">
      <use xlink:href="#DejaVuSans-34"/>
      <use x="45.996094" xlink:href="#DejaVuSans-71"/>
      <use x="123.486328" xlink:href="#DejaVuSans-101"/>
      <use x="185.009766" xlink:href="#DejaVuSans-114"/>
      <use x="226.107422" xlink:href="#DejaVuSans-109"/>
      <use x="323.519531" xlink:href="#DejaVuSans-97"/>
      <use x="384.798828" xlink:href="#DejaVuSans-110"/>
      <use x="448.177734" xlink:href="#DejaVuSans-121"/>
      <use x="507.357422" xlink:href="#DejaVuSans-34"/>
     </g>
    </g>
   </g>
   <g id="text_14">
    <g clip-path="url(#ped1128516e)">
     <!-- "Latvia" -->
     <defs>
      <path d="M 2.984375 54.6875 
L 12.5 54.6875 
L 29.59375 8.796875 
L 46.6875 54.6875 
L 56.203125 54.6875 
L 35.6875 0 
L 23.484375 0 
z
" id="DejaVuSans-118"/>
     </defs>
     <g transform="translate(136.25373 62.137628)scale(0.06 -0.06)">
      <use xlink:href="#DejaVuSans-34"/>
      <use x="45.996094" xlink:href="#DejaVuSans-76"/>
      <use x="101.708984" xlink:href="#DejaVuSans-97"/>
      <use x="162.988281" xlink:href="#DejaVuSans-116"/>
      <use x="202.197266" xlink:href="#DejaVuSans-118"/>
      <use x="261.376953" xlink:href="#DejaVuSans-105"/>
      <use x="289.160156" xlink:href="#DejaVuSans-97"/>
      <use x="350.439453" xlink:href="#DejaVuSans-34"/>
     </g>
    </g>
   </g>
   <g id="text_15">
    <g clip-path="url(#ped1128516e)">
     <!-- "Morocco" -->
     <defs>
      <path d="M 9.8125 72.90625 
L 24.515625 72.90625 
L 43.109375 23.296875 
L 61.8125 72.90625 
L 76.515625 72.90625 
L 76.515625 0 
L 66.890625 0 
L 66.890625 64.015625 
L 48.09375 14.015625 
L 38.1875 14.015625 
L 19.390625 64.015625 
L 19.390625 0 
L 9.8125 0 
z
" id="DejaVuSans-77"/>
     </defs>
     <g transform="translate(5.853666 197.592262)scale(0.06 -0.06)">
      <use xlink:href="#DejaVuSans-34"/>
      <use x="45.996094" xlink:href="#DejaVuSans-77"/>
      <use x="132.275391" xlink:href="#DejaVuSans-111"/>
      <use x="193.457031" xlink:href="#DejaVuSans-114"/>
      <use x="234.539062" xlink:href="#DejaVuSans-111"/>
      <use x="295.720703" xlink:href="#DejaVuSans-99"/>
      <use x="350.701172" xlink:href="#DejaVuSans-99"/>
      <use x="405.681641" xlink:href="#DejaVuSans-111"/>
      <use x="466.863281" xlink:href="#DejaVuSans-34"/>
     </g>
    </g>
   </g>
   <g id="text_16">
    <g clip-path="url(#ped1128516e)">
     <!-- "Algeria" -->
     <g transform="translate(54.103447 254.617084)scale(0.06 -0.06)">
      <use xlink:href="#DejaVuSans-34"/>
      <use x="45.996094" xlink:href="#DejaVuSans-65"/>
      <use x="114.404297" xlink:href="#DejaVuSans-108"/>
      <use x="142.1875" xlink:href="#DejaVuSans-103"/>
      <use x="205.664062" xlink:href="#DejaVuSans-101"/>
      <use x="267.1875" xlink:href="#DejaVuSans-114"/>
      <use x="308.300781" xlink:href="#DejaVuSans-105"/>
      <use x="336.083984" xlink:href="#DejaVuSans-97"/>
      <use x="397.363281" xlink:href="#DejaVuSans-34"/>
     </g>
    </g>
   </g>
   <g id="text_17">
    <g clip-path="url(#ped1128516e)">
     <!-- "Italy" -->
     <defs>
      <path d="M 9.8125 72.90625 
L 19.671875 72.90625 
L 19.671875 0 
L 9.8125 0 
z
" id="DejaVuSans-73"/>
     </defs>
     <g transform="translate(192.07507 267.189263)scale(0.06 -0.06)">
      <use xlink:href="#DejaVuSans-34"/>
      <use x="45.996094" xlink:href="#DejaVuSans-73"/>
      <use x="75.488281" xlink:href="#DejaVuSans-116"/>
      <use x="114.697266" xlink:href="#DejaVuSans-97"/>
      <use x="175.976562" xlink:href="#DejaVuSans-108"/>
      <use x="203.759766" xlink:href="#DejaVuSans-121"/>
      <use x="262.939453" xlink:href="#DejaVuSans-34"/>
     </g>
    </g>
   </g>
   <g id="text_18">
    <g clip-path="url(#ped1128516e)">
     <!-- "Ireland" -->
     <g transform="translate(251.308041 142.214727)scale(0.06 -0.06)">
      <use xlink:href="#DejaVuSans-34"/>
      <use x="45.996094" xlink:href="#DejaVuSans-73"/>
      <use x="75.488281" xlink:href="#DejaVuSans-114"/>
      <use x="116.570312" xlink:href="#DejaVuSans-101"/>
      <use x="178.09375" xlink:href="#DejaVuSans-108"/>
      <use x="205.876953" xlink:href="#DejaVuSans-97"/>
      <use x="267.15625" xlink:href="#DejaVuSans-110"/>
      <use x="330.535156" xlink:href="#DejaVuSans-100"/>
      <use x="394.011719" xlink:href="#DejaVuSans-34"/>
     </g>
    </g>
   </g>
   <g id="text_19">
    <g clip-path="url(#ped1128516e)">
     <!-- "Belarus" -->
     <defs>
      <path d="M 19.671875 34.8125 
L 19.671875 8.109375 
L 35.5 8.109375 
Q 43.453125 8.109375 47.28125 11.40625 
Q 51.125 14.703125 51.125 21.484375 
Q 51.125 28.328125 47.28125 31.5625 
Q 43.453125 34.8125 35.5 34.8125 
z
M 19.671875 64.796875 
L 19.671875 42.828125 
L 34.28125 42.828125 
Q 41.5 42.828125 45.03125 45.53125 
Q 48.578125 48.25 48.578125 53.8125 
Q 48.578125 59.328125 45.03125 62.0625 
Q 41.5 64.796875 34.28125 64.796875 
z
M 9.8125 72.90625 
L 35.015625 72.90625 
Q 46.296875 72.90625 52.390625 68.21875 
Q 58.5 63.53125 58.5 54.890625 
Q 58.5 48.1875 55.375 44.234375 
Q 52.25 40.28125 46.1875 39.3125 
Q 53.46875 37.75 57.5 32.78125 
Q 61.53125 27.828125 61.53125 20.40625 
Q 61.53125 10.640625 54.890625 5.3125 
Q 48.25 0 35.984375 0 
L 9.8125 0 
z
" id="DejaVuSans-66"/>
     </defs>
     <g transform="translate(216.1229 130.433566)scale(0.06 -0.06)">
      <use xlink:href="#DejaVuSans-34"/>
      <use x="45.996094" xlink:href="#DejaVuSans-66"/>
      <use x="114.599609" xlink:href="#DejaVuSans-101"/>
      <use x="176.123047" xlink:href="#DejaVuSans-108"/>
      <use x="203.90625" xlink:href="#DejaVuSans-97"/>
      <use x="265.185547" xlink:href="#DejaVuSans-114"/>
      <use x="306.298828" xlink:href="#DejaVuSans-117"/>
      <use x="369.677734" xlink:href="#DejaVuSans-115"/>
      <use x="421.777344" xlink:href="#DejaVuSans-34"/>
     </g>
    </g>
   </g>
   <g id="text_20">
    <g clip-path="url(#ped1128516e)">
     <!-- "Ukraine" -->
     <defs>
      <path d="M 8.6875 72.90625 
L 18.609375 72.90625 
L 18.609375 28.609375 
Q 18.609375 16.890625 22.84375 11.734375 
Q 27.09375 6.59375 36.625 6.59375 
Q 46.09375 6.59375 50.34375 11.734375 
Q 54.59375 16.890625 54.59375 28.609375 
L 54.59375 72.90625 
L 64.5 72.90625 
L 64.5 27.390625 
Q 64.5 13.140625 57.4375 5.859375 
Q 50.390625 -1.421875 36.625 -1.421875 
Q 22.796875 -1.421875 15.734375 5.859375 
Q 8.6875 13.140625 8.6875 27.390625 
z
" id="DejaVuSans-85"/>
     </defs>
     <g transform="translate(326.105652 204.790336)scale(0.06 -0.06)">
      <use xlink:href="#DejaVuSans-34"/>
      <use x="45.996094" xlink:href="#DejaVuSans-85"/>
      <use x="119.189453" xlink:href="#DejaVuSans-107"/>
      <use x="177.099609" xlink:href="#DejaVuSans-114"/>
      <use x="218.212891" xlink:href="#DejaVuSans-97"/>
      <use x="279.492188" xlink:href="#DejaVuSans-105"/>
      <use x="307.275391" xlink:href="#DejaVuSans-110"/>
      <use x="370.654297" xlink:href="#DejaVuSans-101"/>
      <use x="432.177734" xlink:href="#DejaVuSans-34"/>
     </g>
    </g>
   </g>
   <g id="text_21">
    <g clip-path="url(#ped1128516e)">
     <!-- "Macedonia" -->
     <g transform="translate(354.401539 64.619799)scale(0.06 -0.06)">
      <use xlink:href="#DejaVuSans-34"/>
      <use x="45.996094" xlink:href="#DejaVuSans-77"/>
      <use x="132.275391" xlink:href="#DejaVuSans-97"/>
      <use x="193.554688" xlink:href="#DejaVuSans-99"/>
      <use x="248.535156" xlink:href="#DejaVuSans-101"/>
      <use x="310.058594" xlink:href="#DejaVuSans-100"/>
      <use x="373.535156" xlink:href="#DejaVuSans-111"/>
      <use x="434.716797" xlink:href="#DejaVuSans-110"/>
      <use x="498.095703" xlink:href="#DejaVuSans-105"/>
      <use x="525.878906" xlink:href="#DejaVuSans-97"/>
      <use x="587.158203" xlink:href="#DejaVuSans-34"/>
     </g>
    </g>
   </g>
   <g id="text_22">
    <g clip-path="url(#ped1128516e)">
     <!-- "Croatia" -->
     <defs>
      <path d="M 64.40625 67.28125 
L 64.40625 56.890625 
Q 59.421875 61.53125 53.78125 63.8125 
Q 48.140625 66.109375 41.796875 66.109375 
Q 29.296875 66.109375 22.65625 58.46875 
Q 16.015625 50.828125 16.015625 36.375 
Q 16.015625 21.96875 22.65625 14.328125 
Q 29.296875 6.6875 41.796875 6.6875 
Q 48.140625 6.6875 53.78125 8.984375 
Q 59.421875 11.28125 64.40625 15.921875 
L 64.40625 5.609375 
Q 59.234375 2.09375 53.4375 0.328125 
Q 47.65625 -1.421875 41.21875 -1.421875 
Q 24.65625 -1.421875 15.125 8.703125 
Q 5.609375 18.84375 5.609375 36.375 
Q 5.609375 53.953125 15.125 64.078125 
Q 24.65625 74.21875 41.21875 74.21875 
Q 47.75 74.21875 53.53125 72.484375 
Q 59.328125 70.75 64.40625 67.28125 
z
" id="DejaVuSans-67"/>
     </defs>
     <g transform="translate(267.251158 284.170097)scale(0.06 -0.06)">
      <use xlink:href="#DejaVuSans-34"/>
      <use x="45.996094" xlink:href="#DejaVuSans-67"/>
      <use x="115.820312" xlink:href="#DejaVuSans-114"/>
      <use x="156.902344" xlink:href="#DejaVuSans-111"/>
      <use x="218.083984" xlink:href="#DejaVuSans-97"/>
      <use x="279.363281" xlink:href="#DejaVuSans-116"/>
      <use x="318.572266" xlink:href="#DejaVuSans-105"/>
      <use x="346.355469" xlink:href="#DejaVuSans-97"/>
      <use x="407.634766" xlink:href="#DejaVuSans-34"/>
     </g>
    </g>
   </g>
   <g id="text_23">
    <g clip-path="url(#ped1128516e)">
     <!-- "LNG" -->
     <g transform="translate(169.427527 163.576614)scale(0.06 -0.06)">
      <use xlink:href="#DejaVuSans-34"/>
      <use x="45.996094" xlink:href="#DejaVuSans-76"/>
      <use x="101.708984" xlink:href="#DejaVuSans-78"/>
      <use x="176.513672" xlink:href="#DejaVuSans-71"/>
      <use x="254.003906" xlink:href="#DejaVuSans-34"/>
     </g>
    </g>
   </g>
   <g id="text_24">
    <g clip-path="url(#ped1128516e)">
     <!-- "Greece" -->
     <g transform="translate(237.503061 111.211205)scale(0.06 -0.06)">
      <use xlink:href="#DejaVuSans-34"/>
      <use x="45.996094" xlink:href="#DejaVuSans-71"/>
      <use x="123.486328" xlink:href="#DejaVuSans-114"/>
      <use x="164.568359" xlink:href="#DejaVuSans-101"/>
      <use x="226.091797" xlink:href="#DejaVuSans-101"/>
      <use x="287.615234" xlink:href="#DejaVuSans-99"/>
      <use x="342.595703" xlink:href="#DejaVuSans-101"/>
      <use x="404.119141" xlink:href="#DejaVuSans-34"/>
     </g>
    </g>
   </g>
   <g id="text_25">
    <g clip-path="url(#ped1128516e)">
     <!-- "Czech Republic" -->
     <defs>
      <path id="DejaVuSans-32"/>
      <path d="M 44.390625 34.1875 
Q 47.5625 33.109375 50.5625 29.59375 
Q 53.5625 26.078125 56.59375 19.921875 
L 66.609375 0 
L 56 0 
L 46.6875 18.703125 
Q 43.0625 26.03125 39.671875 28.421875 
Q 36.28125 30.8125 30.421875 30.8125 
L 19.671875 30.8125 
L 19.671875 0 
L 9.8125 0 
L 9.8125 72.90625 
L 32.078125 72.90625 
Q 44.578125 72.90625 50.734375 67.671875 
Q 56.890625 62.453125 56.890625 51.90625 
Q 56.890625 45.015625 53.6875 40.46875 
Q 50.484375 35.9375 44.390625 34.1875 
z
M 19.671875 64.796875 
L 19.671875 38.921875 
L 32.078125 38.921875 
Q 39.203125 38.921875 42.84375 42.21875 
Q 46.484375 45.515625 46.484375 51.90625 
Q 46.484375 58.296875 42.84375 61.546875 
Q 39.203125 64.796875 32.078125 64.796875 
z
" id="DejaVuSans-82"/>
      <path d="M 18.109375 8.203125 
L 18.109375 -20.796875 
L 9.078125 -20.796875 
L 9.078125 54.6875 
L 18.109375 54.6875 
L 18.109375 46.390625 
Q 20.953125 51.265625 25.265625 53.625 
Q 29.59375 56 35.59375 56 
Q 45.5625 56 51.78125 48.09375 
Q 58.015625 40.1875 58.015625 27.296875 
Q 58.015625 14.40625 51.78125 6.484375 
Q 45.5625 -1.421875 35.59375 -1.421875 
Q 29.59375 -1.421875 25.265625 0.953125 
Q 20.953125 3.328125 18.109375 8.203125 
z
M 48.6875 27.296875 
Q 48.6875 37.203125 44.609375 42.84375 
Q 40.53125 48.484375 33.40625 48.484375 
Q 26.265625 48.484375 22.1875 42.84375 
Q 18.109375 37.203125 18.109375 27.296875 
Q 18.109375 17.390625 22.1875 11.75 
Q 26.265625 6.109375 33.40625 6.109375 
Q 40.53125 6.109375 44.609375 11.75 
Q 48.6875 17.390625 48.6875 27.296875 
z
" id="DejaVuSans-112"/>
     </defs>
     <g transform="translate(247.346437 217.246558)scale(0.06 -0.06)">
      <use xlink:href="#DejaVuSans-34"/>
      <use x="45.996094" xlink:href="#DejaVuSans-67"/>
      <use x="115.820312" xlink:href="#DejaVuSans-122"/>
      <use x="168.310547" xlink:href="#DejaVuSans-101"/>
      <use x="229.833984" xlink:href="#DejaVuSans-99"/>
      <use x="284.814453" xlink:href="#DejaVuSans-104"/>
      <use x="348.193359" xlink:href="#DejaVuSans-32"/>
      <use x="379.980469" xlink:href="#DejaVuSans-82"/>
      <use x="449.400391" xlink:href="#DejaVuSans-101"/>
      <use x="510.923828" xlink:href="#DejaVuSans-112"/>
      <use x="574.400391" xlink:href="#DejaVuSans-117"/>
      <use x="637.779297" xlink:href="#DejaVuSans-98"/>
      <use x="701.255859" xlink:href="#DejaVuSans-108"/>
      <use x="729.039062" xlink:href="#DejaVuSans-105"/>
      <use x="756.822266" xlink:href="#DejaVuSans-99"/>
      <use x="811.802734" xlink:href="#DejaVuSans-34"/>
     </g>
    </g>
   </g>
   <g id="text_26">
    <g clip-path="url(#ped1128516e)">
     <!-- "Libya" -->
     <g transform="translate(160.04642 331.202646)scale(0.06 -0.06)">
      <use xlink:href="#DejaVuSans-34"/>
      <use x="45.996094" xlink:href="#DejaVuSans-76"/>
      <use x="101.708984" xlink:href="#DejaVuSans-105"/>
      <use x="129.492188" xlink:href="#DejaVuSans-98"/>
      <use x="192.96875" xlink:href="#DejaVuSans-121"/>
      <use x="252.148438" xlink:href="#DejaVuSans-97"/>
      <use x="313.427734" xlink:href="#DejaVuSans-34"/>
     </g>
    </g>
   </g>
   <g id="text_27">
    <g clip-path="url(#ped1128516e)">
     <!-- "Finland" -->
     <g transform="translate(108.596565 41.173787)scale(0.06 -0.06)">
      <use xlink:href="#DejaVuSans-34"/>
      <use x="45.996094" xlink:href="#DejaVuSans-70"/>
      <use x="103.40625" xlink:href="#DejaVuSans-105"/>
      <use x="131.189453" xlink:href="#DejaVuSans-110"/>
      <use x="194.568359" xlink:href="#DejaVuSans-108"/>
      <use x="222.351562" xlink:href="#DejaVuSans-97"/>
      <use x="283.630859" xlink:href="#DejaVuSans-110"/>
      <use x="347.009766" xlink:href="#DejaVuSans-100"/>
      <use x="410.486328" xlink:href="#DejaVuSans-34"/>
     </g>
    </g>
   </g>
   <g id="text_28">
    <g clip-path="url(#ped1128516e)">
     <!-- "Slovak Republic" -->
     <g transform="translate(288.003129 239.396536)scale(0.06 -0.06)">
      <use xlink:href="#DejaVuSans-34"/>
      <use x="45.996094" xlink:href="#DejaVuSans-83"/>
      <use x="109.472656" xlink:href="#DejaVuSans-108"/>
      <use x="137.255859" xlink:href="#DejaVuSans-111"/>
      <use x="198.4375" xlink:href="#DejaVuSans-118"/>
      <use x="257.617188" xlink:href="#DejaVuSans-97"/>
      <use x="318.896484" xlink:href="#DejaVuSans-107"/>
      <use x="376.806641" xlink:href="#DejaVuSans-32"/>
      <use x="408.59375" xlink:href="#DejaVuSans-82"/>
      <use x="478.013672" xlink:href="#DejaVuSans-101"/>
      <use x="539.537109" xlink:href="#DejaVuSans-112"/>
      <use x="603.013672" xlink:href="#DejaVuSans-117"/>
      <use x="666.392578" xlink:href="#DejaVuSans-98"/>
      <use x="729.869141" xlink:href="#DejaVuSans-108"/>
      <use x="757.652344" xlink:href="#DejaVuSans-105"/>
      <use x="785.435547" xlink:href="#DejaVuSans-99"/>
      <use x="840.416016" xlink:href="#DejaVuSans-34"/>
     </g>
    </g>
   </g>
   <g id="text_29">
    <g clip-path="url(#ped1128516e)">
     <!-- "Bulgaria" -->
     <g transform="translate(305.656093 103.234305)scale(0.06 -0.06)">
      <use xlink:href="#DejaVuSans-34"/>
      <use x="45.996094" xlink:href="#DejaVuSans-66"/>
      <use x="114.599609" xlink:href="#DejaVuSans-117"/>
      <use x="177.978516" xlink:href="#DejaVuSans-108"/>
      <use x="205.761719" xlink:href="#DejaVuSans-103"/>
      <use x="269.238281" xlink:href="#DejaVuSans-97"/>
      <use x="330.517578" xlink:href="#DejaVuSans-114"/>
      <use x="371.630859" xlink:href="#DejaVuSans-105"/>
      <use x="399.414062" xlink:href="#DejaVuSans-97"/>
      <use x="460.693359" xlink:href="#DejaVuSans-34"/>
     </g>
    </g>
   </g>
   <g id="text_30">
    <g clip-path="url(#ped1128516e)">
     <!-- "Hungary" -->
     <defs>
      <path d="M 9.8125 72.90625 
L 19.671875 72.90625 
L 19.671875 43.015625 
L 55.515625 43.015625 
L 55.515625 72.90625 
L 65.375 72.90625 
L 65.375 0 
L 55.515625 0 
L 55.515625 34.71875 
L 19.671875 34.71875 
L 19.671875 0 
L 9.8125 0 
z
" id="DejaVuSans-72"/>
     </defs>
     <g transform="translate(325.305861 242.036811)scale(0.06 -0.06)">
      <use xlink:href="#DejaVuSans-34"/>
      <use x="45.996094" xlink:href="#DejaVuSans-72"/>
      <use x="121.191406" xlink:href="#DejaVuSans-117"/>
      <use x="184.570312" xlink:href="#DejaVuSans-110"/>
      <use x="247.949219" xlink:href="#DejaVuSans-103"/>
      <use x="311.425781" xlink:href="#DejaVuSans-97"/>
      <use x="372.705078" xlink:href="#DejaVuSans-114"/>
      <use x="413.818359" xlink:href="#DejaVuSans-121"/>
      <use x="472.998047" xlink:href="#DejaVuSans-34"/>
     </g>
    </g>
   </g>
   <g id="text_31">
    <g clip-path="url(#ped1128516e)">
     <!-- "Belgium" -->
     <g transform="translate(152.22538 184.518825)scale(0.06 -0.06)">
      <use xlink:href="#DejaVuSans-34"/>
      <use x="45.996094" xlink:href="#DejaVuSans-66"/>
      <use x="114.599609" xlink:href="#DejaVuSans-101"/>
      <use x="176.123047" xlink:href="#DejaVuSans-108"/>
      <use x="203.90625" xlink:href="#DejaVuSans-103"/>
      <use x="267.382812" xlink:href="#DejaVuSans-105"/>
      <use x="295.166016" xlink:href="#DejaVuSans-117"/>
      <use x="358.544922" xlink:href="#DejaVuSans-109"/>
      <use x="455.957031" xlink:href="#DejaVuSans-34"/>
     </g>
    </g>
   </g>
   <g id="text_32">
    <g clip-path="url(#ped1128516e)">
     <!-- "Poland" -->
     <g transform="translate(262.111436 180.120321)scale(0.06 -0.06)">
      <use xlink:href="#DejaVuSans-34"/>
      <use x="45.996094" xlink:href="#DejaVuSans-80"/>
      <use x="106.251953" xlink:href="#DejaVuSans-111"/>
      <use x="167.433594" xlink:href="#DejaVuSans-108"/>
      <use x="195.216797" xlink:href="#DejaVuSans-97"/>
      <use x="256.496094" xlink:href="#DejaVuSans-110"/>
      <use x="319.875" xlink:href="#DejaVuSans-100"/>
      <use x="383.351562" xlink:href="#DejaVuSans-34"/>
     </g>
    </g>
   </g>
   <g id="text_33">
    <g clip-path="url(#ped1128516e)">
     <!-- "Denmark" -->
     <defs>
      <path d="M 19.671875 64.796875 
L 19.671875 8.109375 
L 31.59375 8.109375 
Q 46.6875 8.109375 53.6875 14.9375 
Q 60.6875 21.78125 60.6875 36.53125 
Q 60.6875 51.171875 53.6875 57.984375 
Q 46.6875 64.796875 31.59375 64.796875 
z
M 9.8125 72.90625 
L 30.078125 72.90625 
Q 51.265625 72.90625 61.171875 64.09375 
Q 71.09375 55.28125 71.09375 36.53125 
Q 71.09375 17.671875 61.125 8.828125 
Q 51.171875 0 30.078125 0 
L 9.8125 0 
z
" id="DejaVuSans-68"/>
     </defs>
     <g transform="translate(174.001582 250.008603)scale(0.06 -0.06)">
      <use xlink:href="#DejaVuSans-34"/>
      <use x="45.996094" xlink:href="#DejaVuSans-68"/>
      <use x="122.998047" xlink:href="#DejaVuSans-101"/>
      <use x="184.521484" xlink:href="#DejaVuSans-110"/>
      <use x="247.900391" xlink:href="#DejaVuSans-109"/>
      <use x="345.3125" xlink:href="#DejaVuSans-97"/>
      <use x="406.591797" xlink:href="#DejaVuSans-114"/>
      <use x="447.705078" xlink:href="#DejaVuSans-107"/>
      <use x="505.615234" xlink:href="#DejaVuSans-34"/>
     </g>
    </g>
   </g>
   <g id="text_34">
    <g clip-path="url(#ped1128516e)">
     <!-- "Estonia" -->
     <defs>
      <path d="M 9.8125 72.90625 
L 55.90625 72.90625 
L 55.90625 64.59375 
L 19.671875 64.59375 
L 19.671875 43.015625 
L 54.390625 43.015625 
L 54.390625 34.71875 
L 19.671875 34.71875 
L 19.671875 8.296875 
L 56.78125 8.296875 
L 56.78125 0 
L 9.8125 0 
z
" id="DejaVuSans-69"/>
     </defs>
     <g transform="translate(139.806818 33.792333)scale(0.06 -0.06)">
      <use xlink:href="#DejaVuSans-34"/>
      <use x="45.996094" xlink:href="#DejaVuSans-69"/>
      <use x="109.179688" xlink:href="#DejaVuSans-115"/>
      <use x="161.279297" xlink:href="#DejaVuSans-116"/>
      <use x="200.488281" xlink:href="#DejaVuSans-111"/>
      <use x="261.669922" xlink:href="#DejaVuSans-110"/>
      <use x="325.048828" xlink:href="#DejaVuSans-105"/>
      <use x="352.832031" xlink:href="#DejaVuSans-97"/>
      <use x="414.111328" xlink:href="#DejaVuSans-34"/>
     </g>
    </g>
   </g>
   <g id="text_35">
    <g clip-path="url(#ped1128516e)">
     <!-- "Serbia" -->
     <g transform="translate(391.06621 266.506069)scale(0.06 -0.06)">
      <use xlink:href="#DejaVuSans-34"/>
      <use x="45.996094" xlink:href="#DejaVuSans-83"/>
      <use x="109.472656" xlink:href="#DejaVuSans-101"/>
      <use x="170.996094" xlink:href="#DejaVuSans-114"/>
      <use x="212.109375" xlink:href="#DejaVuSans-98"/>
      <use x="275.585938" xlink:href="#DejaVuSans-105"/>
      <use x="303.369141" xlink:href="#DejaVuSans-97"/>
      <use x="364.648438" xlink:href="#DejaVuSans-34"/>
     </g>
    </g>
   </g>
   <g id="text_36">
    <g clip-path="url(#ped1128516e)">
     <!-- "Russia" -->
     <g transform="translate(162.782636 89.544059)scale(0.06 -0.06)">
      <use xlink:href="#DejaVuSans-34"/>
      <use x="45.996094" xlink:href="#DejaVuSans-82"/>
      <use x="115.416016" xlink:href="#DejaVuSans-117"/>
      <use x="178.794922" xlink:href="#DejaVuSans-115"/>
      <use x="230.894531" xlink:href="#DejaVuSans-115"/>
      <use x="282.994141" xlink:href="#DejaVuSans-105"/>
      <use x="310.777344" xlink:href="#DejaVuSans-97"/>
      <use x="372.056641" xlink:href="#DejaVuSans-34"/>
     </g>
    </g>
   </g>
   <g id="text_37">
    <g clip-path="url(#ped1128516e)">
     <!-- "Romania" -->
     <g transform="translate(355.881631 171.967129)scale(0.06 -0.06)">
      <use xlink:href="#DejaVuSans-34"/>
      <use x="45.996094" xlink:href="#DejaVuSans-82"/>
      <use x="115.416016" xlink:href="#DejaVuSans-111"/>
      <use x="176.597656" xlink:href="#DejaVuSans-109"/>
      <use x="274.009766" xlink:href="#DejaVuSans-97"/>
      <use x="335.289062" xlink:href="#DejaVuSans-110"/>
      <use x="398.667969" xlink:href="#DejaVuSans-105"/>
      <use x="426.451172" xlink:href="#DejaVuSans-97"/>
      <use x="487.730469" xlink:href="#DejaVuSans-34"/>
     </g>
    </g>
   </g>
   <g id="text_38">
    <g clip-path="url(#ped1128516e)">
     <!-- "Spain" -->
     <g transform="translate(81.542235 196.822074)scale(0.06 -0.06)">
      <use xlink:href="#DejaVuSans-34"/>
      <use x="45.996094" xlink:href="#DejaVuSans-83"/>
      <use x="109.472656" xlink:href="#DejaVuSans-112"/>
      <use x="172.949219" xlink:href="#DejaVuSans-97"/>
      <use x="234.228516" xlink:href="#DejaVuSans-105"/>
      <use x="262.011719" xlink:href="#DejaVuSans-110"/>
      <use x="325.390625" xlink:href="#DejaVuSans-34"/>
     </g>
    </g>
   </g>
   <g id="text_39">
    <g clip-path="url(#ped1128516e)">
     <!-- "Iran" -->
     <g transform="translate(264.048404 25.142988)scale(0.06 -0.06)">
      <use xlink:href="#DejaVuSans-34"/>
      <use x="45.996094" xlink:href="#DejaVuSans-73"/>
      <use x="75.488281" xlink:href="#DejaVuSans-114"/>
      <use x="116.601562" xlink:href="#DejaVuSans-97"/>
      <use x="177.880859" xlink:href="#DejaVuSans-110"/>
      <use x="241.259766" xlink:href="#DejaVuSans-34"/>
     </g>
    </g>
   </g>
   <g id="text_40">
    <g clip-path="url(#ped1128516e)">
     <!-- "Slovenia" -->
     <g transform="translate(233.474865 296.167958)scale(0.06 -0.06)">
      <use xlink:href="#DejaVuSans-34"/>
      <use x="45.996094" xlink:href="#DejaVuSans-83"/>
      <use x="109.472656" xlink:href="#DejaVuSans-108"/>
      <use x="137.255859" xlink:href="#DejaVuSans-111"/>
      <use x="198.4375" xlink:href="#DejaVuSans-118"/>
      <use x="257.617188" xlink:href="#DejaVuSans-101"/>
      <use x="319.140625" xlink:href="#DejaVuSans-110"/>
      <use x="382.519531" xlink:href="#DejaVuSans-105"/>
      <use x="410.302734" xlink:href="#DejaVuSans-97"/>
      <use x="471.582031" xlink:href="#DejaVuSans-34"/>
     </g>
    </g>
   </g>
   <g id="text_41">
    <g clip-path="url(#ped1128516e)">
     <!-- "United Kingdom" -->
     <defs>
      <path d="M 9.8125 72.90625 
L 19.671875 72.90625 
L 19.671875 42.09375 
L 52.390625 72.90625 
L 65.09375 72.90625 
L 28.90625 38.921875 
L 67.671875 0 
L 54.6875 0 
L 19.671875 35.109375 
L 19.671875 0 
L 9.8125 0 
z
" id="DejaVuSans-75"/>
     </defs>
     <g transform="translate(181.417859 168.630939)scale(0.06 -0.06)">
      <use xlink:href="#DejaVuSans-34"/>
      <use x="45.996094" xlink:href="#DejaVuSans-85"/>
      <use x="119.189453" xlink:href="#DejaVuSans-110"/>
      <use x="182.568359" xlink:href="#DejaVuSans-105"/>
      <use x="210.351562" xlink:href="#DejaVuSans-116"/>
      <use x="249.560547" xlink:href="#DejaVuSans-101"/>
      <use x="311.083984" xlink:href="#DejaVuSans-100"/>
      <use x="374.560547" xlink:href="#DejaVuSans-32"/>
      <use x="406.347656" xlink:href="#DejaVuSans-75"/>
      <use x="471.923828" xlink:href="#DejaVuSans-105"/>
      <use x="499.707031" xlink:href="#DejaVuSans-110"/>
      <use x="563.085938" xlink:href="#DejaVuSans-103"/>
      <use x="626.5625" xlink:href="#DejaVuSans-100"/>
      <use x="690.039062" xlink:href="#DejaVuSans-111"/>
      <use x="751.220703" xlink:href="#DejaVuSans-109"/>
      <use x="848.632812" xlink:href="#DejaVuSans-34"/>
     </g>
    </g>
   </g>
   <g id="text_42">
    <g clip-path="url(#ped1128516e)">
     <!-- "Moldova" -->
     <g transform="translate(424.187896 164.738016)scale(0.06 -0.06)">
      <use xlink:href="#DejaVuSans-34"/>
      <use x="45.996094" xlink:href="#DejaVuSans-77"/>
      <use x="132.275391" xlink:href="#DejaVuSans-111"/>
      <use x="193.457031" xlink:href="#DejaVuSans-108"/>
      <use x="221.240234" xlink:href="#DejaVuSans-100"/>
      <use x="284.716797" xlink:href="#DejaVuSans-111"/>
      <use x="345.898438" xlink:href="#DejaVuSans-118"/>
      <use x="405.078125" xlink:href="#DejaVuSans-97"/>
      <use x="466.357422" xlink:href="#DejaVuSans-34"/>
     </g>
    </g>
   </g>
  </g>
 </g>
 <defs>
  <clipPath id="ped1128516e">
   <rect height="345.6" width="460.8" x="0" y="0"/>
  </clipPath>
 </defs>
</svg>
