<?xml version="1.0" encoding="utf-8" standalone="no"?>
<!DOCTYPE svg PUBLIC "-//W3C//DTD SVG 1.1//EN"
  "http://www.w3.org/Graphics/SVG/1.1/DTD/svg11.dtd">
<!-- Created with matplotlib (https://matplotlib.org/) -->
<svg height="345.6pt" version="1.1" viewBox="0 0 460.8 345.6" width="460.8pt" xmlns="http://www.w3.org/2000/svg" xmlns:xlink="http://www.w3.org/1999/xlink">
 <defs>
  <style type="text/css">
*{stroke-linecap:butt;stroke-linejoin:round;}
  </style>
 </defs>
 <g id="figure_1">
  <g id="patch_1">
   <path d="M 0 345.6 
L 460.8 345.6 
L 460.8 0 
L 0 0 
z
" style="fill:#ffffff;"/>
  </g>
  <g id="axes_1">
   <g id="LineCollection_1">
    <path clip-path="url(#p493fade688)" d="M 231.477048 71.938236 
L 438.233636 16.271001 
" style="fill:none;stroke:#000000;"/>
    <path clip-path="url(#p493fade688)" d="M 231.477048 71.938236 
L 22.566364 17.234444 
" style="fill:none;stroke:#000000;"/>
    <path clip-path="url(#p493fade688)" d="M 231.477048 71.938236 
L 235.601759 165.515847 
" style="fill:none;stroke:#000000;"/>
    <path clip-path="url(#p493fade688)" d="M 235.601759 165.515847 
L 240.020972 254.493263 
" style="fill:none;stroke:#000000;"/>
    <path clip-path="url(#p493fade688)" d="M 240.020972 254.493263 
L 243.638445 329.328999 
" style="fill:none;stroke:#000000;"/>
   </g>
   <g id="PathCollection_1">
    <defs>
     <path d="M 0 8.660254 
C 2.296726 8.660254 4.499694 7.747755 6.123724 6.123724 
C 7.747755 4.499694 8.660254 2.296726 8.660254 0 
C 8.660254 -2.296726 7.747755 -4.499694 6.123724 -6.123724 
C 4.499694 -7.747755 2.296726 -8.660254 0 -8.660254 
C -2.296726 -8.660254 -4.499694 -7.747755 -6.123724 -6.123724 
C -7.747755 -4.499694 -8.660254 -2.296726 -8.660254 0 
C -8.660254 2.296726 -7.747755 4.499694 -6.123724 6.123724 
C -4.499694 7.747755 -2.296726 8.660254 0 8.660254 
z
" id="m3379a2a40c" style="stroke:#ff0000;"/>
    </defs>
    <g clip-path="url(#p493fade688)">
     <use style="fill:#ff0000;stroke:#ff0000;" x="231.477048" xlink:href="#m3379a2a40c" y="71.938236"/>
     <use style="fill:#ff0000;stroke:#ff0000;" x="438.233636" xlink:href="#m3379a2a40c" y="16.271001"/>
     <use style="fill:#ff0000;stroke:#ff0000;" x="22.566364" xlink:href="#m3379a2a40c" y="17.234444"/>
     <use style="fill:#ff0000;stroke:#ff0000;" x="235.601759" xlink:href="#m3379a2a40c" y="165.515847"/>
     <use style="fill:#ff0000;stroke:#ff0000;" x="240.020972" xlink:href="#m3379a2a40c" y="254.493263"/>
     <use style="fill:#ff0000;stroke:#ff0000;" x="243.638445" xlink:href="#m3379a2a40c" y="329.328999"/>
    </g>
   </g>
   <g id="text_1">
    <g clip-path="url(#p493fade688)">
     <!-- frozenset({'"LNG"', '"Switzerland"', '"Italy"', '"Germany"'}) -->
     <defs>
      <path d="M 37.109375 75.984375 
L 37.109375 68.5 
L 28.515625 68.5 
Q 23.6875 68.5 21.796875 66.546875 
Q 19.921875 64.59375 19.921875 59.515625 
L 19.921875 54.6875 
L 34.71875 54.6875 
L 34.71875 47.703125 
L 19.921875 47.703125 
L 19.921875 0 
L 10.890625 0 
L 10.890625 47.703125 
L 2.296875 47.703125 
L 2.296875 54.6875 
L 10.890625 54.6875 
L 10.890625 58.5 
Q 10.890625 67.625 15.140625 71.796875 
Q 19.390625 75.984375 28.609375 75.984375 
z
" id="DejaVuSans-102"/>
      <path d="M 41.109375 46.296875 
Q 39.59375 47.171875 37.8125 47.578125 
Q 36.03125 48 33.890625 48 
Q 26.265625 48 22.1875 43.046875 
Q 18.109375 38.09375 18.109375 28.8125 
L 18.109375 0 
L 9.078125 0 
L 9.078125 54.6875 
L 18.109375 54.6875 
L 18.109375 46.1875 
Q 20.953125 51.171875 25.484375 53.578125 
Q 30.03125 56 36.53125 56 
Q 37.453125 56 38.578125 55.875 
Q 39.703125 55.765625 41.0625 55.515625 
z
" id="DejaVuSans-114"/>
      <path d="M 30.609375 48.390625 
Q 23.390625 48.390625 19.1875 42.75 
Q 14.984375 37.109375 14.984375 27.296875 
Q 14.984375 17.484375 19.15625 11.84375 
Q 23.34375 6.203125 30.609375 6.203125 
Q 37.796875 6.203125 41.984375 11.859375 
Q 46.1875 17.53125 46.1875 27.296875 
Q 46.1875 37.015625 41.984375 42.703125 
Q 37.796875 48.390625 30.609375 48.390625 
z
M 30.609375 56 
Q 42.328125 56 49.015625 48.375 
Q 55.71875 40.765625 55.71875 27.296875 
Q 55.71875 13.875 49.015625 6.21875 
Q 42.328125 -1.421875 30.609375 -1.421875 
Q 18.84375 -1.421875 12.171875 6.21875 
Q 5.515625 13.875 5.515625 27.296875 
Q 5.515625 40.765625 12.171875 48.375 
Q 18.84375 56 30.609375 56 
z
" id="DejaVuSans-111"/>
      <path d="M 5.515625 54.6875 
L 48.1875 54.6875 
L 48.1875 46.484375 
L 14.40625 7.171875 
L 48.1875 7.171875 
L 48.1875 0 
L 4.296875 0 
L 4.296875 8.203125 
L 38.09375 47.515625 
L 5.515625 47.515625 
z
" id="DejaVuSans-122"/>
      <path d="M 56.203125 29.59375 
L 56.203125 25.203125 
L 14.890625 25.203125 
Q 15.484375 15.921875 20.484375 11.0625 
Q 25.484375 6.203125 34.421875 6.203125 
Q 39.59375 6.203125 44.453125 7.46875 
Q 49.3125 8.734375 54.109375 11.28125 
L 54.109375 2.78125 
Q 49.265625 0.734375 44.1875 -0.34375 
Q 39.109375 -1.421875 33.890625 -1.421875 
Q 20.796875 -1.421875 13.15625 6.1875 
Q 5.515625 13.8125 5.515625 26.8125 
Q 5.515625 40.234375 12.765625 48.109375 
Q 20.015625 56 32.328125 56 
Q 43.359375 56 49.78125 48.890625 
Q 56.203125 41.796875 56.203125 29.59375 
z
M 47.21875 32.234375 
Q 47.125 39.59375 43.09375 43.984375 
Q 39.0625 48.390625 32.421875 48.390625 
Q 24.90625 48.390625 20.390625 44.140625 
Q 15.875 39.890625 15.1875 32.171875 
z
" id="DejaVuSans-101"/>
      <path d="M 54.890625 33.015625 
L 54.890625 0 
L 45.90625 0 
L 45.90625 32.71875 
Q 45.90625 40.484375 42.875 44.328125 
Q 39.84375 48.1875 33.796875 48.1875 
Q 26.515625 48.1875 22.3125 43.546875 
Q 18.109375 38.921875 18.109375 30.90625 
L 18.109375 0 
L 9.078125 0 
L 9.078125 54.6875 
L 18.109375 54.6875 
L 18.109375 46.1875 
Q 21.34375 51.125 25.703125 53.5625 
Q 30.078125 56 35.796875 56 
Q 45.21875 56 50.046875 50.171875 
Q 54.890625 44.34375 54.890625 33.015625 
z
" id="DejaVuSans-110"/>
      <path d="M 44.28125 53.078125 
L 44.28125 44.578125 
Q 40.484375 46.53125 36.375 47.5 
Q 32.28125 48.484375 27.875 48.484375 
Q 21.1875 48.484375 17.84375 46.4375 
Q 14.5 44.390625 14.5 40.28125 
Q 14.5 37.15625 16.890625 35.375 
Q 19.28125 33.59375 26.515625 31.984375 
L 29.59375 31.296875 
Q 39.15625 29.25 43.1875 25.515625 
Q 47.21875 21.78125 47.21875 15.09375 
Q 47.21875 7.46875 41.1875 3.015625 
Q 35.15625 -1.421875 24.609375 -1.421875 
Q 20.21875 -1.421875 15.453125 -0.5625 
Q 10.6875 0.296875 5.421875 2 
L 5.421875 11.28125 
Q 10.40625 8.6875 15.234375 7.390625 
Q 20.0625 6.109375 24.8125 6.109375 
Q 31.15625 6.109375 34.5625 8.28125 
Q 37.984375 10.453125 37.984375 14.40625 
Q 37.984375 18.0625 35.515625 20.015625 
Q 33.0625 21.96875 24.703125 23.78125 
L 21.578125 24.515625 
Q 13.234375 26.265625 9.515625 29.90625 
Q 5.8125 33.546875 5.8125 39.890625 
Q 5.8125 47.609375 11.28125 51.796875 
Q 16.75 56 26.8125 56 
Q 31.78125 56 36.171875 55.265625 
Q 40.578125 54.546875 44.28125 53.078125 
z
" id="DejaVuSans-115"/>
      <path d="M 18.3125 70.21875 
L 18.3125 54.6875 
L 36.8125 54.6875 
L 36.8125 47.703125 
L 18.3125 47.703125 
L 18.3125 18.015625 
Q 18.3125 11.328125 20.140625 9.421875 
Q 21.96875 7.515625 27.59375 7.515625 
L 36.8125 7.515625 
L 36.8125 0 
L 27.59375 0 
Q 17.1875 0 13.234375 3.875 
Q 9.28125 7.765625 9.28125 18.015625 
L 9.28125 47.703125 
L 2.6875 47.703125 
L 2.6875 54.6875 
L 9.28125 54.6875 
L 9.28125 70.21875 
z
" id="DejaVuSans-116"/>
      <path d="M 31 75.875 
Q 24.46875 64.65625 21.28125 53.65625 
Q 18.109375 42.671875 18.109375 31.390625 
Q 18.109375 20.125 21.3125 9.0625 
Q 24.515625 -2 31 -13.1875 
L 23.1875 -13.1875 
Q 15.875 -1.703125 12.234375 9.375 
Q 8.59375 20.453125 8.59375 31.390625 
Q 8.59375 42.28125 12.203125 53.3125 
Q 15.828125 64.359375 23.1875 75.875 
z
" id="DejaVuSans-40"/>
      <path d="M 51.125 -9.28125 
L 51.125 -16.3125 
L 48.09375 -16.3125 
Q 35.9375 -16.3125 31.8125 -12.6875 
Q 27.6875 -9.078125 27.6875 1.703125 
L 27.6875 13.375 
Q 27.6875 20.75 25.046875 23.578125 
Q 22.40625 26.421875 15.484375 26.421875 
L 12.5 26.421875 
L 12.5 33.40625 
L 15.484375 33.40625 
Q 22.46875 33.40625 25.078125 36.203125 
Q 27.6875 39.015625 27.6875 46.296875 
L 27.6875 58.015625 
Q 27.6875 68.796875 31.8125 72.390625 
Q 35.9375 75.984375 48.09375 75.984375 
L 51.125 75.984375 
L 51.125 69 
L 47.796875 69 
Q 40.921875 69 38.8125 66.84375 
Q 36.71875 64.703125 36.71875 57.8125 
L 36.71875 45.703125 
Q 36.71875 38.03125 34.5 34.5625 
Q 32.28125 31.109375 26.90625 29.890625 
Q 32.328125 28.5625 34.515625 25.09375 
Q 36.71875 21.625 36.71875 14.015625 
L 36.71875 1.90625 
Q 36.71875 -4.984375 38.8125 -7.125 
Q 40.921875 -9.28125 47.796875 -9.28125 
z
" id="DejaVuSans-123"/>
      <path d="M 17.921875 72.90625 
L 17.921875 45.796875 
L 9.625 45.796875 
L 9.625 72.90625 
z
" id="DejaVuSans-39"/>
      <path d="M 17.921875 72.90625 
L 17.921875 45.796875 
L 9.625 45.796875 
L 9.625 72.90625 
z
M 36.375 72.90625 
L 36.375 45.796875 
L 28.078125 45.796875 
L 28.078125 72.90625 
z
" id="DejaVuSans-34"/>
      <path d="M 9.8125 72.90625 
L 19.671875 72.90625 
L 19.671875 8.296875 
L 55.171875 8.296875 
L 55.171875 0 
L 9.8125 0 
z
" id="DejaVuSans-76"/>
      <path d="M 9.8125 72.90625 
L 23.09375 72.90625 
L 55.421875 11.921875 
L 55.421875 72.90625 
L 64.984375 72.90625 
L 64.984375 0 
L 51.703125 0 
L 19.390625 60.984375 
L 19.390625 0 
L 9.8125 0 
z
" id="DejaVuSans-78"/>
      <path d="M 59.515625 10.40625 
L 59.515625 29.984375 
L 43.40625 29.984375 
L 43.40625 38.09375 
L 69.28125 38.09375 
L 69.28125 6.78125 
Q 63.578125 2.734375 56.6875 0.65625 
Q 49.8125 -1.421875 42 -1.421875 
Q 24.90625 -1.421875 15.25 8.5625 
Q 5.609375 18.5625 5.609375 36.375 
Q 5.609375 54.25 15.25 64.234375 
Q 24.90625 74.21875 42 74.21875 
Q 49.125 74.21875 55.546875 72.453125 
Q 61.96875 70.703125 67.390625 67.28125 
L 67.390625 56.78125 
Q 61.921875 61.421875 55.765625 63.765625 
Q 49.609375 66.109375 42.828125 66.109375 
Q 29.4375 66.109375 22.71875 58.640625 
Q 16.015625 51.171875 16.015625 36.375 
Q 16.015625 21.625 22.71875 14.15625 
Q 29.4375 6.6875 42.828125 6.6875 
Q 48.046875 6.6875 52.140625 7.59375 
Q 56.25 8.5 59.515625 10.40625 
z
" id="DejaVuSans-71"/>
      <path d="M 11.71875 12.40625 
L 22.015625 12.40625 
L 22.015625 4 
L 14.015625 -11.625 
L 7.71875 -11.625 
L 11.71875 4 
z
" id="DejaVuSans-44"/>
      <path id="DejaVuSans-32"/>
      <path d="M 53.515625 70.515625 
L 53.515625 60.890625 
Q 47.90625 63.578125 42.921875 64.890625 
Q 37.9375 66.21875 33.296875 66.21875 
Q 25.25 66.21875 20.875 63.09375 
Q 16.5 59.96875 16.5 54.203125 
Q 16.5 49.359375 19.40625 46.890625 
Q 22.3125 44.4375 30.421875 42.921875 
L 36.375 41.703125 
Q 47.40625 39.59375 52.65625 34.296875 
Q 57.90625 29 57.90625 20.125 
Q 57.90625 9.515625 50.796875 4.046875 
Q 43.703125 -1.421875 29.984375 -1.421875 
Q 24.8125 -1.421875 18.96875 -0.25 
Q 13.140625 0.921875 6.890625 3.21875 
L 6.890625 13.375 
Q 12.890625 10.015625 18.65625 8.296875 
Q 24.421875 6.59375 29.984375 6.59375 
Q 38.421875 6.59375 43.015625 9.90625 
Q 47.609375 13.234375 47.609375 19.390625 
Q 47.609375 24.75 44.3125 27.78125 
Q 41.015625 30.8125 33.5 32.328125 
L 27.484375 33.5 
Q 16.453125 35.6875 11.515625 40.375 
Q 6.59375 45.0625 6.59375 53.421875 
Q 6.59375 63.09375 13.40625 68.65625 
Q 20.21875 74.21875 32.171875 74.21875 
Q 37.3125 74.21875 42.625 73.28125 
Q 47.953125 72.359375 53.515625 70.515625 
z
" id="DejaVuSans-83"/>
      <path d="M 4.203125 54.6875 
L 13.1875 54.6875 
L 24.421875 12.015625 
L 35.59375 54.6875 
L 46.1875 54.6875 
L 57.421875 12.015625 
L 68.609375 54.6875 
L 77.59375 54.6875 
L 63.28125 0 
L 52.6875 0 
L 40.921875 44.828125 
L 29.109375 0 
L 18.5 0 
z
" id="DejaVuSans-119"/>
      <path d="M 9.421875 54.6875 
L 18.40625 54.6875 
L 18.40625 0 
L 9.421875 0 
z
M 9.421875 75.984375 
L 18.40625 75.984375 
L 18.40625 64.59375 
L 9.421875 64.59375 
z
" id="DejaVuSans-105"/>
      <path d="M 9.421875 75.984375 
L 18.40625 75.984375 
L 18.40625 0 
L 9.421875 0 
z
" id="DejaVuSans-108"/>
      <path d="M 34.28125 27.484375 
Q 23.390625 27.484375 19.1875 25 
Q 14.984375 22.515625 14.984375 16.5 
Q 14.984375 11.71875 18.140625 8.90625 
Q 21.296875 6.109375 26.703125 6.109375 
Q 34.1875 6.109375 38.703125 11.40625 
Q 43.21875 16.703125 43.21875 25.484375 
L 43.21875 27.484375 
z
M 52.203125 31.203125 
L 52.203125 0 
L 43.21875 0 
L 43.21875 8.296875 
Q 40.140625 3.328125 35.546875 0.953125 
Q 30.953125 -1.421875 24.3125 -1.421875 
Q 15.921875 -1.421875 10.953125 3.296875 
Q 6 8.015625 6 15.921875 
Q 6 25.140625 12.171875 29.828125 
Q 18.359375 34.515625 30.609375 34.515625 
L 43.21875 34.515625 
L 43.21875 35.40625 
Q 43.21875 41.609375 39.140625 45 
Q 35.0625 48.390625 27.6875 48.390625 
Q 23 48.390625 18.546875 47.265625 
Q 14.109375 46.140625 10.015625 43.890625 
L 10.015625 52.203125 
Q 14.9375 54.109375 19.578125 55.046875 
Q 24.21875 56 28.609375 56 
Q 40.484375 56 46.34375 49.84375 
Q 52.203125 43.703125 52.203125 31.203125 
z
" id="DejaVuSans-97"/>
      <path d="M 45.40625 46.390625 
L 45.40625 75.984375 
L 54.390625 75.984375 
L 54.390625 0 
L 45.40625 0 
L 45.40625 8.203125 
Q 42.578125 3.328125 38.25 0.953125 
Q 33.9375 -1.421875 27.875 -1.421875 
Q 17.96875 -1.421875 11.734375 6.484375 
Q 5.515625 14.40625 5.515625 27.296875 
Q 5.515625 40.1875 11.734375 48.09375 
Q 17.96875 56 27.875 56 
Q 33.9375 56 38.25 53.625 
Q 42.578125 51.265625 45.40625 46.390625 
z
M 14.796875 27.296875 
Q 14.796875 17.390625 18.875 11.75 
Q 22.953125 6.109375 30.078125 6.109375 
Q 37.203125 6.109375 41.296875 11.75 
Q 45.40625 17.390625 45.40625 27.296875 
Q 45.40625 37.203125 41.296875 42.84375 
Q 37.203125 48.484375 30.078125 48.484375 
Q 22.953125 48.484375 18.875 42.84375 
Q 14.796875 37.203125 14.796875 27.296875 
z
" id="DejaVuSans-100"/>
      <path d="M 9.8125 72.90625 
L 19.671875 72.90625 
L 19.671875 0 
L 9.8125 0 
z
" id="DejaVuSans-73"/>
      <path d="M 32.171875 -5.078125 
Q 28.375 -14.84375 24.75 -17.8125 
Q 21.140625 -20.796875 15.09375 -20.796875 
L 7.90625 -20.796875 
L 7.90625 -13.28125 
L 13.1875 -13.28125 
Q 16.890625 -13.28125 18.9375 -11.515625 
Q 21 -9.765625 23.484375 -3.21875 
L 25.09375 0.875 
L 2.984375 54.6875 
L 12.5 54.6875 
L 29.59375 11.921875 
L 46.6875 54.6875 
L 56.203125 54.6875 
z
" id="DejaVuSans-121"/>
      <path d="M 52 44.1875 
Q 55.375 50.25 60.0625 53.125 
Q 64.75 56 71.09375 56 
Q 79.640625 56 84.28125 50.015625 
Q 88.921875 44.046875 88.921875 33.015625 
L 88.921875 0 
L 79.890625 0 
L 79.890625 32.71875 
Q 79.890625 40.578125 77.09375 44.375 
Q 74.3125 48.1875 68.609375 48.1875 
Q 61.625 48.1875 57.5625 43.546875 
Q 53.515625 38.921875 53.515625 30.90625 
L 53.515625 0 
L 44.484375 0 
L 44.484375 32.71875 
Q 44.484375 40.625 41.703125 44.40625 
Q 38.921875 48.1875 33.109375 48.1875 
Q 26.21875 48.1875 22.15625 43.53125 
Q 18.109375 38.875 18.109375 30.90625 
L 18.109375 0 
L 9.078125 0 
L 9.078125 54.6875 
L 18.109375 54.6875 
L 18.109375 46.1875 
Q 21.1875 51.21875 25.484375 53.609375 
Q 29.78125 56 35.6875 56 
Q 41.65625 56 45.828125 52.96875 
Q 50 49.953125 52 44.1875 
z
" id="DejaVuSans-109"/>
      <path d="M 12.5 -9.28125 
L 15.921875 -9.28125 
Q 22.75 -9.28125 24.828125 -7.171875 
Q 26.90625 -5.078125 26.90625 1.90625 
L 26.90625 14.015625 
Q 26.90625 21.625 29.09375 25.09375 
Q 31.296875 28.5625 36.71875 29.890625 
Q 31.296875 31.109375 29.09375 34.5625 
Q 26.90625 38.03125 26.90625 45.703125 
L 26.90625 57.8125 
Q 26.90625 64.75 24.828125 66.875 
Q 22.75 69 15.921875 69 
L 12.5 69 
L 12.5 75.984375 
L 15.578125 75.984375 
Q 27.734375 75.984375 31.8125 72.390625 
Q 35.890625 68.796875 35.890625 58.015625 
L 35.890625 46.296875 
Q 35.890625 39.015625 38.515625 36.203125 
Q 41.15625 33.40625 48.09375 33.40625 
L 51.125 33.40625 
L 51.125 26.421875 
L 48.09375 26.421875 
Q 41.15625 26.421875 38.515625 23.578125 
Q 35.890625 20.75 35.890625 13.375 
L 35.890625 1.703125 
Q 35.890625 -9.078125 31.8125 -12.6875 
Q 27.734375 -16.3125 15.578125 -16.3125 
L 12.5 -16.3125 
z
" id="DejaVuSans-125"/>
      <path d="M 8.015625 75.875 
L 15.828125 75.875 
Q 23.140625 64.359375 26.78125 53.3125 
Q 30.421875 42.28125 30.421875 31.390625 
Q 30.421875 20.453125 26.78125 9.375 
Q 23.140625 -1.703125 15.828125 -13.1875 
L 8.015625 -13.1875 
Q 14.5 -2 17.703125 9.0625 
Q 20.90625 20.125 20.90625 31.390625 
Q 20.90625 42.671875 17.703125 53.65625 
Q 14.5 64.65625 8.015625 75.875 
z
" id="DejaVuSans-41"/>
     </defs>
     <g transform="translate(143.84236 73.593861)scale(0.06 -0.06)">
      <use xlink:href="#DejaVuSans-102"/>
      <use x="35.205078" xlink:href="#DejaVuSans-114"/>
      <use x="76.287109" xlink:href="#DejaVuSans-111"/>
      <use x="137.46875" xlink:href="#DejaVuSans-122"/>
      <use x="189.958984" xlink:href="#DejaVuSans-101"/>
      <use x="251.482422" xlink:href="#DejaVuSans-110"/>
      <use x="314.861328" xlink:href="#DejaVuSans-115"/>
      <use x="366.960938" xlink:href="#DejaVuSans-101"/>
      <use x="428.484375" xlink:href="#DejaVuSans-116"/>
      <use x="467.693359" xlink:href="#DejaVuSans-40"/>
      <use x="506.707031" xlink:href="#DejaVuSans-123"/>
      <use x="570.330078" xlink:href="#DejaVuSans-39"/>
      <use x="597.820312" xlink:href="#DejaVuSans-34"/>
      <use x="643.816406" xlink:href="#DejaVuSans-76"/>
      <use x="699.529297" xlink:href="#DejaVuSans-78"/>
      <use x="774.333984" xlink:href="#DejaVuSans-71"/>
      <use x="851.824219" xlink:href="#DejaVuSans-34"/>
      <use x="897.820312" xlink:href="#DejaVuSans-39"/>
      <use x="925.310547" xlink:href="#DejaVuSans-44"/>
      <use x="957.097656" xlink:href="#DejaVuSans-32"/>
      <use x="988.884766" xlink:href="#DejaVuSans-39"/>
      <use x="1016.375" xlink:href="#DejaVuSans-34"/>
      <use x="1062.371094" xlink:href="#DejaVuSans-83"/>
      <use x="1125.847656" xlink:href="#DejaVuSans-119"/>
      <use x="1207.634766" xlink:href="#DejaVuSans-105"/>
      <use x="1235.417969" xlink:href="#DejaVuSans-116"/>
      <use x="1274.626953" xlink:href="#DejaVuSans-122"/>
      <use x="1327.117188" xlink:href="#DejaVuSans-101"/>
      <use x="1388.640625" xlink:href="#DejaVuSans-114"/>
      <use x="1429.753906" xlink:href="#DejaVuSans-108"/>
      <use x="1457.537109" xlink:href="#DejaVuSans-97"/>
      <use x="1518.816406" xlink:href="#DejaVuSans-110"/>
      <use x="1582.195312" xlink:href="#DejaVuSans-100"/>
      <use x="1645.671875" xlink:href="#DejaVuSans-34"/>
      <use x="1691.667969" xlink:href="#DejaVuSans-39"/>
      <use x="1719.158203" xlink:href="#DejaVuSans-44"/>
      <use x="1750.945312" xlink:href="#DejaVuSans-32"/>
      <use x="1782.732422" xlink:href="#DejaVuSans-39"/>
      <use x="1810.222656" xlink:href="#DejaVuSans-34"/>
      <use x="1856.21875" xlink:href="#DejaVuSans-73"/>
      <use x="1885.710938" xlink:href="#DejaVuSans-116"/>
      <use x="1924.919922" xlink:href="#DejaVuSans-97"/>
      <use x="1986.199219" xlink:href="#DejaVuSans-108"/>
      <use x="2013.982422" xlink:href="#DejaVuSans-121"/>
      <use x="2073.162109" xlink:href="#DejaVuSans-34"/>
      <use x="2119.158203" xlink:href="#DejaVuSans-39"/>
      <use x="2146.648438" xlink:href="#DejaVuSans-44"/>
      <use x="2178.435547" xlink:href="#DejaVuSans-32"/>
      <use x="2210.222656" xlink:href="#DejaVuSans-39"/>
      <use x="2237.712891" xlink:href="#DejaVuSans-34"/>
      <use x="2283.708984" xlink:href="#DejaVuSans-71"/>
      <use x="2361.199219" xlink:href="#DejaVuSans-101"/>
      <use x="2422.722656" xlink:href="#DejaVuSans-114"/>
      <use x="2463.820312" xlink:href="#DejaVuSans-109"/>
      <use x="2561.232422" xlink:href="#DejaVuSans-97"/>
      <use x="2622.511719" xlink:href="#DejaVuSans-110"/>
      <use x="2685.890625" xlink:href="#DejaVuSans-121"/>
      <use x="2745.070312" xlink:href="#DejaVuSans-34"/>
      <use x="2791.066406" xlink:href="#DejaVuSans-39"/>
      <use x="2818.556641" xlink:href="#DejaVuSans-125"/>
      <use x="2882.179688" xlink:href="#DejaVuSans-41"/>
     </g>
    </g>
   </g>
   <g id="text_2">
    <g clip-path="url(#p493fade688)">
     <!-- frozenset({'"LNG"', '"Switzerland"', '"Germany"', '"France"'}) -->
     <defs>
      <path d="M 9.8125 72.90625 
L 51.703125 72.90625 
L 51.703125 64.59375 
L 19.671875 64.59375 
L 19.671875 43.109375 
L 48.578125 43.109375 
L 48.578125 34.8125 
L 19.671875 34.8125 
L 19.671875 0 
L 9.8125 0 
z
" id="DejaVuSans-70"/>
      <path d="M 48.78125 52.59375 
L 48.78125 44.1875 
Q 44.96875 46.296875 41.140625 47.34375 
Q 37.3125 48.390625 33.40625 48.390625 
Q 24.65625 48.390625 19.8125 42.84375 
Q 14.984375 37.3125 14.984375 27.296875 
Q 14.984375 17.28125 19.8125 11.734375 
Q 24.65625 6.203125 33.40625 6.203125 
Q 37.3125 6.203125 41.140625 7.25 
Q 44.96875 8.296875 48.78125 10.40625 
L 48.78125 2.09375 
Q 45.015625 0.34375 40.984375 -0.53125 
Q 36.96875 -1.421875 32.421875 -1.421875 
Q 20.0625 -1.421875 12.78125 6.34375 
Q 5.515625 14.109375 5.515625 27.296875 
Q 5.515625 40.671875 12.859375 48.328125 
Q 20.21875 56 33.015625 56 
Q 37.15625 56 41.109375 55.140625 
Q 45.0625 54.296875 48.78125 52.59375 
z
" id="DejaVuSans-99"/>
     </defs>
     <g transform="translate(346.916917 17.926626)scale(0.06 -0.06)">
      <use xlink:href="#DejaVuSans-102"/>
      <use x="35.205078" xlink:href="#DejaVuSans-114"/>
      <use x="76.287109" xlink:href="#DejaVuSans-111"/>
      <use x="137.46875" xlink:href="#DejaVuSans-122"/>
      <use x="189.958984" xlink:href="#DejaVuSans-101"/>
      <use x="251.482422" xlink:href="#DejaVuSans-110"/>
      <use x="314.861328" xlink:href="#DejaVuSans-115"/>
      <use x="366.960938" xlink:href="#DejaVuSans-101"/>
      <use x="428.484375" xlink:href="#DejaVuSans-116"/>
      <use x="467.693359" xlink:href="#DejaVuSans-40"/>
      <use x="506.707031" xlink:href="#DejaVuSans-123"/>
      <use x="570.330078" xlink:href="#DejaVuSans-39"/>
      <use x="597.820312" xlink:href="#DejaVuSans-34"/>
      <use x="643.816406" xlink:href="#DejaVuSans-76"/>
      <use x="699.529297" xlink:href="#DejaVuSans-78"/>
      <use x="774.333984" xlink:href="#DejaVuSans-71"/>
      <use x="851.824219" xlink:href="#DejaVuSans-34"/>
      <use x="897.820312" xlink:href="#DejaVuSans-39"/>
      <use x="925.310547" xlink:href="#DejaVuSans-44"/>
      <use x="957.097656" xlink:href="#DejaVuSans-32"/>
      <use x="988.884766" xlink:href="#DejaVuSans-39"/>
      <use x="1016.375" xlink:href="#DejaVuSans-34"/>
      <use x="1062.371094" xlink:href="#DejaVuSans-83"/>
      <use x="1125.847656" xlink:href="#DejaVuSans-119"/>
      <use x="1207.634766" xlink:href="#DejaVuSans-105"/>
      <use x="1235.417969" xlink:href="#DejaVuSans-116"/>
      <use x="1274.626953" xlink:href="#DejaVuSans-122"/>
      <use x="1327.117188" xlink:href="#DejaVuSans-101"/>
      <use x="1388.640625" xlink:href="#DejaVuSans-114"/>
      <use x="1429.753906" xlink:href="#DejaVuSans-108"/>
      <use x="1457.537109" xlink:href="#DejaVuSans-97"/>
      <use x="1518.816406" xlink:href="#DejaVuSans-110"/>
      <use x="1582.195312" xlink:href="#DejaVuSans-100"/>
      <use x="1645.671875" xlink:href="#DejaVuSans-34"/>
      <use x="1691.667969" xlink:href="#DejaVuSans-39"/>
      <use x="1719.158203" xlink:href="#DejaVuSans-44"/>
      <use x="1750.945312" xlink:href="#DejaVuSans-32"/>
      <use x="1782.732422" xlink:href="#DejaVuSans-39"/>
      <use x="1810.222656" xlink:href="#DejaVuSans-34"/>
      <use x="1856.21875" xlink:href="#DejaVuSans-71"/>
      <use x="1933.708984" xlink:href="#DejaVuSans-101"/>
      <use x="1995.232422" xlink:href="#DejaVuSans-114"/>
      <use x="2036.330078" xlink:href="#DejaVuSans-109"/>
      <use x="2133.742188" xlink:href="#DejaVuSans-97"/>
      <use x="2195.021484" xlink:href="#DejaVuSans-110"/>
      <use x="2258.400391" xlink:href="#DejaVuSans-121"/>
      <use x="2317.580078" xlink:href="#DejaVuSans-34"/>
      <use x="2363.576172" xlink:href="#DejaVuSans-39"/>
      <use x="2391.066406" xlink:href="#DejaVuSans-44"/>
      <use x="2422.853516" xlink:href="#DejaVuSans-32"/>
      <use x="2454.640625" xlink:href="#DejaVuSans-39"/>
      <use x="2482.130859" xlink:href="#DejaVuSans-34"/>
      <use x="2528.126953" xlink:href="#DejaVuSans-70"/>
      <use x="2585.537109" xlink:href="#DejaVuSans-114"/>
      <use x="2626.650391" xlink:href="#DejaVuSans-97"/>
      <use x="2687.929688" xlink:href="#DejaVuSans-110"/>
      <use x="2751.308594" xlink:href="#DejaVuSans-99"/>
      <use x="2806.289062" xlink:href="#DejaVuSans-101"/>
      <use x="2867.8125" xlink:href="#DejaVuSans-34"/>
      <use x="2913.808594" xlink:href="#DejaVuSans-39"/>
      <use x="2941.298828" xlink:href="#DejaVuSans-125"/>
      <use x="3004.921875" xlink:href="#DejaVuSans-41"/>
     </g>
    </g>
   </g>
   <g id="text_3">
    <g clip-path="url(#p493fade688)">
     <!-- frozenset({'"Switzerland"', '"Austria"', '"Italy"', '"Germany"'}) -->
     <defs>
      <path d="M 34.1875 63.1875 
L 20.796875 26.90625 
L 47.609375 26.90625 
z
M 28.609375 72.90625 
L 39.796875 72.90625 
L 67.578125 0 
L 57.328125 0 
L 50.6875 18.703125 
L 17.828125 18.703125 
L 11.1875 0 
L 0.78125 0 
z
" id="DejaVuSans-65"/>
      <path d="M 8.5 21.578125 
L 8.5 54.6875 
L 17.484375 54.6875 
L 17.484375 21.921875 
Q 17.484375 14.15625 20.5 10.265625 
Q 23.53125 6.390625 29.59375 6.390625 
Q 36.859375 6.390625 41.078125 11.03125 
Q 45.3125 15.671875 45.3125 23.6875 
L 45.3125 54.6875 
L 54.296875 54.6875 
L 54.296875 0 
L 45.3125 0 
L 45.3125 8.40625 
Q 42.046875 3.421875 37.71875 1 
Q 33.40625 -1.421875 27.6875 -1.421875 
Q 18.265625 -1.421875 13.375 4.4375 
Q 8.5 10.296875 8.5 21.578125 
z
M 31.109375 56 
z
" id="DejaVuSans-117"/>
     </defs>
     <g transform="translate(-69.425355 18.890069)scale(0.06 -0.06)">
      <use xlink:href="#DejaVuSans-102"/>
      <use x="35.205078" xlink:href="#DejaVuSans-114"/>
      <use x="76.287109" xlink:href="#DejaVuSans-111"/>
      <use x="137.46875" xlink:href="#DejaVuSans-122"/>
      <use x="189.958984" xlink:href="#DejaVuSans-101"/>
      <use x="251.482422" xlink:href="#DejaVuSans-110"/>
      <use x="314.861328" xlink:href="#DejaVuSans-115"/>
      <use x="366.960938" xlink:href="#DejaVuSans-101"/>
      <use x="428.484375" xlink:href="#DejaVuSans-116"/>
      <use x="467.693359" xlink:href="#DejaVuSans-40"/>
      <use x="506.707031" xlink:href="#DejaVuSans-123"/>
      <use x="570.330078" xlink:href="#DejaVuSans-39"/>
      <use x="597.820312" xlink:href="#DejaVuSans-34"/>
      <use x="643.816406" xlink:href="#DejaVuSans-83"/>
      <use x="707.292969" xlink:href="#DejaVuSans-119"/>
      <use x="789.080078" xlink:href="#DejaVuSans-105"/>
      <use x="816.863281" xlink:href="#DejaVuSans-116"/>
      <use x="856.072266" xlink:href="#DejaVuSans-122"/>
      <use x="908.5625" xlink:href="#DejaVuSans-101"/>
      <use x="970.085938" xlink:href="#DejaVuSans-114"/>
      <use x="1011.199219" xlink:href="#DejaVuSans-108"/>
      <use x="1038.982422" xlink:href="#DejaVuSans-97"/>
      <use x="1100.261719" xlink:href="#DejaVuSans-110"/>
      <use x="1163.640625" xlink:href="#DejaVuSans-100"/>
      <use x="1227.117188" xlink:href="#DejaVuSans-34"/>
      <use x="1273.113281" xlink:href="#DejaVuSans-39"/>
      <use x="1300.603516" xlink:href="#DejaVuSans-44"/>
      <use x="1332.390625" xlink:href="#DejaVuSans-32"/>
      <use x="1364.177734" xlink:href="#DejaVuSans-39"/>
      <use x="1391.667969" xlink:href="#DejaVuSans-34"/>
      <use x="1437.664062" xlink:href="#DejaVuSans-65"/>
      <use x="1506.072266" xlink:href="#DejaVuSans-117"/>
      <use x="1569.451172" xlink:href="#DejaVuSans-115"/>
      <use x="1621.550781" xlink:href="#DejaVuSans-116"/>
      <use x="1660.759766" xlink:href="#DejaVuSans-114"/>
      <use x="1701.873047" xlink:href="#DejaVuSans-105"/>
      <use x="1729.65625" xlink:href="#DejaVuSans-97"/>
      <use x="1790.935547" xlink:href="#DejaVuSans-34"/>
      <use x="1836.931641" xlink:href="#DejaVuSans-39"/>
      <use x="1864.421875" xlink:href="#DejaVuSans-44"/>
      <use x="1896.208984" xlink:href="#DejaVuSans-32"/>
      <use x="1927.996094" xlink:href="#DejaVuSans-39"/>
      <use x="1955.486328" xlink:href="#DejaVuSans-34"/>
      <use x="2001.482422" xlink:href="#DejaVuSans-73"/>
      <use x="2030.974609" xlink:href="#DejaVuSans-116"/>
      <use x="2070.183594" xlink:href="#DejaVuSans-97"/>
      <use x="2131.462891" xlink:href="#DejaVuSans-108"/>
      <use x="2159.246094" xlink:href="#DejaVuSans-121"/>
      <use x="2218.425781" xlink:href="#DejaVuSans-34"/>
      <use x="2264.421875" xlink:href="#DejaVuSans-39"/>
      <use x="2291.912109" xlink:href="#DejaVuSans-44"/>
      <use x="2323.699219" xlink:href="#DejaVuSans-32"/>
      <use x="2355.486328" xlink:href="#DejaVuSans-39"/>
      <use x="2382.976562" xlink:href="#DejaVuSans-34"/>
      <use x="2428.972656" xlink:href="#DejaVuSans-71"/>
      <use x="2506.462891" xlink:href="#DejaVuSans-101"/>
      <use x="2567.986328" xlink:href="#DejaVuSans-114"/>
      <use x="2609.083984" xlink:href="#DejaVuSans-109"/>
      <use x="2706.496094" xlink:href="#DejaVuSans-97"/>
      <use x="2767.775391" xlink:href="#DejaVuSans-110"/>
      <use x="2831.154297" xlink:href="#DejaVuSans-121"/>
      <use x="2890.333984" xlink:href="#DejaVuSans-34"/>
      <use x="2936.330078" xlink:href="#DejaVuSans-39"/>
      <use x="2963.820312" xlink:href="#DejaVuSans-125"/>
      <use x="3027.443359" xlink:href="#DejaVuSans-41"/>
     </g>
    </g>
   </g>
   <g id="text_4">
    <g clip-path="url(#p493fade688)">
     <!-- frozenset({'"LNG"', '"Germany"', '"Netherlands"'}) -->
     <defs>
      <path d="M 54.890625 33.015625 
L 54.890625 0 
L 45.90625 0 
L 45.90625 32.71875 
Q 45.90625 40.484375 42.875 44.328125 
Q 39.84375 48.1875 33.796875 48.1875 
Q 26.515625 48.1875 22.3125 43.546875 
Q 18.109375 38.921875 18.109375 30.90625 
L 18.109375 0 
L 9.078125 0 
L 9.078125 75.984375 
L 18.109375 75.984375 
L 18.109375 46.1875 
Q 21.34375 51.125 25.703125 53.5625 
Q 30.078125 56 35.796875 56 
Q 45.21875 56 50.046875 50.171875 
Q 54.890625 44.34375 54.890625 33.015625 
z
" id="DejaVuSans-104"/>
     </defs>
     <g transform="translate(160.003166 167.171472)scale(0.06 -0.06)">
      <use xlink:href="#DejaVuSans-102"/>
      <use x="35.205078" xlink:href="#DejaVuSans-114"/>
      <use x="76.287109" xlink:href="#DejaVuSans-111"/>
      <use x="137.46875" xlink:href="#DejaVuSans-122"/>
      <use x="189.958984" xlink:href="#DejaVuSans-101"/>
      <use x="251.482422" xlink:href="#DejaVuSans-110"/>
      <use x="314.861328" xlink:href="#DejaVuSans-115"/>
      <use x="366.960938" xlink:href="#DejaVuSans-101"/>
      <use x="428.484375" xlink:href="#DejaVuSans-116"/>
      <use x="467.693359" xlink:href="#DejaVuSans-40"/>
      <use x="506.707031" xlink:href="#DejaVuSans-123"/>
      <use x="570.330078" xlink:href="#DejaVuSans-39"/>
      <use x="597.820312" xlink:href="#DejaVuSans-34"/>
      <use x="643.816406" xlink:href="#DejaVuSans-76"/>
      <use x="699.529297" xlink:href="#DejaVuSans-78"/>
      <use x="774.333984" xlink:href="#DejaVuSans-71"/>
      <use x="851.824219" xlink:href="#DejaVuSans-34"/>
      <use x="897.820312" xlink:href="#DejaVuSans-39"/>
      <use x="925.310547" xlink:href="#DejaVuSans-44"/>
      <use x="957.097656" xlink:href="#DejaVuSans-32"/>
      <use x="988.884766" xlink:href="#DejaVuSans-39"/>
      <use x="1016.375" xlink:href="#DejaVuSans-34"/>
      <use x="1062.371094" xlink:href="#DejaVuSans-71"/>
      <use x="1139.861328" xlink:href="#DejaVuSans-101"/>
      <use x="1201.384766" xlink:href="#DejaVuSans-114"/>
      <use x="1242.482422" xlink:href="#DejaVuSans-109"/>
      <use x="1339.894531" xlink:href="#DejaVuSans-97"/>
      <use x="1401.173828" xlink:href="#DejaVuSans-110"/>
      <use x="1464.552734" xlink:href="#DejaVuSans-121"/>
      <use x="1523.732422" xlink:href="#DejaVuSans-34"/>
      <use x="1569.728516" xlink:href="#DejaVuSans-39"/>
      <use x="1597.21875" xlink:href="#DejaVuSans-44"/>
      <use x="1629.005859" xlink:href="#DejaVuSans-32"/>
      <use x="1660.792969" xlink:href="#DejaVuSans-39"/>
      <use x="1688.283203" xlink:href="#DejaVuSans-34"/>
      <use x="1734.279297" xlink:href="#DejaVuSans-78"/>
      <use x="1809.083984" xlink:href="#DejaVuSans-101"/>
      <use x="1870.607422" xlink:href="#DejaVuSans-116"/>
      <use x="1909.816406" xlink:href="#DejaVuSans-104"/>
      <use x="1973.195312" xlink:href="#DejaVuSans-101"/>
      <use x="2034.71875" xlink:href="#DejaVuSans-114"/>
      <use x="2075.832031" xlink:href="#DejaVuSans-108"/>
      <use x="2103.615234" xlink:href="#DejaVuSans-97"/>
      <use x="2164.894531" xlink:href="#DejaVuSans-110"/>
      <use x="2228.273438" xlink:href="#DejaVuSans-100"/>
      <use x="2291.75" xlink:href="#DejaVuSans-115"/>
      <use x="2343.849609" xlink:href="#DejaVuSans-34"/>
      <use x="2389.845703" xlink:href="#DejaVuSans-39"/>
      <use x="2417.335938" xlink:href="#DejaVuSans-125"/>
      <use x="2480.958984" xlink:href="#DejaVuSans-41"/>
     </g>
    </g>
   </g>
   <g id="text_5">
    <g clip-path="url(#p493fade688)">
     <!-- frozenset({'"Netherlands"', '"Germany"', '"Ukraine"'}) -->
     <defs>
      <path d="M 8.6875 72.90625 
L 18.609375 72.90625 
L 18.609375 28.609375 
Q 18.609375 16.890625 22.84375 11.734375 
Q 27.09375 6.59375 36.625 6.59375 
Q 46.09375 6.59375 50.34375 11.734375 
Q 54.59375 16.890625 54.59375 28.609375 
L 54.59375 72.90625 
L 64.5 72.90625 
L 64.5 27.390625 
Q 64.5 13.140625 57.4375 5.859375 
Q 50.390625 -1.421875 36.625 -1.421875 
Q 22.796875 -1.421875 15.734375 5.859375 
Q 8.6875 13.140625 8.6875 27.390625 
z
" id="DejaVuSans-85"/>
      <path d="M 9.078125 75.984375 
L 18.109375 75.984375 
L 18.109375 31.109375 
L 44.921875 54.6875 
L 56.390625 54.6875 
L 27.390625 29.109375 
L 57.625 0 
L 45.90625 0 
L 18.109375 26.703125 
L 18.109375 0 
L 9.078125 0 
z
" id="DejaVuSans-107"/>
     </defs>
     <g transform="translate(159.077691 256.148888)scale(0.06 -0.06)">
      <use xlink:href="#DejaVuSans-102"/>
      <use x="35.205078" xlink:href="#DejaVuSans-114"/>
      <use x="76.287109" xlink:href="#DejaVuSans-111"/>
      <use x="137.46875" xlink:href="#DejaVuSans-122"/>
      <use x="189.958984" xlink:href="#DejaVuSans-101"/>
      <use x="251.482422" xlink:href="#DejaVuSans-110"/>
      <use x="314.861328" xlink:href="#DejaVuSans-115"/>
      <use x="366.960938" xlink:href="#DejaVuSans-101"/>
      <use x="428.484375" xlink:href="#DejaVuSans-116"/>
      <use x="467.693359" xlink:href="#DejaVuSans-40"/>
      <use x="506.707031" xlink:href="#DejaVuSans-123"/>
      <use x="570.330078" xlink:href="#DejaVuSans-39"/>
      <use x="597.820312" xlink:href="#DejaVuSans-34"/>
      <use x="643.816406" xlink:href="#DejaVuSans-78"/>
      <use x="718.621094" xlink:href="#DejaVuSans-101"/>
      <use x="780.144531" xlink:href="#DejaVuSans-116"/>
      <use x="819.353516" xlink:href="#DejaVuSans-104"/>
      <use x="882.732422" xlink:href="#DejaVuSans-101"/>
      <use x="944.255859" xlink:href="#DejaVuSans-114"/>
      <use x="985.369141" xlink:href="#DejaVuSans-108"/>
      <use x="1013.152344" xlink:href="#DejaVuSans-97"/>
      <use x="1074.431641" xlink:href="#DejaVuSans-110"/>
      <use x="1137.810547" xlink:href="#DejaVuSans-100"/>
      <use x="1201.287109" xlink:href="#DejaVuSans-115"/>
      <use x="1253.386719" xlink:href="#DejaVuSans-34"/>
      <use x="1299.382812" xlink:href="#DejaVuSans-39"/>
      <use x="1326.873047" xlink:href="#DejaVuSans-44"/>
      <use x="1358.660156" xlink:href="#DejaVuSans-32"/>
      <use x="1390.447266" xlink:href="#DejaVuSans-39"/>
      <use x="1417.9375" xlink:href="#DejaVuSans-34"/>
      <use x="1463.933594" xlink:href="#DejaVuSans-71"/>
      <use x="1541.423828" xlink:href="#DejaVuSans-101"/>
      <use x="1602.947266" xlink:href="#DejaVuSans-114"/>
      <use x="1644.044922" xlink:href="#DejaVuSans-109"/>
      <use x="1741.457031" xlink:href="#DejaVuSans-97"/>
      <use x="1802.736328" xlink:href="#DejaVuSans-110"/>
      <use x="1866.115234" xlink:href="#DejaVuSans-121"/>
      <use x="1925.294922" xlink:href="#DejaVuSans-34"/>
      <use x="1971.291016" xlink:href="#DejaVuSans-39"/>
      <use x="1998.78125" xlink:href="#DejaVuSans-44"/>
      <use x="2030.568359" xlink:href="#DejaVuSans-32"/>
      <use x="2062.355469" xlink:href="#DejaVuSans-39"/>
      <use x="2089.845703" xlink:href="#DejaVuSans-34"/>
      <use x="2135.841797" xlink:href="#DejaVuSans-85"/>
      <use x="2209.035156" xlink:href="#DejaVuSans-107"/>
      <use x="2266.945312" xlink:href="#DejaVuSans-114"/>
      <use x="2308.058594" xlink:href="#DejaVuSans-97"/>
      <use x="2369.337891" xlink:href="#DejaVuSans-105"/>
      <use x="2397.121094" xlink:href="#DejaVuSans-110"/>
      <use x="2460.5" xlink:href="#DejaVuSans-101"/>
      <use x="2522.023438" xlink:href="#DejaVuSans-34"/>
      <use x="2568.019531" xlink:href="#DejaVuSans-39"/>
      <use x="2595.509766" xlink:href="#DejaVuSans-125"/>
      <use x="2659.132812" xlink:href="#DejaVuSans-41"/>
     </g>
    </g>
   </g>
   <g id="text_6">
    <g clip-path="url(#p493fade688)">
     <!-- frozenset({'"Poland"', '"Germany"', '"Ukraine"'}) -->
     <defs>
      <path d="M 19.671875 64.796875 
L 19.671875 37.40625 
L 32.078125 37.40625 
Q 38.96875 37.40625 42.71875 40.96875 
Q 46.484375 44.53125 46.484375 51.125 
Q 46.484375 57.671875 42.71875 61.234375 
Q 38.96875 64.796875 32.078125 64.796875 
z
M 9.8125 72.90625 
L 32.078125 72.90625 
Q 44.34375 72.90625 50.609375 67.359375 
Q 56.890625 61.8125 56.890625 51.125 
Q 56.890625 40.328125 50.609375 34.8125 
Q 44.34375 29.296875 32.078125 29.296875 
L 19.671875 29.296875 
L 19.671875 0 
L 9.8125 0 
z
" id="DejaVuSans-80"/>
     </defs>
     <g transform="translate(170.861726 330.984624)scale(0.06 -0.06)">
      <use xlink:href="#DejaVuSans-102"/>
      <use x="35.205078" xlink:href="#DejaVuSans-114"/>
      <use x="76.287109" xlink:href="#DejaVuSans-111"/>
      <use x="137.46875" xlink:href="#DejaVuSans-122"/>
      <use x="189.958984" xlink:href="#DejaVuSans-101"/>
      <use x="251.482422" xlink:href="#DejaVuSans-110"/>
      <use x="314.861328" xlink:href="#DejaVuSans-115"/>
      <use x="366.960938" xlink:href="#DejaVuSans-101"/>
      <use x="428.484375" xlink:href="#DejaVuSans-116"/>
      <use x="467.693359" xlink:href="#DejaVuSans-40"/>
      <use x="506.707031" xlink:href="#DejaVuSans-123"/>
      <use x="570.330078" xlink:href="#DejaVuSans-39"/>
      <use x="597.820312" xlink:href="#DejaVuSans-34"/>
      <use x="643.816406" xlink:href="#DejaVuSans-80"/>
      <use x="704.072266" xlink:href="#DejaVuSans-111"/>
      <use x="765.253906" xlink:href="#DejaVuSans-108"/>
      <use x="793.037109" xlink:href="#DejaVuSans-97"/>
      <use x="854.316406" xlink:href="#DejaVuSans-110"/>
      <use x="917.695312" xlink:href="#DejaVuSans-100"/>
      <use x="981.171875" xlink:href="#DejaVuSans-34"/>
      <use x="1027.167969" xlink:href="#DejaVuSans-39"/>
      <use x="1054.658203" xlink:href="#DejaVuSans-44"/>
      <use x="1086.445312" xlink:href="#DejaVuSans-32"/>
      <use x="1118.232422" xlink:href="#DejaVuSans-39"/>
      <use x="1145.722656" xlink:href="#DejaVuSans-34"/>
      <use x="1191.71875" xlink:href="#DejaVuSans-71"/>
      <use x="1269.208984" xlink:href="#DejaVuSans-101"/>
      <use x="1330.732422" xlink:href="#DejaVuSans-114"/>
      <use x="1371.830078" xlink:href="#DejaVuSans-109"/>
      <use x="1469.242188" xlink:href="#DejaVuSans-97"/>
      <use x="1530.521484" xlink:href="#DejaVuSans-110"/>
      <use x="1593.900391" xlink:href="#DejaVuSans-121"/>
      <use x="1653.080078" xlink:href="#DejaVuSans-34"/>
      <use x="1699.076172" xlink:href="#DejaVuSans-39"/>
      <use x="1726.566406" xlink:href="#DejaVuSans-44"/>
      <use x="1758.353516" xlink:href="#DejaVuSans-32"/>
      <use x="1790.140625" xlink:href="#DejaVuSans-39"/>
      <use x="1817.630859" xlink:href="#DejaVuSans-34"/>
      <use x="1863.626953" xlink:href="#DejaVuSans-85"/>
      <use x="1936.820312" xlink:href="#DejaVuSans-107"/>
      <use x="1994.730469" xlink:href="#DejaVuSans-114"/>
      <use x="2035.84375" xlink:href="#DejaVuSans-97"/>
      <use x="2097.123047" xlink:href="#DejaVuSans-105"/>
      <use x="2124.90625" xlink:href="#DejaVuSans-110"/>
      <use x="2188.285156" xlink:href="#DejaVuSans-101"/>
      <use x="2249.808594" xlink:href="#DejaVuSans-34"/>
      <use x="2295.804688" xlink:href="#DejaVuSans-39"/>
      <use x="2323.294922" xlink:href="#DejaVuSans-125"/>
      <use x="2386.917969" xlink:href="#DejaVuSans-41"/>
     </g>
    </g>
   </g>
  </g>
 </g>
 <defs>
  <clipPath id="p493fade688">
   <rect height="345.6" width="460.8" x="0" y="0"/>
  </clipPath>
 </defs>
</svg>
