<?xml version="1.0" encoding="utf-8" standalone="no"?>
<!DOCTYPE svg PUBLIC "-//W3C//DTD SVG 1.1//EN"
  "http://www.w3.org/Graphics/SVG/1.1/DTD/svg11.dtd">
<!-- Created with matplotlib (https://matplotlib.org/) -->
<svg height="345.6pt" version="1.1" viewBox="0 0 460.8 345.6" width="460.8pt" xmlns="http://www.w3.org/2000/svg" xmlns:xlink="http://www.w3.org/1999/xlink">
 <defs>
  <style type="text/css">
*{stroke-linecap:butt;stroke-linejoin:round;}
  </style>
 </defs>
 <g id="figure_1">
  <g id="patch_1">
   <path d="M 0 345.6 
L 460.8 345.6 
L 460.8 0 
L 0 0 
z
" style="fill:#ffffff;"/>
  </g>
  <g id="axes_1">
   <g id="LineCollection_1">
    <path clip-path="url(#pc0c4138bf8)" d="M 439.839368 329.865651 
L 390.234081 279.012374 
" style="fill:none;stroke:#000000;"/>
    <path clip-path="url(#pc0c4138bf8)" d="M 390.234081 279.012374 
L 329.094312 213.818895 
" style="fill:none;stroke:#000000;"/>
    <path clip-path="url(#pc0c4138bf8)" d="M 329.094312 213.818895 
L 256.178327 144.573227 
" style="fill:none;stroke:#000000;"/>
    <path clip-path="url(#pc0c4138bf8)" d="M 256.178327 144.573227 
L 166.622211 82.56856 
" style="fill:none;stroke:#000000;"/>
    <path clip-path="url(#pc0c4138bf8)" d="M 166.622211 82.56856 
L 201.314871 77.115962 
" style="fill:none;stroke:#000000;"/>
    <path clip-path="url(#pc0c4138bf8)" d="M 166.622211 82.56856 
L 84.393697 44.268633 
" style="fill:none;stroke:#000000;"/>
    <path clip-path="url(#pc0c4138bf8)" d="M 201.314871 77.115962 
L 183.413478 158.181165 
" style="fill:none;stroke:#000000;"/>
    <path clip-path="url(#pc0c4138bf8)" d="M 84.393697 44.268633 
L 20.960632 15.734349 
" style="fill:none;stroke:#000000;"/>
    <path clip-path="url(#pc0c4138bf8)" d="M 183.413478 158.181165 
L 160.319104 244.931827 
" style="fill:none;stroke:#000000;"/>
    <path clip-path="url(#pc0c4138bf8)" d="M 160.319104 244.931827 
L 138.244329 318.122748 
" style="fill:none;stroke:#000000;"/>
   </g>
   <g id="PathCollection_1">
    <defs>
     <path d="M 0 8.660254 
C 2.296726 8.660254 4.499694 7.747755 6.123724 6.123724 
C 7.747755 4.499694 8.660254 2.296726 8.660254 0 
C 8.660254 -2.296726 7.747755 -4.499694 6.123724 -6.123724 
C 4.499694 -7.747755 2.296726 -8.660254 0 -8.660254 
C -2.296726 -8.660254 -4.499694 -7.747755 -6.123724 -6.123724 
C -7.747755 -4.499694 -8.660254 -2.296726 -8.660254 0 
C -8.660254 2.296726 -7.747755 4.499694 -6.123724 6.123724 
C -4.499694 7.747755 -2.296726 8.660254 0 8.660254 
z
" id="m597d969a10" style="stroke:#ff0000;"/>
    </defs>
    <g clip-path="url(#pc0c4138bf8)">
     <use style="fill:#ff0000;stroke:#ff0000;" x="439.839368" xlink:href="#m597d969a10" y="329.865651"/>
     <use style="fill:#ff0000;stroke:#ff0000;" x="390.234081" xlink:href="#m597d969a10" y="279.012374"/>
     <use style="fill:#ff0000;stroke:#ff0000;" x="329.094312" xlink:href="#m597d969a10" y="213.818895"/>
     <use style="fill:#ff0000;stroke:#ff0000;" x="256.178327" xlink:href="#m597d969a10" y="144.573227"/>
     <use style="fill:#ff0000;stroke:#ff0000;" x="166.622211" xlink:href="#m597d969a10" y="82.56856"/>
     <use style="fill:#ff0000;stroke:#ff0000;" x="201.314871" xlink:href="#m597d969a10" y="77.115962"/>
     <use style="fill:#ff0000;stroke:#ff0000;" x="84.393697" xlink:href="#m597d969a10" y="44.268633"/>
     <use style="fill:#ff0000;stroke:#ff0000;" x="183.413478" xlink:href="#m597d969a10" y="158.181165"/>
     <use style="fill:#ff0000;stroke:#ff0000;" x="20.960632" xlink:href="#m597d969a10" y="15.734349"/>
     <use style="fill:#ff0000;stroke:#ff0000;" x="160.319104" xlink:href="#m597d969a10" y="244.931827"/>
     <use style="fill:#ff0000;stroke:#ff0000;" x="138.244329" xlink:href="#m597d969a10" y="318.122748"/>
    </g>
   </g>
   <g id="text_1">
    <g clip-path="url(#pc0c4138bf8)">
     <!-- ((0, 3, 6), 1) -->
     <defs>
      <path d="M 31 75.875 
Q 24.46875 64.65625 21.28125 53.65625 
Q 18.109375 42.671875 18.109375 31.390625 
Q 18.109375 20.125 21.3125 9.0625 
Q 24.515625 -2 31 -13.1875 
L 23.1875 -13.1875 
Q 15.875 -1.703125 12.234375 9.375 
Q 8.59375 20.453125 8.59375 31.390625 
Q 8.59375 42.28125 12.203125 53.3125 
Q 15.828125 64.359375 23.1875 75.875 
z
" id="DejaVuSans-40"/>
      <path d="M 31.78125 66.40625 
Q 24.171875 66.40625 20.328125 58.90625 
Q 16.5 51.421875 16.5 36.375 
Q 16.5 21.390625 20.328125 13.890625 
Q 24.171875 6.390625 31.78125 6.390625 
Q 39.453125 6.390625 43.28125 13.890625 
Q 47.125 21.390625 47.125 36.375 
Q 47.125 51.421875 43.28125 58.90625 
Q 39.453125 66.40625 31.78125 66.40625 
z
M 31.78125 74.21875 
Q 44.046875 74.21875 50.515625 64.515625 
Q 56.984375 54.828125 56.984375 36.375 
Q 56.984375 17.96875 50.515625 8.265625 
Q 44.046875 -1.421875 31.78125 -1.421875 
Q 19.53125 -1.421875 13.0625 8.265625 
Q 6.59375 17.96875 6.59375 36.375 
Q 6.59375 54.828125 13.0625 64.515625 
Q 19.53125 74.21875 31.78125 74.21875 
z
" id="DejaVuSans-48"/>
      <path d="M 11.71875 12.40625 
L 22.015625 12.40625 
L 22.015625 4 
L 14.015625 -11.625 
L 7.71875 -11.625 
L 11.71875 4 
z
" id="DejaVuSans-44"/>
      <path id="DejaVuSans-32"/>
      <path d="M 40.578125 39.3125 
Q 47.65625 37.796875 51.625 33 
Q 55.609375 28.21875 55.609375 21.1875 
Q 55.609375 10.40625 48.1875 4.484375 
Q 40.765625 -1.421875 27.09375 -1.421875 
Q 22.515625 -1.421875 17.65625 -0.515625 
Q 12.796875 0.390625 7.625 2.203125 
L 7.625 11.71875 
Q 11.71875 9.328125 16.59375 8.109375 
Q 21.484375 6.890625 26.8125 6.890625 
Q 36.078125 6.890625 40.9375 10.546875 
Q 45.796875 14.203125 45.796875 21.1875 
Q 45.796875 27.640625 41.28125 31.265625 
Q 36.765625 34.90625 28.71875 34.90625 
L 20.21875 34.90625 
L 20.21875 43.015625 
L 29.109375 43.015625 
Q 36.375 43.015625 40.234375 45.921875 
Q 44.09375 48.828125 44.09375 54.296875 
Q 44.09375 59.90625 40.109375 62.90625 
Q 36.140625 65.921875 28.71875 65.921875 
Q 24.65625 65.921875 20.015625 65.03125 
Q 15.375 64.15625 9.8125 62.3125 
L 9.8125 71.09375 
Q 15.4375 72.65625 20.34375 73.4375 
Q 25.25 74.21875 29.59375 74.21875 
Q 40.828125 74.21875 47.359375 69.109375 
Q 53.90625 64.015625 53.90625 55.328125 
Q 53.90625 49.265625 50.4375 45.09375 
Q 46.96875 40.921875 40.578125 39.3125 
z
" id="DejaVuSans-51"/>
      <path d="M 33.015625 40.375 
Q 26.375 40.375 22.484375 35.828125 
Q 18.609375 31.296875 18.609375 23.390625 
Q 18.609375 15.53125 22.484375 10.953125 
Q 26.375 6.390625 33.015625 6.390625 
Q 39.65625 6.390625 43.53125 10.953125 
Q 47.40625 15.53125 47.40625 23.390625 
Q 47.40625 31.296875 43.53125 35.828125 
Q 39.65625 40.375 33.015625 40.375 
z
M 52.59375 71.296875 
L 52.59375 62.3125 
Q 48.875 64.0625 45.09375 64.984375 
Q 41.3125 65.921875 37.59375 65.921875 
Q 27.828125 65.921875 22.671875 59.328125 
Q 17.53125 52.734375 16.796875 39.40625 
Q 19.671875 43.65625 24.015625 45.921875 
Q 28.375 48.1875 33.59375 48.1875 
Q 44.578125 48.1875 50.953125 41.515625 
Q 57.328125 34.859375 57.328125 23.390625 
Q 57.328125 12.15625 50.6875 5.359375 
Q 44.046875 -1.421875 33.015625 -1.421875 
Q 20.359375 -1.421875 13.671875 8.265625 
Q 6.984375 17.96875 6.984375 36.375 
Q 6.984375 53.65625 15.1875 63.9375 
Q 23.390625 74.21875 37.203125 74.21875 
Q 40.921875 74.21875 44.703125 73.484375 
Q 48.484375 72.75 52.59375 71.296875 
z
" id="DejaVuSans-54"/>
      <path d="M 8.015625 75.875 
L 15.828125 75.875 
Q 23.140625 64.359375 26.78125 53.3125 
Q 30.421875 42.28125 30.421875 31.390625 
Q 30.421875 20.453125 26.78125 9.375 
Q 23.140625 -1.703125 15.828125 -13.1875 
L 8.015625 -13.1875 
Q 14.5 -2 17.703125 9.0625 
Q 20.90625 20.125 20.90625 31.390625 
Q 20.90625 42.671875 17.703125 53.65625 
Q 14.5 64.65625 8.015625 75.875 
z
" id="DejaVuSans-41"/>
      <path d="M 12.40625 8.296875 
L 28.515625 8.296875 
L 28.515625 63.921875 
L 10.984375 60.40625 
L 10.984375 69.390625 
L 28.421875 72.90625 
L 38.28125 72.90625 
L 38.28125 8.296875 
L 54.390625 8.296875 
L 54.390625 0 
L 12.40625 0 
z
" id="DejaVuSans-49"/>
     </defs>
     <g transform="translate(433.826868 330.417526)scale(0.02 -0.02)">
      <use xlink:href="#DejaVuSans-40"/>
      <use x="39.013672" xlink:href="#DejaVuSans-40"/>
      <use x="78.027344" xlink:href="#DejaVuSans-48"/>
      <use x="141.650391" xlink:href="#DejaVuSans-44"/>
      <use x="173.4375" xlink:href="#DejaVuSans-32"/>
      <use x="205.224609" xlink:href="#DejaVuSans-51"/>
      <use x="268.847656" xlink:href="#DejaVuSans-44"/>
      <use x="300.634766" xlink:href="#DejaVuSans-32"/>
      <use x="332.421875" xlink:href="#DejaVuSans-54"/>
      <use x="396.044922" xlink:href="#DejaVuSans-41"/>
      <use x="435.058594" xlink:href="#DejaVuSans-44"/>
      <use x="466.845703" xlink:href="#DejaVuSans-32"/>
      <use x="498.632812" xlink:href="#DejaVuSans-49"/>
      <use x="562.255859" xlink:href="#DejaVuSans-41"/>
     </g>
    </g>
   </g>
   <g id="text_2">
    <g clip-path="url(#pc0c4138bf8)">
     <!-- ((3, 6), 2) -->
     <defs>
      <path d="M 19.1875 8.296875 
L 53.609375 8.296875 
L 53.609375 0 
L 7.328125 0 
L 7.328125 8.296875 
Q 12.9375 14.109375 22.625 23.890625 
Q 32.328125 33.6875 34.8125 36.53125 
Q 39.546875 41.84375 41.421875 45.53125 
Q 43.3125 49.21875 43.3125 52.78125 
Q 43.3125 58.59375 39.234375 62.25 
Q 35.15625 65.921875 28.609375 65.921875 
Q 23.96875 65.921875 18.8125 64.3125 
Q 13.671875 62.703125 7.8125 59.421875 
L 7.8125 69.390625 
Q 13.765625 71.78125 18.9375 73 
Q 24.125 74.21875 28.421875 74.21875 
Q 39.75 74.21875 46.484375 68.546875 
Q 53.21875 62.890625 53.21875 53.421875 
Q 53.21875 48.921875 51.53125 44.890625 
Q 49.859375 40.875 45.40625 35.40625 
Q 44.1875 33.984375 37.640625 27.21875 
Q 31.109375 20.453125 19.1875 8.296875 
z
" id="DejaVuSans-50"/>
     </defs>
     <g transform="translate(385.493456 279.564249)scale(0.02 -0.02)">
      <use xlink:href="#DejaVuSans-40"/>
      <use x="39.013672" xlink:href="#DejaVuSans-40"/>
      <use x="78.027344" xlink:href="#DejaVuSans-51"/>
      <use x="141.650391" xlink:href="#DejaVuSans-44"/>
      <use x="173.4375" xlink:href="#DejaVuSans-32"/>
      <use x="205.224609" xlink:href="#DejaVuSans-54"/>
      <use x="268.847656" xlink:href="#DejaVuSans-41"/>
      <use x="307.861328" xlink:href="#DejaVuSans-44"/>
      <use x="339.648438" xlink:href="#DejaVuSans-32"/>
      <use x="371.435547" xlink:href="#DejaVuSans-50"/>
      <use x="435.058594" xlink:href="#DejaVuSans-41"/>
     </g>
    </g>
   </g>
   <g id="text_3">
    <g clip-path="url(#pc0c4138bf8)">
     <!-- ((6,), 3) -->
     <g transform="translate(325.30775 214.37077)scale(0.02 -0.02)">
      <use xlink:href="#DejaVuSans-40"/>
      <use x="39.013672" xlink:href="#DejaVuSans-40"/>
      <use x="78.027344" xlink:href="#DejaVuSans-54"/>
      <use x="141.650391" xlink:href="#DejaVuSans-44"/>
      <use x="173.4375" xlink:href="#DejaVuSans-41"/>
      <use x="212.451172" xlink:href="#DejaVuSans-44"/>
      <use x="244.238281" xlink:href="#DejaVuSans-32"/>
      <use x="276.025391" xlink:href="#DejaVuSans-51"/>
      <use x="339.648438" xlink:href="#DejaVuSans-41"/>
     </g>
    </g>
   </g>
   <g id="text_4">
    <g clip-path="url(#pc0c4138bf8)">
     <!-- ((), 4) -->
     <defs>
      <path d="M 37.796875 64.3125 
L 12.890625 25.390625 
L 37.796875 25.390625 
z
M 35.203125 72.90625 
L 47.609375 72.90625 
L 47.609375 25.390625 
L 58.015625 25.390625 
L 58.015625 17.1875 
L 47.609375 17.1875 
L 47.609375 0 
L 37.796875 0 
L 37.796875 17.1875 
L 4.890625 17.1875 
L 4.890625 26.703125 
z
" id="DejaVuSans-52"/>
     </defs>
     <g transform="translate(253.345827 145.125102)scale(0.02 -0.02)">
      <use xlink:href="#DejaVuSans-40"/>
      <use x="39.013672" xlink:href="#DejaVuSans-40"/>
      <use x="78.027344" xlink:href="#DejaVuSans-41"/>
      <use x="117.041016" xlink:href="#DejaVuSans-44"/>
      <use x="148.828125" xlink:href="#DejaVuSans-32"/>
      <use x="180.615234" xlink:href="#DejaVuSans-52"/>
      <use x="244.238281" xlink:href="#DejaVuSans-41"/>
     </g>
    </g>
   </g>
   <g id="text_5">
    <g clip-path="url(#pc0c4138bf8)">
     <!-- ((5,), 5) -->
     <defs>
      <path d="M 10.796875 72.90625 
L 49.515625 72.90625 
L 49.515625 64.59375 
L 19.828125 64.59375 
L 19.828125 46.734375 
Q 21.96875 47.46875 24.109375 47.828125 
Q 26.265625 48.1875 28.421875 48.1875 
Q 40.625 48.1875 47.75 41.5 
Q 54.890625 34.8125 54.890625 23.390625 
Q 54.890625 11.625 47.5625 5.09375 
Q 40.234375 -1.421875 26.90625 -1.421875 
Q 22.3125 -1.421875 17.546875 -0.640625 
Q 12.796875 0.140625 7.71875 1.703125 
L 7.71875 11.625 
Q 12.109375 9.234375 16.796875 8.0625 
Q 21.484375 6.890625 26.703125 6.890625 
Q 35.15625 6.890625 40.078125 11.328125 
Q 45.015625 15.765625 45.015625 23.390625 
Q 45.015625 31 40.078125 35.4375 
Q 35.15625 39.890625 26.703125 39.890625 
Q 22.75 39.890625 18.8125 39.015625 
Q 14.890625 38.140625 10.796875 36.28125 
z
" id="DejaVuSans-53"/>
     </defs>
     <g transform="translate(162.835649 83.120435)scale(0.02 -0.02)">
      <use xlink:href="#DejaVuSans-40"/>
      <use x="39.013672" xlink:href="#DejaVuSans-40"/>
      <use x="78.027344" xlink:href="#DejaVuSans-53"/>
      <use x="141.650391" xlink:href="#DejaVuSans-44"/>
      <use x="173.4375" xlink:href="#DejaVuSans-41"/>
      <use x="212.451172" xlink:href="#DejaVuSans-44"/>
      <use x="244.238281" xlink:href="#DejaVuSans-32"/>
      <use x="276.025391" xlink:href="#DejaVuSans-53"/>
      <use x="339.648438" xlink:href="#DejaVuSans-41"/>
     </g>
    </g>
   </g>
   <g id="text_6">
    <g clip-path="url(#pc0c4138bf8)">
     <!-- ((5,), 6) -->
     <g transform="translate(197.528308 77.667837)scale(0.02 -0.02)">
      <use xlink:href="#DejaVuSans-40"/>
      <use x="39.013672" xlink:href="#DejaVuSans-40"/>
      <use x="78.027344" xlink:href="#DejaVuSans-53"/>
      <use x="141.650391" xlink:href="#DejaVuSans-44"/>
      <use x="173.4375" xlink:href="#DejaVuSans-41"/>
      <use x="212.451172" xlink:href="#DejaVuSans-44"/>
      <use x="244.238281" xlink:href="#DejaVuSans-32"/>
      <use x="276.025391" xlink:href="#DejaVuSans-54"/>
      <use x="339.648438" xlink:href="#DejaVuSans-41"/>
     </g>
    </g>
   </g>
   <g id="text_7">
    <g clip-path="url(#pc0c4138bf8)">
     <!-- ((5,), 7) -->
     <defs>
      <path d="M 8.203125 72.90625 
L 55.078125 72.90625 
L 55.078125 68.703125 
L 28.609375 0 
L 18.3125 0 
L 43.21875 64.59375 
L 8.203125 64.59375 
z
" id="DejaVuSans-55"/>
     </defs>
     <g transform="translate(80.607134 44.820508)scale(0.02 -0.02)">
      <use xlink:href="#DejaVuSans-40"/>
      <use x="39.013672" xlink:href="#DejaVuSans-40"/>
      <use x="78.027344" xlink:href="#DejaVuSans-53"/>
      <use x="141.650391" xlink:href="#DejaVuSans-44"/>
      <use x="173.4375" xlink:href="#DejaVuSans-41"/>
      <use x="212.451172" xlink:href="#DejaVuSans-44"/>
      <use x="244.238281" xlink:href="#DejaVuSans-32"/>
      <use x="276.025391" xlink:href="#DejaVuSans-55"/>
      <use x="339.648438" xlink:href="#DejaVuSans-41"/>
     </g>
    </g>
   </g>
   <g id="text_8">
    <g clip-path="url(#pc0c4138bf8)">
     <!-- ((1, 5), 8) -->
     <defs>
      <path d="M 31.78125 34.625 
Q 24.75 34.625 20.71875 30.859375 
Q 16.703125 27.09375 16.703125 20.515625 
Q 16.703125 13.921875 20.71875 10.15625 
Q 24.75 6.390625 31.78125 6.390625 
Q 38.8125 6.390625 42.859375 10.171875 
Q 46.921875 13.96875 46.921875 20.515625 
Q 46.921875 27.09375 42.890625 30.859375 
Q 38.875 34.625 31.78125 34.625 
z
M 21.921875 38.8125 
Q 15.578125 40.375 12.03125 44.71875 
Q 8.5 49.078125 8.5 55.328125 
Q 8.5 64.0625 14.71875 69.140625 
Q 20.953125 74.21875 31.78125 74.21875 
Q 42.671875 74.21875 48.875 69.140625 
Q 55.078125 64.0625 55.078125 55.328125 
Q 55.078125 49.078125 51.53125 44.71875 
Q 48 40.375 41.703125 38.8125 
Q 48.828125 37.15625 52.796875 32.3125 
Q 56.78125 27.484375 56.78125 20.515625 
Q 56.78125 9.90625 50.3125 4.234375 
Q 43.84375 -1.421875 31.78125 -1.421875 
Q 19.734375 -1.421875 13.25 4.234375 
Q 6.78125 9.90625 6.78125 20.515625 
Q 6.78125 27.484375 10.78125 32.3125 
Q 14.796875 37.15625 21.921875 38.8125 
z
M 18.3125 54.390625 
Q 18.3125 48.734375 21.84375 45.5625 
Q 25.390625 42.390625 31.78125 42.390625 
Q 38.140625 42.390625 41.71875 45.5625 
Q 45.3125 48.734375 45.3125 54.390625 
Q 45.3125 60.0625 41.71875 63.234375 
Q 38.140625 66.40625 31.78125 66.40625 
Q 25.390625 66.40625 21.84375 63.234375 
Q 18.3125 60.0625 18.3125 54.390625 
z
" id="DejaVuSans-56"/>
     </defs>
     <g transform="translate(178.672853 158.73304)scale(0.02 -0.02)">
      <use xlink:href="#DejaVuSans-40"/>
      <use x="39.013672" xlink:href="#DejaVuSans-40"/>
      <use x="78.027344" xlink:href="#DejaVuSans-49"/>
      <use x="141.650391" xlink:href="#DejaVuSans-44"/>
      <use x="173.4375" xlink:href="#DejaVuSans-32"/>
      <use x="205.224609" xlink:href="#DejaVuSans-53"/>
      <use x="268.847656" xlink:href="#DejaVuSans-41"/>
      <use x="307.861328" xlink:href="#DejaVuSans-44"/>
      <use x="339.648438" xlink:href="#DejaVuSans-32"/>
      <use x="371.435547" xlink:href="#DejaVuSans-56"/>
      <use x="435.058594" xlink:href="#DejaVuSans-41"/>
     </g>
    </g>
   </g>
   <g id="text_9">
    <g clip-path="url(#pc0c4138bf8)">
     <!-- ((2, 5), 9) -->
     <defs>
      <path d="M 10.984375 1.515625 
L 10.984375 10.5 
Q 14.703125 8.734375 18.5 7.8125 
Q 22.3125 6.890625 25.984375 6.890625 
Q 35.75 6.890625 40.890625 13.453125 
Q 46.046875 20.015625 46.78125 33.40625 
Q 43.953125 29.203125 39.59375 26.953125 
Q 35.25 24.703125 29.984375 24.703125 
Q 19.046875 24.703125 12.671875 31.3125 
Q 6.296875 37.9375 6.296875 49.421875 
Q 6.296875 60.640625 12.9375 67.421875 
Q 19.578125 74.21875 30.609375 74.21875 
Q 43.265625 74.21875 49.921875 64.515625 
Q 56.59375 54.828125 56.59375 36.375 
Q 56.59375 19.140625 48.40625 8.859375 
Q 40.234375 -1.421875 26.421875 -1.421875 
Q 22.703125 -1.421875 18.890625 -0.6875 
Q 15.09375 0.046875 10.984375 1.515625 
z
M 30.609375 32.421875 
Q 37.25 32.421875 41.125 36.953125 
Q 45.015625 41.5 45.015625 49.421875 
Q 45.015625 57.28125 41.125 61.84375 
Q 37.25 66.40625 30.609375 66.40625 
Q 23.96875 66.40625 20.09375 61.84375 
Q 16.21875 57.28125 16.21875 49.421875 
Q 16.21875 41.5 20.09375 36.953125 
Q 23.96875 32.421875 30.609375 32.421875 
z
" id="DejaVuSans-57"/>
     </defs>
     <g transform="translate(16.220007 16.286224)scale(0.02 -0.02)">
      <use xlink:href="#DejaVuSans-40"/>
      <use x="39.013672" xlink:href="#DejaVuSans-40"/>
      <use x="78.027344" xlink:href="#DejaVuSans-50"/>
      <use x="141.650391" xlink:href="#DejaVuSans-44"/>
      <use x="173.4375" xlink:href="#DejaVuSans-32"/>
      <use x="205.224609" xlink:href="#DejaVuSans-53"/>
      <use x="268.847656" xlink:href="#DejaVuSans-41"/>
      <use x="307.861328" xlink:href="#DejaVuSans-44"/>
      <use x="339.648438" xlink:href="#DejaVuSans-32"/>
      <use x="371.435547" xlink:href="#DejaVuSans-57"/>
      <use x="435.058594" xlink:href="#DejaVuSans-41"/>
     </g>
    </g>
   </g>
   <g id="text_10">
    <g clip-path="url(#pc0c4138bf8)">
     <!-- ((1,), 10) -->
     <g transform="translate(155.896291 245.483702)scale(0.02 -0.02)">
      <use xlink:href="#DejaVuSans-40"/>
      <use x="39.013672" xlink:href="#DejaVuSans-40"/>
      <use x="78.027344" xlink:href="#DejaVuSans-49"/>
      <use x="141.650391" xlink:href="#DejaVuSans-44"/>
      <use x="173.4375" xlink:href="#DejaVuSans-41"/>
      <use x="212.451172" xlink:href="#DejaVuSans-44"/>
      <use x="244.238281" xlink:href="#DejaVuSans-32"/>
      <use x="276.025391" xlink:href="#DejaVuSans-49"/>
      <use x="339.648438" xlink:href="#DejaVuSans-48"/>
      <use x="403.271484" xlink:href="#DejaVuSans-41"/>
     </g>
    </g>
   </g>
   <g id="text_11">
    <g clip-path="url(#pc0c4138bf8)">
     <!-- ((1, 4), 11) -->
     <g transform="translate(132.867454 318.674623)scale(0.02 -0.02)">
      <use xlink:href="#DejaVuSans-40"/>
      <use x="39.013672" xlink:href="#DejaVuSans-40"/>
      <use x="78.027344" xlink:href="#DejaVuSans-49"/>
      <use x="141.650391" xlink:href="#DejaVuSans-44"/>
      <use x="173.4375" xlink:href="#DejaVuSans-32"/>
      <use x="205.224609" xlink:href="#DejaVuSans-52"/>
      <use x="268.847656" xlink:href="#DejaVuSans-41"/>
      <use x="307.861328" xlink:href="#DejaVuSans-44"/>
      <use x="339.648438" xlink:href="#DejaVuSans-32"/>
      <use x="371.435547" xlink:href="#DejaVuSans-49"/>
      <use x="435.058594" xlink:href="#DejaVuSans-49"/>
      <use x="498.681641" xlink:href="#DejaVuSans-41"/>
     </g>
    </g>
   </g>
  </g>
 </g>
 <defs>
  <clipPath id="pc0c4138bf8">
   <rect height="345.6" width="460.8" x="0" y="0"/>
  </clipPath>
 </defs>
</svg>
